<?xml version="1.0" encoding="utf-8"?>
<!-- Generator: Adobe Illustrator 19.1.0, SVG Export Plug-In . SVG Version: 6.00 Build 0)  -->
<svg version="1.1" id="Layer_1" xmlns="http://www.w3.org/2000/svg" xmlns:xlink="http://www.w3.org/1999/xlink" x="0px" y="0px"
	 viewBox="0 0 480 60" style="enable-background:new 0 0 480 60;" xml:space="preserve">
<style type="text/css">
	.st0{fill:#FFFFFF;}
	.st1{fill:#FF0000;}
</style>
<g>
	<path class="st0" d="M1.8,0.3h27.9v5.9H9.6v4.1h19v5.3h-19v4.1h20.5v6.1H1.8V0.3z"/>
	<path class="st0" d="M34.8,0.3h12l8.8,16.4l8.8-16.4h12v25.5h-7.6V7.5h-0.1L58.5,25.7h-5.8L42.5,7.5h-0.1v18.3h-7.6V0.3z"/>
	<path class="st0" d="M82.1,0.3h7.8v25.5h-7.8V0.3z"/>
	<path class="st0" d="M95.1,9.2c0-7.5,4.2-9.2,11.2-9.2h9.2C126.6,0,128,2.4,128,9.6h-7.8V8.9c0-1.8-1.3-2.4-3.7-2.4H108
		c-4.1,0-4.9,1.9-4.9,5.1v2.7c0,3.7,0.8,5.1,4.5,5.1h8.3c3.5,0,4.6-0.4,4.6-3.5h7.8v2.4c0,4.3-1.5,7.7-9.4,7.7h-12.6
		c-7,0-11.2-1.8-11.2-9.2V9.2z"/>
	<path class="st0" d="M133.4,0.3h7.8v25.5h-7.8V0.3z"/>
	<path class="st0" d="M147.2,0.3h23.6c7.8,0,10.6,2.6,10.6,8.9v7.7c0,6.3-2.7,8.9-10.6,8.9h-23.6V0.3z M155,19.2h13.9
		c3.3,0,4.6-0.9,4.6-4.6v-3.4c0-3.6-1.3-4.6-4.6-4.6H155V19.2z"/>
	<path class="st0" d="M195.9,0.3h10.2l14,25.5h-8.7l-2.4-4.5h-15.8l-2.3,4.5h-8.7L195.9,0.3z M196.1,15.8h10L201,6.2L196.1,15.8z"/>
	<path class="st0" d="M248.7,0h5.3l-11.7,26H237L248.7,0z"/>
	<path class="st0" d="M283,16.9L268.9,0.3h9.4l8.6,10.4l8.6-10.4h9.4l-14.1,16.6v8.9H283V16.9z"/>
	<path class="st0" d="M313.1,0.3h10.2l14,25.5h-8.7l-2.4-4.5h-15.8l-2.3,4.5h-8.7L313.1,0.3z M313.3,15.8h10l-5.1-9.6L313.3,15.8z"
		/>
	<path class="st0" d="M339.6,17.4h7.8c0,2.7,1.1,2.9,3.4,2.9h9.6c1.7,0,3.3-0.2,3.3-2.1c0-2.2-0.9-2.4-11-2.4
		c-11.7,0-13.1-1.4-13.1-7.7c0-4.6,0.4-8.2,10.3-8.2h10.9c9,0,9.8,3.1,9.8,7.5v0.8h-7.8c0-1.9-0.2-2.6-3.8-2.6h-8.7
		c-1.8,0-3,0.6-3,2c0,2.2,0.9,2.3,9.3,2.3c12.1,0,15,0.7,15,8.1c0,6.9-2.3,8-12.7,8h-9.5c-7.1,0-10-1.3-10-6.9V17.4z"/>
	<path class="st0" d="M376.5,0.3h7.8V15c0,3.2,1.2,4.5,4.4,4.5h7.7c3.2,0,4.4-1.3,4.4-4.5V0.3h7.8v16.4c0,6.3-3.3,9.4-10.4,9.4H387
		c-7.2,0-10.4-3-10.4-9.4V0.3z"/>
	<path class="st0" d="M413.9,0.3h7.8v9.4h3.7l9.8-9.4h10.6L432,12.7l15.4,13h-11L425.1,16h-3.4v9.8h-7.8V0.3z"/>
	<path class="st0" d="M450.4,0.3h27.9v5.9h-20.1v4.1h19v5.3h-19v4.1h20.5v6.1h-28.3V0.3z"/>
	<path class="st0" d="M0,48.7h7.6V51c0,1.9,1,2.7,3.4,2.7h3.1c2.6,0,4.1-0.3,4.1-2.7V34.3H26v17.4c0,7-3.8,8.4-10.9,8.4H10
		c-7.3,0-10-2.3-10-8.2V48.7z"/>
	<path class="st0" d="M40.5,34.3h10.2l14,25.5h-8.7l-2.4-4.5H37.7l-2.3,4.5h-8.7L40.5,34.3z M40.6,49.7h10l-5.1-9.6L40.6,49.7z"/>
	<path class="st0" d="M68.1,34.3h21.3c7.4,0,9.2,3.7,9.2,8.7v2.2c0,3.8-1.7,8.2-7.2,8.2H75.9v6.4h-7.8V34.3z M75.9,47H88
		c1.8,0,2.5-1.2,2.5-2.7v-1c0-1.7-0.8-2.7-3.2-2.7H75.9V47z"/>
	<path class="st0" d="M110.8,34.3h10.2l14,25.5h-8.7l-2.4-4.5H108l-2.3,4.5H97L110.8,34.3z M110.9,49.7h10l-5.1-9.6L110.9,49.7z"/>
	<path class="st0" d="M137.7,34.3h12.1l14.7,18.5h0.1V34.3h7.8v25.5h-12.1l-14.7-18.5h-0.1v18.5h-7.8V34.3z"/>
	<path class="st0" d="M192.4,34.3h29.8v6.3h-11v19.1h-7.8V40.6h-11V34.3z"/>
	<path class="st0" d="M225,43.2c0-7.5,4.2-9.2,11.2-9.2h12.5c7,0,11.2,1.8,11.2,9.2v7.6c0,7.5-4.2,9.2-11.2,9.2h-12.5
		c-7,0-11.2-1.8-11.2-9.2V43.2z M233.1,48.4c0,3.7,0.8,5.1,4.5,5.1h10c3.7,0,4.5-1.4,4.5-5.1v-2.7c0-3.2-0.8-5.1-4.9-5.1H238
		c-4.1,0-4.9,1.9-4.9,5.1V48.4z"/>
	<path class="st0" d="M264.7,34.3h7.8V49c0,3.2,1.2,4.5,4.4,4.5h7.7c3.2,0,4.4-1.3,4.4-4.5V34.3h7.8v16.4c0,6.3-3.3,9.4-10.4,9.4
		h-11.2c-7.2,0-10.4-3-10.4-9.4V34.3z"/>
	<path class="st0" d="M302.1,34.3h23.6c6,0,7.6,3,7.6,7.6v1.6c0,3.4-0.8,5.4-4.4,6.3v0.1c2.3,0.4,4.3,1.4,4.3,5.6v4.3h-7.8v-3.1
		c0-2.7-0.8-3.6-3.2-3.6h-12.3v6.6h-7.8V34.3z M309.9,46.8h12.9c2.1,0,2.9-0.8,2.9-2.7v-0.8c0-2.3-1.1-2.7-3.6-2.7h-12.2V46.8z"/>
	<path class="st0" d="M355.7,51.1c0-3.1,2-5.2,7.1-5.6l8.9-0.6c5.7-0.4,6.1-0.5,6.1-3c0-2.1-0.2-2.5-5.2-2.5h-5.2
		c-3.3,0-4.3,0.5-4.3,3.1v1.1h-7.4v-3c0-5,3-6.7,10-6.7H376c7.3,0,9.2,2.2,9.2,7.5c0,7.5-1.4,8.8-10.5,9.3l-8.1,0.4
		c-3.3,0.2-3.8,0.8-3.8,3.1h22.7v5.5h-29.8V51.1z"/>
	<path class="st1" d="M404.3,33.8c7,0,12.7,5.7,12.7,12.7s-5.7,12.7-12.7,12.7s-12.7-5.7-12.7-12.7S397.3,33.8,404.3,33.8z"/>
	<path class="st0" d="M435,40.4l-9.4,6l-3.6-5.1l10.8-7h9.3v25.5H435V40.4z"/>
	<path class="st0" d="M450.7,44c0-7.7,2.8-10,11.2-10h8.1c7.4,0,9.4,2.6,9.4,5.8v2h-6.8c0-1.7-1.1-2.3-3.9-2.3h-6.9
		c-2.7,0-3.8,1.1-3.8,3.1v3c1.3-1.3,2.7-1.9,5.8-1.9h7.3c7.5,0,8.9,2.5,8.9,7.1v2.2c0,6.3-3.1,7.1-9.1,7.1h-11.1
		c-6.1,0-9.1-2.3-9.1-8.9V44z M469,54.5c3,0,3.8-0.7,3.8-2.8c0-2.1-0.8-2.8-4-2.8H462c-3.2,0-4,0.6-4,2.8c0,2.2,0.8,2.8,3.8,2.8H469
		z"/>
</g>
</svg>
