<svg
   preserveAspectRatio="none"
   viewBox="0 0 512 512"
   id="timeline--note-5">
  <g
     id="timeline--note-5"
     class="timeline--note timeline--note-5">
    <path
       id="timeline--note-5-background"
       class="background"
       style="color:#000000;clip-rule:nonzero;display:inline;overflow:visible;visibility:visible;opacity:1;isolation:auto;mix-blend-mode:normal;color-interpolation:sRGB;color-interpolation-filters:linearRGB;solid-color:#000000;solid-opacity:1;fill:none;fill-opacity:1;fill-rule:nonzero;stroke:none;stroke-width:1;stroke-linecap:butt;stroke-linejoin:miter;stroke-miterlimit:4;stroke-dasharray:none;stroke-dashoffset:0;stroke-opacity:1;marker:none;color-rendering:auto;image-rendering:auto;shape-rendering:auto;text-rendering:auto;enable-background:accumulate"
       d="M 512,255.99999 A 256,255.99999 0 0 1 255.99999,512 256,255.99999 0 0 1 0,255.99999 256,255.99999 0 0 1 255.99999,0 256,255.99999 0 0 1 512,255.99999 Z" />
    <path
       id="timeline--note-5-shape"
       class="shape"
       d="m 262,41.045586 a 5.9999959,5.9999959 0 0 1 -6,5.999996 5.9999959,5.9999959 0 0 1 -6,-5.999996 5.9999959,5.9999959 0 0 1 6,-5.999996 5.9999959,5.9999959 0 0 1 6,5.999996 z"
       style="color:#000000;clip-rule:nonzero;display:inline;overflow:visible;visibility:visible;opacity:1;isolation:auto;mix-blend-mode:normal;color-interpolation:sRGB;color-interpolation-filters:linearRGB;solid-color:#000000;solid-opacity:1;fill:#ffffff;fill-opacity:1;fill-rule:nonzero;stroke:none;stroke-width:1;stroke-linecap:butt;stroke-linejoin:miter;stroke-miterlimit:4;stroke-dasharray:none;stroke-dashoffset:0;stroke-opacity:1;marker:none;color-rendering:auto;image-rendering:auto;shape-rendering:auto;text-rendering:auto;enable-background:accumulate" />
  </g>
</svg>
