<svg
   id="timeline--track"
   viewBox="0 0 512 512"
   preserveAspectRatio="none">
  <g id="timeline--track">
    <path
       class="background"
       id="timeline--track-background"
       d="M 512,255.99999 A 256,255.99999 0 0 1 255.99999,512 256,255.99999 0 0 1 0,255.99999 256,255.99999 0 0 1 255.99999,0 256,255.99999 0 0 1 512,255.99999 Z"
       style="color:#000000;clip-rule:nonzero;display:inline;overflow:visible;visibility:visible;opacity:1;isolation:auto;mix-blend-mode:normal;color-interpolation:sRGB;color-interpolation-filters:linearRGB;solid-color:#000000;solid-opacity:1;fill:none;fill-opacity:1;fill-rule:nonzero;stroke:none;stroke-width:1;stroke-linecap:butt;stroke-linejoin:miter;stroke-miterlimit:4;stroke-dasharray:none;stroke-dashoffset:0;stroke-opacity:1;marker:none;color-rendering:auto;image-rendering:auto;shape-rendering:auto;text-rendering:auto;enable-background:accumulate"/>
    <path
       class="shape"
       id="timeline--track-shape"
       style="color:#000000;clip-rule:nonzero;display:inline;overflow:visible;visibility:visible;opacity:1;isolation:auto;mix-blend-mode:normal;color-interpolation:sRGB;color-interpolation-filters:linearRGB;solid-color:#000000;solid-opacity:1;fill:none;fill-opacity:1;fill-rule:nonzero;stroke:#ffffff;stroke-width:1;stroke-linecap:butt;stroke-linejoin:miter;stroke-miterlimit:4;stroke-dasharray:none;stroke-dashoffset:0;stroke-opacity:1;marker:none;color-rendering:auto;image-rendering:auto;shape-rendering:auto;text-rendering:auto;enable-background:accumulate"
       d="M 470.50001,255.99999 A 214.50001,214.49999 0 0 1 256,470.5 214.50001,214.49999 0 0 1 41.5,255.99999 214.50001,214.49999 0 0 1 256,41.5 214.50001,214.49999 0 0 1 470.50001,255.99999 Z"/>
  </g>
</svg>
