<?xml version="1.0" standalone="no"?>
<!DOCTYPE svg PUBLIC "-//W3C//DTD SVG 20010904//EN"
 "http://www.w3.org/TR/2001/REC-SVG-20010904/DTD/svg10.dtd">
<svg version="1.0" xmlns="http://www.w3.org/2000/svg"
 width="1024.000000pt" height="1024.000000pt" viewBox="0 0 1024.000000 1024.000000"
 preserveAspectRatio="xMidYMid meet">
<metadata>
Created by potrace 1.11, written by Peter Selinger 2001-2013
</metadata>
<g transform="translate(0.000000,1024.000000) scale(0.100000,-0.100000)"
fill="#000000" stroke="none">
<path d="M0 5120 l0 -5120 5120 0 5120 0 0 5120 0 5120 -5120 0 -5120 0 0
-5120z m7525 1040 c213 -67 373 -216 442 -412 37 -103 39 -271 5 -370 -38
-110 -134 -238 -214 -286 -16 -9 -28 -19 -28 -22 0 -3 27 -20 60 -39 227 -130
351 -383 320 -654 -20 -176 -79 -296 -210 -427 -97 -97 -207 -162 -346 -202
-106 -31 -352 -33 -454 -4 -267 77 -456 247 -537 485 -35 100 -44 292 -19 391
26 106 88 220 159 293 52 54 155 132 200 151 8 3 5 9 -8 17 -44 28 -130 117
-167 174 -57 88 -82 179 -82 300 0 115 17 185 70 286 87 165 254 287 459 335
87 20 260 12 350 -16z m-2251 6 c248 -48 457 -218 589 -481 166 -332 203 -814
92 -1220 -58 -214 -151 -383 -285 -515 -158 -157 -333 -230 -551 -230 -441 0
-769 342 -870 906 -28 158 -31 469 -5 619 53 313 156 537 326 705 88 88 158
135 257 175 131 53 302 68 447 41z m-2074 -1081 l0 -1085 300 0 300 0 0 -130
0 -130 -775 0 -775 0 0 130 0 130 325 0 325 0 0 911 c0 835 -1 911 -16 905 -9
-3 -113 -72 -231 -152 -118 -80 -221 -148 -228 -150 -12 -5 -155 182 -155 202
0 5 148 109 328 231 l327 223 138 0 137 0 0 -1085z"/>
<path d="M7243 5899 c-153 -30 -266 -139 -293 -284 -55 -292 272 -510 554
-369 208 104 257 370 101 543 -43 48 -137 97 -214 111 -61 11 -88 11 -148 -1z"/>
<path d="M7181 4894 c-130 -35 -249 -132 -308 -251 -32 -65 -37 -86 -41 -162
-5 -110 12 -176 71 -263 103 -154 303 -239 495 -210 162 25 310 131 374 269
27 57 33 83 36 159 7 144 -31 236 -136 336 -99 95 -213 139 -357 137 -44 0
-104 -7 -134 -15z"/>
<path d="M5040 5889 c-71 -12 -184 -67 -244 -120 -193 -170 -299 -550 -266
-959 6 -74 16 -159 23 -188 l12 -52 509 509 510 510 -20 36 c-28 54 -126 158
-182 194 -97 62 -229 89 -342 70z"/>
<path d="M5163 4811 l-501 -507 23 -38 c65 -108 172 -198 283 -238 77 -28 213
-28 298 -1 263 85 427 393 450 847 8 157 -21 448 -44 445 -4 0 -233 -229 -509
-508z"/>
</g>
</svg>
