<?xml version="1.0" standalone="no"?>
<!DOCTYPE svg PUBLIC "-//W3C//DTD SVG 20010904//EN"
 "http://www.w3.org/TR/2001/REC-SVG-20010904/DTD/svg10.dtd">
<svg version="1.0" xmlns="http://www.w3.org/2000/svg"
 width="1024.000000pt" height="1024.000000pt" viewBox="0 0 1024.000000 1024.000000"
 preserveAspectRatio="xMidYMid meet">
<metadata>
Created by potrace 1.11, written by Peter Selinger 2001-2013
</metadata>
<g transform="translate(0.000000,1024.000000) scale(0.100000,-0.100000)"
fill="#000000" stroke="none">
<path d="M0 5120 l0 -5120 5120 0 5120 0 0 5120 0 5120 -5120 0 -5120 0 0
-5120z m7452 1056 c153 -30 292 -106 388 -214 93 -103 160 -274 160 -407 0
-75 -26 -182 -61 -253 -32 -66 -131 -180 -180 -209 -16 -10 -29 -20 -29 -23 0
-3 29 -21 63 -40 95 -54 197 -163 246 -262 55 -112 72 -183 72 -303 0 -116
-10 -175 -45 -269 -83 -219 -275 -381 -537 -453 -90 -25 -328 -25 -418 0 -164
45 -267 103 -378 214 -66 66 -90 99 -127 175 -62 123 -79 210 -73 358 5 133
26 211 84 309 48 82 152 186 232 231 33 19 61 38 61 42 0 3 -15 16 -33 27 -46
28 -128 116 -159 171 -94 161 -97 384 -8 561 130 256 444 402 742 345z m-2127
-21 c351 -96 587 -415 672 -910 23 -136 23 -451 0 -590 -83 -491 -324 -816
-677 -911 -91 -25 -310 -25 -400 0 -138 37 -289 130 -379 233 -250 281 -361
741 -300 1233 66 523 348 889 740 959 75 14 272 5 344 -14z m-2125 -1070 l0
-1085 300 0 300 0 0 -130 0 -130 -775 0 -775 0 0 130 0 130 325 0 325 0 0 910
c0 532 -4 910 -9 910 -5 0 -110 -68 -232 -151 -123 -83 -229 -153 -235 -156
-11 -4 -154 187 -154 204 1 4 148 108 328 230 l327 222 138 1 137 0 0 -1085z"/>
<path d="M7240 5899 c-69 -13 -164 -65 -205 -110 -62 -69 -89 -141 -89 -234 0
-106 34 -185 111 -255 76 -70 144 -94 263 -94 130 0 193 25 277 109 53 53 64
71 83 134 50 165 -17 329 -167 408 -92 49 -175 61 -273 42z"/>
<path d="M7170 4891 c-159 -51 -278 -165 -325 -310 -28 -86 -18 -217 23 -304
58 -125 189 -228 333 -262 208 -49 435 39 544 210 163 256 26 578 -284 669
-74 22 -219 20 -291 -3z"/>
<path d="M5040 5890 c-302 -54 -488 -363 -516 -857 -7 -122 7 -314 29 -411
l12 -52 509 509 510 510 -20 38 c-27 54 -160 183 -221 216 -89 47 -202 65
-303 47z"/>
<path d="M5167 4815 l-507 -513 41 -60 c159 -240 450 -309 680 -162 224 145
357 522 335 955 -6 113 -28 280 -38 290 -2 2 -232 -227 -511 -510z"/>
</g>
</svg>
