<?xml version="1.0" standalone="no"?>
<!DOCTYPE svg PUBLIC "-//W3C//DTD SVG 1.1//EN" "http://www.w3.org/Graphics/SVG/1.1/DTD/svg11.dtd" >
<svg xmlns="http://www.w3.org/2000/svg" xmlns:xlink="http://www.w3.org/1999/xlink" version="1.1">
<metadata>
Created by FontForge 20161013 at Wed Jan  4 20:22:47 2012
 By ,,,
Copyright (c) 2009 by Margaret Calvert &#38; Henrik Kubel. All rights reserved.wf-rip
</metadata>
<defs>
<font id="NewRailAlphabet-Bold" horiz-adv-x="258" >
  <font-face 
    font-family="New Rail Alphabet Bold"
    font-weight="700"
    font-stretch="normal"
    units-per-em="1000"
    panose-1="0 0 5 0 0 0 0 0 0 0"
    ascent="750"
    descent="-250"
    x-height="548"
    cap-height="700"
    bbox="-69 -318 1221 1020"
    underline-thickness="50"
    underline-position="-200"
    unicode-range="U+0020-FB04"
  />
<missing-glyph horiz-adv-x="570" 
d="M55 0v700h460v-700h-460zM120 54h330v592h-330v-592z" />
    <glyph glyph-name="ff" unicode="ff" horiz-adv-x="684" 
d="M674 435h-117v-435h-135v435h-182v-435h-135v435h-90v113h90v57q0 135 148 135q15 0 39 -0.5t33 -0.5q11 -1 32 -1v-117q-13 0 -20 1q-5 0 -21.5 0.5t-25.5 0.5q-24 0 -37 -7t-13 -30v-38h182v64q0 135 148 135q14 0 39 -0.5t33 -0.5q11 -1 32 -1v-117q-13 0 -20 1
q-5 0 -21.5 0.5t-25.5 0.5q-24 0 -37 -7t-13 -30v-45h117v-113z" />
    <glyph glyph-name="fi" unicode="fi" horiz-adv-x="612" 
d="M357 435h-117v-435h-135v435h-90v113h90v64q0 135 148 135q15 0 39 -0.5t33 -0.5q11 -1 32 -1v-117q-13 0 -20 1q-5 0 -21.5 0.5t-25.5 0.5q-24 0 -37 -7t-13 -30v-45h117v-113zM557 611h-135v129h135v-129zM557 0h-135v548h135v-548z" />
    <glyph glyph-name="fl" unicode="fl" horiz-adv-x="612" 
d="M357 435h-117v-435h-135v435h-90v113h90v64q0 135 148 135q15 0 39 -0.5t33 -0.5q11 -1 32 -1v-117q-13 0 -20 1q-5 0 -21.5 0.5t-25.5 0.5q-24 0 -37 -7t-13 -30v-45h117v-113zM557 0h-135v740h135v-740z" />
    <glyph glyph-name="ffi" unicode="ffi" horiz-adv-x="929" 
d="M674 435h-117v-435h-135v435h-182v-435h-135v435h-90v113h90v57q0 135 148 135q15 0 39 -0.5t33 -0.5q11 -1 32 -1v-117q-13 0 -20 1q-5 0 -21.5 0.5t-25.5 0.5q-24 0 -37 -7t-13 -30v-38h182v64q0 135 148 135q14 0 39 -0.5t33 -0.5q11 -1 32 -1v-117q-13 0 -20 1
q-5 0 -21.5 0.5t-25.5 0.5q-24 0 -37 -7t-13 -30v-45h117v-113zM874 611h-135v129h135v-129zM874 0h-135v548h135v-548z" />
    <glyph glyph-name="ffl" unicode="ffl" horiz-adv-x="929" 
d="M674 435h-117v-435h-135v435h-182v-435h-135v435h-90v113h90v57q0 135 148 135q15 0 39 -0.5t33 -0.5q11 -1 32 -1v-117q-13 0 -20 1q-5 0 -21.5 0.5t-25.5 0.5q-24 0 -37 -7t-13 -30v-38h182v64q0 135 148 135q14 0 39 -0.5t33 -0.5q11 -1 32 -1v-117q-13 0 -20 1
q-5 0 -21.5 0.5t-25.5 0.5q-24 0 -37 -7t-13 -30v-45h117v-113zM874 0h-135v740h135v-740z" />
    <glyph glyph-name=".notdef" horiz-adv-x="570" 
d="M55 0v700h460v-700h-460zM120 54h330v592h-330v-592z" />
    <glyph glyph-name=".null" horiz-adv-x="0" 
 />
    <glyph glyph-name="nonmarkingreturn" horiz-adv-x="333" 
 />
    <glyph glyph-name="space" unicode=" " horiz-adv-x="210" 
 />
    <glyph glyph-name="exclam" unicode="!" 
d="M197 223h-136l-6 477h148zM203 0h-148v148h148v-148z" />
    <glyph glyph-name="quotedbl" unicode="&#x22;" horiz-adv-x="444" 
d="M55 386v314h138l-20 -314h-118zM251 386v314h138l-20 -314h-118z" />
    <glyph glyph-name="numbersign" unicode="#" horiz-adv-x="730" 
d="M420 0v195h-110v-195h-110v195h-145v100h145v110h-145v100h145v195h110v-195h110v195h110v-195h145v-100h-145v-110h145v-100h-145v-195h-110zM310 405v-110h110v110h-110z" />
    <glyph glyph-name="dollar" unicode="$" horiz-adv-x="629" 
d="M349 584v-173q38 -8 65.5 -16t59.5 -23.5t52.5 -35t34 -51t13.5 -71.5q0 -98 -64 -156t-161 -64v-100h-62v99q-101 2 -165.5 61t-66.5 165h133q0 -50 26.5 -78.5t72.5 -34.5v183q-119 22 -166 67q-55 51 -55 140q0 90 65 143t156 60v90h62v-91q92 -7 150 -58t64 -155
h-132q-8 86 -82 99zM287 424v163q-86 -10 -86 -82q0 -34 21.5 -52t64.5 -29zM349 277v-171q92 16 92 93q0 33 -23.5 50t-68.5 28z" />
    <glyph glyph-name="percent" unicode="%" horiz-adv-x="890" 
d="M226 319q-26 0 -51.5 7t-54.5 25t-47 59t-18 100q0 58 18 98.5t47 59t54.5 25.5t51.5 7q27 0 52.5 -7t54.5 -25.5t47 -59t18 -98.5q0 -48 -12.5 -84t-30.5 -56t-43 -32t-45 -15.5t-41 -3.5zM736 697l-471 -697h-107l470 697h108zM226 618q-32 0 -51 -27.5t-19 -80.5
q0 -109 70 -109q34 0 52 25t18 84q0 108 -70 108zM663 -7q-20 0 -40 3.5t-44.5 16t-43 32t-31 55.5t-12.5 84q0 58 18 98.5t47 59t54.5 25.5t51.5 7q27 0 52.5 -7t54.5 -25.5t47 -59t18 -98.5q0 -59 -18 -100t-47 -59t-54.5 -25t-52.5 -7zM663 292q-69 0 -69 -108
q0 -109 69 -109q70 0 70 109q0 108 -70 108z" />
    <glyph glyph-name="ampersand" unicode="&#x26;" horiz-adv-x="691" 
d="M651 0h-70q-25 0 -46.5 10.5t-30.5 19.5t-23 27q-41 -36 -87 -50t-110 -14q-112 0 -178 64t-66 157q0 132 130 196q-20 21 -34.5 57.5t-14.5 73.5q0 75 51 120.5t133 45.5q92 0 136 -50.5t44 -109.5q0 -111 -127 -173l122 -136q17 34 17 100h125q0 -112 -56 -195
q30 -36 56 -36h29v-107zM364 548q0 23 -16 39.5t-44 16.5t-43 -18.5t-15 -43.5q0 -44 40 -84q78 34 78 90zM401 140l-161 182q-64 -31 -64 -101q0 -57 35 -85.5t86 -28.5q65 0 104 33z" />
    <glyph glyph-name="quotesingle" unicode="'" horiz-adv-x="248" 
d="M55 386v314h138l-20 -314h-118z" />
    <glyph glyph-name="parenleft" unicode="(" horiz-adv-x="341" 
d="M331 -153h-135q-62 78 -109 200t-47 247t47.5 247t108.5 199h135q-57 -74 -104 -196.5t-47 -249.5q0 -128 47 -250.5t104 -196.5z" />
    <glyph glyph-name="parenright" unicode=")" horiz-adv-x="341" 
d="M10 740h135q61 -77 108.5 -199t47.5 -247t-47 -247t-109 -200h-135q57 74 104 196.5t47 250.5q0 127 -47 249.5t-104 196.5z" />
    <glyph glyph-name="asterisk" unicode="*" horiz-adv-x="642" 
d="M385 700l-13 -192l178 71l37 -123l-179 -45l134 -155l-98 -76l-123 176l-123 -176l-98 76l134 155l-179 45l37 123l178 -71l-13 192h128z" />
    <glyph glyph-name="plus" unicode="+" horiz-adv-x="683" 
d="M400 639v-232h228v-116h-228v-233h-118v233h-227v116h227v232h118z" />
    <glyph glyph-name="comma" unicode="," 
d="M203 148v-146q0 -17 -1 -28t-7 -29t-17.5 -29t-34 -19.5t-54.5 -8.5h-27v61q26 0 35.5 5t9.5 23v23h-52v148h148z" />
    <glyph glyph-name="hyphen" unicode="-" horiz-adv-x="390" 
d="M335 240h-280v116h280v-116z" />
    <glyph glyph-name="period" unicode="." 
d="M203 0h-148v148h148v-148z" />
    <glyph glyph-name="slash" unicode="/" horiz-adv-x="351" 
d="M326 700l-238 -791h-73l238 791h73z" />
    <glyph glyph-name="zero" unicode="0" horiz-adv-x="598" 
d="M299 -11q-47 0 -88.5 15t-82 51.5t-64.5 111t-24 179.5q0 85 16.5 150.5t42 104t61 62.5t69 32.5t70.5 8.5t70.5 -8.5t69 -32.5t61 -62.5t42 -104t16.5 -150.5q0 -105 -24 -179.5t-64.5 -111t-82 -51.5t-88.5 -15zM299 589q-119 0 -119 -243q0 -73 10 -123.5t28 -75
t37.5 -34t43.5 -9.5t43.5 9.5t37.5 34t28 75t10 123.5q0 243 -119 243z" />
    <glyph glyph-name="one" unicode="1" horiz-adv-x="347" 
d="M287 692v-692h-141v502h-106v119h56q36 0 53 14t19 57h119z" />
    <glyph glyph-name="two" unicode="2" horiz-adv-x="569" 
d="M175 453h-134q-2 115 62.5 183t193.5 68q107 0 173.5 -60t66.5 -154q0 -70 -30.5 -120.5t-91.5 -100.5l-189 -152h308v-117h-481v127l269 219q49 41 64.5 72t15.5 70q0 44 -30.5 71.5t-77.5 27.5q-125 0 -119 -134z" />
    <glyph glyph-name="three" unicode="3" horiz-adv-x="579" 
d="M170 465h-131q-4 116 61.5 177.5t185.5 61.5q109 0 174.5 -54.5t65.5 -140.5q0 -55 -28.5 -95t-81.5 -57q55 -10 89.5 -53.5t34.5 -99.5q0 -94 -64.5 -154.5t-192.5 -60.5t-193 64t-65 170h135q0 -121 125 -121q58 0 88 27t30 70q0 48 -33.5 71t-88.5 23h-53v114h44
q123 0 123 93q0 37 -28 64t-80 27q-58 0 -87.5 -30t-29.5 -96z" />
    <glyph glyph-name="four" unicode="4" horiz-adv-x="587" 
d="M567 144h-81v-144h-133v144h-333v116l283 432h183v-438h81v-110zM353 254v321l-212 -321h212z" />
    <glyph glyph-name="five" unicode="5" horiz-adv-x="590" 
d="M58 294l22 400h442v-119h-331l-9 -151q17 19 54.5 34.5t86.5 15.5q108 0 170 -63.5t62 -164.5q0 -116 -68 -186t-198 -70q-56 0 -100.5 15.5t-71 38t-44.5 52t-25 54.5t-8 48h139q4 -38 33 -67t81 -29q61 0 94 36.5t33 97.5q0 58 -31 92.5t-89 34.5q-84 0 -116 -73z" />
    <glyph glyph-name="six" unicode="6" horiz-adv-x="597" 
d="M550 515h-133q-5 31 -28.5 54t-74.5 23q-70 0 -104.5 -56t-38.5 -144q58 71 167 71q90 0 154.5 -58.5t64.5 -169.5q0 -109 -69.5 -177.5t-182.5 -68.5q-121 0 -193 82.5t-72 249.5q0 55 7 105.5t26.5 102.5t50 89.5t81.5 61.5t117 24q54 0 96.5 -15.5t66 -37t38.5 -50
t20 -48t7 -38.5zM192 228q0 -57 30.5 -90.5t84.5 -33.5q53 0 84 34t31 90t-30.5 90t-83.5 34q-54 0 -85 -33.5t-31 -90.5z" />
    <glyph glyph-name="seven" unicode="7" horiz-adv-x="531" 
d="M370 573h-340v118h486v-110l-268 -581h-151z" />
    <glyph glyph-name="eight" unicode="8" horiz-adv-x="594" 
d="M297 -11q-117 0 -189.5 55.5t-72.5 155.5q0 63 33 106t79 58q-40 15 -68 54.5t-28 90.5q0 95 69.5 145t176.5 50q106 0 175.5 -50t69.5 -145q0 -52 -27 -90.5t-68 -54.5q46 -15 79 -58t33 -106q0 -100 -72.5 -155.5t-189.5 -55.5zM297 597q-53 0 -85.5 -23t-32.5 -67
q0 -41 30 -67.5t88 -26.5t88 26.5t30 67.5q0 44 -32.5 67t-85.5 23zM297 307q-58 0 -91 -27t-33 -73t33.5 -75t90.5 -29t90.5 29t33.5 75t-33 73t-91 27z" />
    <glyph glyph-name="nine" unicode="9" horiz-adv-x="597" 
d="M47 178h133q3 -30 28 -53.5t75 -23.5q71 0 105.5 56t34.5 141q-23 -28 -66 -48t-98 -20q-90 0 -154.5 58.5t-64.5 169.5q0 109 69.5 177.5t182.5 68.5q118 0 191.5 -86.5t73.5 -241.5q0 -58 -7 -108.5t-26 -103.5t-49.5 -90t-81.5 -61t-118 -24q-54 0 -96.5 15.5
t-66.5 37t-39.5 49t-20.5 49t-5 38.5zM405 465q0 57 -30.5 90.5t-84.5 33.5q-53 0 -84 -34t-31 -90t30.5 -90t83.5 -34q54 0 85 33.5t31 90.5z" />
    <glyph glyph-name="colon" unicode=":" 
d="M203 400h-148v148h148v-148zM203 0h-148v148h148v-148z" />
    <glyph glyph-name="semicolon" unicode=";" 
d="M203 400h-148v148h148v-148zM203 148v-146q0 -17 -1 -28t-7 -29t-17.5 -29t-34 -19.5t-54.5 -8.5h-27v61q26 0 35.5 5t9.5 23v23h-52v148h148z" />
    <glyph glyph-name="less" unicode="&#x3c;" horiz-adv-x="1208" 
d="M435 -66l-350 350l350 349h321l-234 -233h601v-232h-601l234 -234h-321z" />
    <glyph glyph-name="equal" unicode="=" horiz-adv-x="527" 
d="M472 397h-417v116h417v-116zM472 185h-417v116h417v-116z" />
    <glyph glyph-name="greater" unicode="&#x3e;" horiz-adv-x="1208" 
d="M1123 284l-350 -350h-321l234 234h-601v232h601l-234 233h321z" />
    <glyph glyph-name="question" unicode="?" horiz-adv-x="484" 
d="M158 487h-133q0 102 56 161t169 59q97 0 153 -53.5t56 -136.5q0 -41 -16 -77.5t-38.5 -63t-44.5 -51t-38 -50.5t-16 -52h-134q0 40 15.5 76t37.5 61.5t44 49t37.5 51t15.5 55.5q0 34 -20 57t-56 23q-88 0 -88 -109zM312 0h-148v148h148v-148z" />
    <glyph glyph-name="at" unicode="@" horiz-adv-x="1028" 
d="M837 -1l44 -75q-140 -117 -369 -117q-218 0 -337.5 125t-119.5 327q0 94 33 179t94 151.5t155.5 106t209.5 39.5q85 0 161 -26t135.5 -74.5t94.5 -125.5t35 -173q0 -137 -70.5 -230.5t-175.5 -93.5q-38 0 -70.5 18t-45.5 57q-61 -76 -156 -76q-85 0 -134 59.5t-49 155.5
q0 69 22.5 132.5t78 110.5t134.5 47q85 0 130 -62l9 53h100q-51 -289 -51 -361q0 -46 44 -46q56 0 99 67.5t43 164.5q0 154 -95 235t-240 81q-93 0 -169 -32.5t-123.5 -87.5t-73 -123.5t-25.5 -143.5q0 -91 30 -163t81.5 -115.5t116 -66t138.5 -22.5q198 0 316 105zM375 233
q0 -135 96 -135q57 0 96 55t39 165q0 56 -27 85t-73 29t-77.5 -37t-42.5 -79.5t-11 -82.5z" />
    <glyph glyph-name="A" unicode="A" horiz-adv-x="646" 
d="M154 0h-144l210 700h200l216 -700h-151l-40 140h-253zM411 259l-94 335l-92 -335h186z" />
    <glyph glyph-name="B" unicode="B" horiz-adv-x="638" 
d="M60 700h317q86 0 148.5 -46t62.5 -139q0 -33 -9.5 -59t-27.5 -43t-30 -25.5t-30 -17.5q18 -6 36.5 -17t39 -30.5t33.5 -52t13 -72.5q0 -83 -64 -140.5t-178 -57.5h-311v700zM198 415h164q42 0 66.5 22t24.5 63q0 40 -26 62t-67 22h-162v-169zM198 116h164q53 0 82 24.5
t29 69.5q0 43 -28.5 68t-78.5 25h-168v-187z" />
    <glyph glyph-name="C" unicode="C" horiz-adv-x="666" 
d="M633 475h-145q-3 45 -37 79.5t-101 34.5q-82 0 -125.5 -61.5t-43.5 -181.5q0 -113 45.5 -174t125.5 -61q73 0 106.5 40t33.5 79h144q-3 -44 -20.5 -85t-49.5 -77t-86 -57.5t-124 -21.5q-74 0 -132 24t-92.5 61t-57 86.5t-31 95t-8.5 92.5q0 67 17.5 128.5t53.5 115.5
t101 86.5t151 32.5q74 0 130.5 -24t86.5 -61.5t44 -76t14 -74.5z" />
    <glyph glyph-name="D" unicode="D" horiz-adv-x="690" 
d="M60 700h292q63 0 116.5 -19.5t96 -59t66.5 -106.5t24 -155q0 -158 -80 -255q-40 -49 -104.5 -77t-143.5 -28h-267v700zM198 118h121q36 0 67 10.5t61 35.5t47.5 74t17.5 117q0 227 -193 227h-121v-464z" />
    <glyph glyph-name="E" unicode="E" horiz-adv-x="603" 
d="M553 0h-493v700h483v-123h-345v-162h321v-125h-321v-167h355v-123z" />
    <glyph glyph-name="F" unicode="F" horiz-adv-x="586" 
d="M546 577h-348v-185h324v-125h-324v-267h-138v700h486v-123z" />
    <glyph glyph-name="G" unicode="G" horiz-adv-x="708" 
d="M638 475h-144q-3 45 -36 79.5t-100 34.5q-83 0 -130 -63t-47 -182q0 -45 8.5 -84t27.5 -74t55 -55t86 -20q48 0 82.5 15t51.5 39.5t25 47t9 46.5h-167v120h299v-379h-125v76q-29 -42 -78.5 -64.5t-107.5 -22.5q-78 0 -139 28.5t-98 78.5t-56 112.5t-19 135.5
q0 52 10.5 102.5t35.5 99t61.5 84.5t94 58.5t127.5 22.5q74 0 130.5 -24t86 -61.5t43.5 -76t14 -74.5z" />
    <glyph glyph-name="H" unicode="H" horiz-adv-x="691" 
d="M631 0h-137v290h-296v-290h-138v700h138v-285h296v285h137v-700z" />
    <glyph glyph-name="I" unicode="I" 
d="M198 0h-138v700h138v-700z" />
    <glyph glyph-name="J" unicode="J" horiz-adv-x="358" 
d="M303 700v-529q0 -97 -41.5 -135t-125.5 -38q-85 0 -111 7v117l25 -3q30 -2 57 -2q34 0 46 10.5t12 42.5v530h138z" />
    <glyph glyph-name="K" unicode="K" horiz-adv-x="658" 
d="M482 0l-197 295l-87 -101v-194h-138v700h138v-321l270 321h165l-258 -299l273 -401h-166z" />
    <glyph glyph-name="L" unicode="L" horiz-adv-x="581" 
d="M541 0h-481v700h138v-577h343v-123z" />
    <glyph glyph-name="M" unicode="M" horiz-adv-x="836" 
d="M418 191l141 509h217v-700h-138v521l-148 -521h-144l-148 521v-521h-138v700h217z" />
    <glyph glyph-name="N" unicode="N" horiz-adv-x="691" 
d="M631 0h-168l-265 492v-492h-138v700h175l259 -488v488h137v-700z" />
    <glyph glyph-name="O" unicode="O" horiz-adv-x="704" 
d="M669 349q0 -167 -89.5 -263.5t-227.5 -96.5t-227.5 96.5t-89.5 263.5t89.5 264.5t227.5 97.5q137 0 227 -97.5t90 -264.5zM523 349q0 116 -45 178t-126 62q-82 0 -126.5 -62t-44.5 -178q0 -111 45 -174.5t126 -63.5q80 0 125.5 63.5t45.5 174.5z" />
    <glyph glyph-name="P" unicode="P" horiz-adv-x="620" 
d="M60 700h310q95 0 160 -61.5t65 -163.5q0 -96 -57 -159q-70 -76 -191 -76h-149v-240h-138v700zM198 359h129q65 0 94.5 32t29.5 80q0 49 -29 79.5t-92 30.5h-132v-222z" />
    <glyph glyph-name="Q" unicode="Q" horiz-adv-x="704" 
d="M632 -71l-159 82q-57 -21 -125 -21q-137 0 -225 95.5t-88 262.5t89.5 265t226.5 98q138 0 228 -98t90 -265q0 -156 -81 -253l103 -52zM523 348q0 116 -45 178.5t-127 62.5q-81 0 -125.5 -62.5t-44.5 -178.5q0 -111 45 -174t125 -63q81 0 126.5 63t45.5 174z" />
    <glyph glyph-name="R" unicode="R" horiz-adv-x="644" 
d="M60 700h316q106 0 164 -55t58 -136q0 -122 -110 -170q93 -25 97 -127q5 -129 8 -155q6 -41 16 -57h-147q-7 25 -9 56.5t-2 73t-2 66.5q-3 39 -27 60.5t-66 21.5h-158v-278h-138v700zM198 392h133q55 0 92.5 23t37.5 73q0 95 -110 95h-153v-191z" />
    <glyph glyph-name="S" unicode="S" horiz-adv-x="613" 
d="M576 492h-142q-3 22 -6.5 34t-15.5 31.5t-39 29.5t-68 10q-59 0 -89.5 -22t-30.5 -61q0 -37 31 -58t72 -27.5t99.5 -19.5t96.5 -32q104 -49 104 -160q0 -113 -76 -170.5t-210 -57.5q-121 0 -195.5 59t-76.5 173h143q0 -115 135 -115q141 0 141 95q0 32 -25 51t-66 27
t-86 15t-93 23t-78 43q-59 52 -59 144q0 98 75 152.5t183 54.5q117 0 192.5 -51t83.5 -168z" />
    <glyph glyph-name="T" unicode="T" horiz-adv-x="600" 
d="M575 577h-206v-577h-138v577h-206v123h550v-123z" />
    <glyph glyph-name="U" unicode="U" horiz-adv-x="663" 
d="M188 700v-450q0 -70 40 -107.5t108 -37.5t106.5 38.5t38.5 109.5v447h132v-442q0 -137 -76.5 -203t-204.5 -66q-127 0 -204.5 68t-77.5 205v438h138z" />
    <glyph glyph-name="V" unicode="V" horiz-adv-x="646" 
d="M161 700l165 -594l166 594h144l-213 -700h-200l-213 700h151z" />
    <glyph glyph-name="W" unicode="W" horiz-adv-x="911" 
d="M901 700l-137 -700h-201l-102 516l-103 -516h-205l-143 700h150l105 -568l113 568h166l116 -568l98 568h143z" />
    <glyph glyph-name="X" unicode="X" horiz-adv-x="616" 
d="M226 354l-212 346h160l141 -243l137 243h152l-212 -348l214 -352h-158l-144 249l-140 -249h-154z" />
    <glyph glyph-name="Y" unicode="Y" horiz-adv-x="621" 
d="M10 700h158l144 -305l146 305h153l-232 -448v-252h-137v252z" />
    <glyph glyph-name="Z" unicode="Z" horiz-adv-x="563" 
d="M543 0h-523v108l355 469h-347v123h510v-112l-349 -465h354v-123z" />
    <glyph glyph-name="bracketleft" unicode="[" horiz-adv-x="353" 
d="M313 -153h-273v893h273v-107h-150v-679h150v-107z" />
    <glyph glyph-name="backslash" unicode="\" horiz-adv-x="357" 
d="M269 -91l-244 791h73l244 -791h-73z" />
    <glyph glyph-name="bracketright" unicode="]" horiz-adv-x="368" 
d="M313 -153h-273v107h150v679h-150v107h273v-893z" />
    <glyph glyph-name="asciicircum" unicode="^" horiz-adv-x="582" 
d="M228 700h124l175 -485h-129l-108 315l-108 -315h-127z" />
    <glyph glyph-name="underscore" unicode="_" horiz-adv-x="510" 
d="M455 -169h-400v116h400v-116z" />
    <glyph glyph-name="grave" unicode="`" horiz-adv-x="380" 
d="M196 598l-141 166h157l113 -166h-129z" />
    <glyph glyph-name="a" unicode="a" horiz-adv-x="576" 
d="M197 326l189 29v19q0 35 -21 53t-78 18q-104 0 -104 -75h-130q0 185 238 185q230 0 230 -176v-302q0 -33 3 -54l4 -23h-138v55q-62 -62 -170 -62q-83 0 -136.5 46t-53.5 126q0 133 167 161zM386 223v29l-53 -8q-12 -2 -42.5 -7t-42.5 -7q-41 -7 -58 -21q-21 -17 -21 -45
q0 -9 2.5 -17.5t9.5 -21t25 -20t44 -7.5q67 0 104 37q32 32 32 88z" />
    <glyph glyph-name="b" unicode="b" horiz-adv-x="610" 
d="M190 0h-135v740h135v-251q24 30 64.5 48t84.5 18q115 0 178 -73t63 -208q0 -133 -66.5 -207t-177.5 -74q-46 0 -85.5 16.5t-60.5 45.5v-55zM316 443q-61 0 -95 -36t-34 -133t34 -133t95 -36q57 0 91.5 41.5t34.5 127.5t-34.5 127.5t-91.5 41.5z" />
    <glyph glyph-name="c" unicode="c" horiz-adv-x="563" 
d="M398 198h138q-9 -93 -71 -149t-172 -56q-118 0 -190.5 72t-72.5 205q0 139 72 212t189 73q104 0 169 -54t76 -155h-138q-5 45 -32.5 71t-72.5 26q-57 0 -90.5 -41.5t-33.5 -127.5t32.5 -127.5t88.5 -41.5q45 0 74 24.5t34 68.5z" />
    <glyph glyph-name="d" unicode="d" horiz-adv-x="610" 
d="M555 0h-135v55q-21 -29 -62 -45.5t-87 -16.5q-110 0 -175.5 74t-65.5 207q0 130 66 205.5t179 75.5q44 0 82.5 -18t62.5 -48v251h135v-740zM294 443q-57 0 -91.5 -41.5t-34.5 -127.5t34.5 -127.5t91.5 -41.5q61 0 95 36t34 133t-34 133t-95 36z" />
    <glyph glyph-name="e" unicode="e" horiz-adv-x="578" 
d="M403 183l137 -3q-12 -85 -75.5 -136t-168.5 -51q-119 0 -192.5 71.5t-73.5 206.5t74.5 209.5t191.5 74.5q120 0 186 -78.5t66 -204.5v-29h-378q0 -56 28.5 -97t95.5 -41q42 0 71.5 20.5t37.5 57.5zM175 340h230q-4 54 -34 79t-76 25q-49 0 -82 -28t-38 -76z" />
    <glyph glyph-name="f" unicode="f" horiz-adv-x="364" 
d="M354 435h-114v-435h-135v435h-90v113h90v64q0 135 148 135q15 0 39 -0.5t32 -0.5q11 -1 30 -1v-116h-19q-5 0 -20.5 0.5t-24.5 0.5q-24 0 -37 -7t-13 -30v-45h114v-113z" />
    <glyph glyph-name="g" unicode="g" horiz-adv-x="599" 
d="M412 16v70q-47 -63 -158 -63q-25 0 -51.5 6t-58.5 24t-56.5 46t-41 76t-16.5 109q0 132 70 201.5t162 69.5q104 0 151 -65v58h134v-539q0 -41 -13 -76.5t-41 -66t-79 -48t-121 -17.5q-74 0 -126 17.5t-77.5 47t-36.5 58.5t-12 62h138q0 -10 3.5 -20.5t13.5 -24.5t34 -23
t59 -9q63 0 93 24.5t30 82.5zM166 284q0 -83 36 -121t88 -38t87.5 38t35.5 121t-35.5 121t-87.5 38t-88 -38t-36 -121z" />
    <glyph glyph-name="h" unicode="h" horiz-adv-x="590" 
d="M538 0h-135v340q0 48 -25 74t-70 26q-53 0 -85.5 -33.5t-32.5 -97.5v-309h-135v740h135v-250q61 65 154 65q92 0 143 -48t51 -132v-375z" />
    <glyph glyph-name="i" unicode="i" horiz-adv-x="245" 
d="M190 611h-135v129h135v-129zM190 0h-135v548h135v-548z" />
    <glyph glyph-name="j" unicode="j" horiz-adv-x="245" 
d="M190 611h-135v129h135v-129zM-32 -189v115q9 -1 39 -1q26 0 37 7.5t11 30.5v585h135v-599q0 -77 -36 -109t-128 -32q-27 0 -38 1z" />
    <glyph glyph-name="k" unicode="k" horiz-adv-x="588" 
d="M399 548h169l-203 -209l213 -339h-159l-150 246l-79 -85v-161h-135v740h135v-414z" />
    <glyph glyph-name="l" unicode="l" horiz-adv-x="245" 
d="M190 0h-135v740h135v-740z" />
    <glyph glyph-name="m" unicode="m" horiz-adv-x="878" 
d="M508 326v-326h-135v341q0 44 -20.5 71.5t-64.5 27.5q-42 0 -70 -29t-28 -85v-326h-135v548h132v-55q47 62 138 62q103 0 147 -76q59 76 168 76q86 0 136 -49t50 -128v-378h-135v341q0 43 -21.5 71t-66.5 28q-42 0 -68.5 -29t-26.5 -85z" />
    <glyph glyph-name="n" unicode="n" horiz-adv-x="590" 
d="M538 0h-135v340q0 48 -25 74t-70 26q-53 0 -85.5 -33.5t-32.5 -97.5v-309h-135v548h133v-58q54 65 156 65q92 0 143 -48t51 -132v-375z" />
    <glyph glyph-name="o" unicode="o" horiz-adv-x="586" 
d="M293 -7q-119 0 -191 72.5t-72 208.5t72 208.5t191 72.5t191 -72.5t72 -208.5t-72 -208.5t-191 -72.5zM293 443q-57 0 -91 -41.5t-34 -127.5t34 -127.5t91 -41.5t91 41.5t34 127.5t-34 127.5t-91 41.5z" />
    <glyph glyph-name="p" unicode="p" horiz-adv-x="610" 
d="M190 -192h-135v740h135v-59q24 30 64.5 48t84.5 18q115 0 178 -73t63 -208q0 -133 -66.5 -207t-177.5 -74q-46 0 -85.5 16.5t-60.5 45.5v-247zM316 443q-61 0 -95 -36t-34 -133t34 -133t95 -36q57 0 91.5 41.5t34.5 127.5t-34.5 127.5t-91.5 41.5z" />
    <glyph glyph-name="q" unicode="q" horiz-adv-x="610" 
d="M420 548h135v-740h-135v247q-21 -29 -62 -45.5t-87 -16.5q-110 0 -175.5 74t-65.5 207q0 130 66 205.5t179 75.5q44 0 82.5 -18t62.5 -48v59zM294 443q-57 0 -91.5 -41.5t-34.5 -127.5t34.5 -127.5t91.5 -41.5q61 0 95 36t34 133t-34 133t-95 36z" />
    <glyph glyph-name="r" unicode="r" horiz-adv-x="382" 
d="M367 412h-38q-139 0 -139 -120v-292h-135v548h130v-81q40 81 142 81h40v-136z" />
    <glyph glyph-name="s" unicode="s" horiz-adv-x="539" 
d="M494 387h-133q0 64 -96 64q-35 0 -62 -12.5t-27 -42.5q0 -33 38 -44q12 -4 95 -16.5t123 -33.5q77 -41 77 -128q0 -181 -245 -181q-59 0 -103 12.5t-68.5 31t-39 44.5t-19 47.5t-4.5 45.5h133q0 -74 108 -74q101 0 101 61q0 15 -8 25.5t-27.5 17t-34.5 9t-45 6.5
q-60 7 -96 18q-120 35 -120 150q0 79 65 123.5t163 44.5q58 0 102 -14t66.5 -33t36 -45t17 -43t3.5 -33z" />
    <glyph glyph-name="t" unicode="t" horiz-adv-x="371" 
d="M339 116v-114q-4 0 -13.5 -1.5t-15.5 -2.5q-19 -3 -72 -3q-79 0 -112 29.5t-33 98.5v312h-83v113h83v152h135v-152h123v-113h-123v-273q0 -30 10.5 -39t44.5 -9q27 0 38 1q13 0 18 1z" />
    <glyph glyph-name="u" unicode="u" horiz-adv-x="582" 
d="M527 0h-132v52q-59 -59 -157 -59q-88 0 -137 53.5t-49 133.5v368h135v-342q0 -103 94 -103q55 0 83 34t28 88v323h135v-548z" />
    <glyph glyph-name="v" unicode="v" horiz-adv-x="555" 
d="M550 548l-182 -548h-183l-180 548h148l126 -419l127 419h144z" />
    <glyph glyph-name="w" unicode="w" horiz-adv-x="840" 
d="M485 548l104 -394l105 394h141l-156 -548h-166l-93 369l-93 -369h-166l-156 548h141l105 -394l104 394h130z" />
    <glyph glyph-name="x" unicode="x" horiz-adv-x="551" 
d="M168 548l113 -171l107 171h152l-183 -273l189 -275h-156l-119 178l-114 -178h-152l192 282l-181 266h152z" />
    <glyph glyph-name="y" unicode="y" horiz-adv-x="528" 
d="M49 -192v118h81q23 0 35 8t18 30l10 36l-188 548h149l114 -381l114 381h141l-206 -611q-24 -69 -56.5 -99t-98.5 -30h-113z" />
    <glyph glyph-name="z" unicode="z" horiz-adv-x="515" 
d="M485 0h-455v104l286 331h-279v113h443v-104l-286 -331h291v-113z" />
    <glyph glyph-name="braceleft" unicode="{" horiz-adv-x="388" 
d="M263 578v-138q0 -66 -17.5 -99t-62.5 -50q45 -17 62.5 -50t17.5 -99v-133q0 -17 1.5 -27t10 -19t24.5 -9h49v-107h-72q-69 0 -108 32.5t-39 94.5v185q0 47 -14.5 64.5t-58.5 17.5h-16v100h16q44 0 58.5 17.5t14.5 64.5v190q0 62 39 94.5t108 32.5h72v-107h-49
q-23 0 -29.5 -14.5t-6.5 -40.5z" />
    <glyph glyph-name="bar" unicode="|" horiz-adv-x="293" 
d="M198 -111h-103v919h103v-919z" />
    <glyph glyph-name="braceright" unicode="}" horiz-adv-x="388" 
d="M125 9v133q0 66 17 98.5t63 50.5q-46 18 -63 50.5t-17 98.5v138q0 17 -1.5 27t-10 19t-24.5 9h-49v107h72q69 0 108 -32.5t39 -94.5v-190q0 -47 14.5 -64.5t58.5 -17.5h16v-100h-16q-44 0 -58.5 -17.5t-14.5 -64.5v-185q0 -62 -39 -94.5t-108 -32.5h-72v107h49
q23 0 29.5 14.5t6.5 40.5z" />
    <glyph glyph-name="asciitilde" unicode="~" horiz-adv-x="514" 
d="M159 244h-104q0 84 32 122q32 39 87 39q31 0 88.5 -22t66.5 -22q25 0 25 42l105 -5q0 -150 -114 -150q-30 0 -90.5 21.5t-69.5 21.5q-26 0 -26 -47z" />
    <glyph glyph-name="uni00A0" unicode="&#xa0;" horiz-adv-x="0" 
 />
    <glyph glyph-name="exclamdown" unicode="&#xa1;" 
d="M55 548h148v-148h-148v148zM61 325h136l6 -477h-148z" />
    <glyph glyph-name="cent" unicode="&#xa2;" horiz-adv-x="563" 
d="M252 -145v141q-102 12 -162 82.5t-60 191.5q0 126 60 197.5t162 84.5v148h69v-146q92 -8 148.5 -61.5t66.5 -146.5h-138q-11 77 -77 94v-332q67 17 77 90h138q-9 -88 -63 -142t-152 -62v-139h-69zM252 110v327q-83 -28 -83 -163q0 -138 83 -164z" />
    <glyph glyph-name="sterling" unicode="&#xa3;" horiz-adv-x="620" 
d="M565 467h-134q-2 58 -26 89t-77 31q-97 0 -97 -101q0 -39 4 -64q1 -11 5 -31h145v-109h-131q0 -60 -19 -119q-9 -25 -19 -44h332v-119h-482v105q15 17 27 39q27 52 27 102q0 1 -0.5 8.5t-0.5 12.5q-1 5 -1 15h-83v109h71q-3 13 -7 34q-6 40 -6 66q0 88 59.5 150t174.5 62
q120 0 179 -65t59 -171z" />
    <glyph glyph-name="currency" unicode="&#xa4;" horiz-adv-x="660" 
d="M123 81l-68 68l61 61q-46 65 -46 145q0 81 46 146l-61 62l68 68l63 -63q65 43 144 43q76 0 144 -43l63 63l68 -68l-62 -62q48 -63 48 -146q0 -81 -47 -146l61 -60l-68 -68l-62 62q-68 -43 -145 -43q-80 0 -145 43zM190 355q0 -62 41 -104t99 -42t99.5 42t41.5 104
t-41.5 104.5t-99.5 42.5t-99 -42.5t-41 -104.5z" />
    <glyph glyph-name="yen" unicode="&#xa5;" horiz-adv-x="642" 
d="M65 290h165l-29 53h-136v75h96l-146 273h155l152 -307l157 307h148l-147 -273h97v-75h-138l-28 -53h166v-75h-188v-215h-137v215h-187v75z" />
    <glyph glyph-name="brokenbar" unicode="&#xa6;" horiz-adv-x="293" 
d="M198 411h-103v397h103v-397zM95 304h103v-415h-103v415z" />
    <glyph glyph-name="section" unicode="&#xa7;" horiz-adv-x="685" 
d="M77 40h137q0 -74 111 -74q109 0 109 65q0 35 -44 52.5t-122 32.5t-119 35q-94 43 -94 137q0 90 95 132q-47 44 -47 110q0 73 60 125.5t191 52.5q65 0 113.5 -16.5t72 -38t37.5 -49.5t16.5 -44t2.5 -29h-137q0 40 -31 59t-80 19q-107 0 -107 -66q0 -33 48 -52t130 -39
t125 -42q86 -46 86 -129q0 -38 -23.5 -75.5t-79.5 -55.5q49 -36 49 -100q0 -33 -12 -63.5t-39 -60t-80 -47t-126 -17.5q-65 0 -113.5 16.5t-72 38t-37.5 50t-16.5 44.5t-2.5 29zM239 367q-30 -5 -44.5 -21t-14.5 -31q0 -40 84 -65q17 -5 77.5 -19.5t92.5 -26.5q30 5 46 21
t16 31q0 22 -25.5 37.5t-58.5 24t-85.5 22t-87.5 27.5z" />
    <glyph glyph-name="dieresis" unicode="&#xa8;" horiz-adv-x="449" 
d="M190 601h-135v129h135v-129zM394 601h-135v129h135v-129z" />
    <glyph glyph-name="copyright" unicode="&#xa9;" horiz-adv-x="831" 
d="M418 716q154 0 255 -105.5t101 -259.5t-101 -259.5t-255 -105.5q-153 0 -254.5 105.5t-101.5 259.5t101.5 259.5t254.5 105.5zM418 38q130 0 213 90t83 223q0 132 -83 222.5t-213 90.5q-131 0 -214 -90.5t-83 -222.5q0 -133 83 -223t214 -90zM522 283h64q0 -18 -8.5 -40
t-26.5 -46.5t-52.5 -40.5t-79.5 -16q-90 0 -137.5 55t-47.5 154q0 98 50.5 156.5t136.5 58.5q45 0 79.5 -16t51.5 -40.5t25.5 -46.5t8.5 -40h-64q0 32 -25 61t-77 29q-61 0 -90 -45t-29 -117q0 -71 28.5 -113.5t90.5 -42.5q52 0 77 29t25 61z" />
    <glyph glyph-name="ordfeminine" unicode="&#xaa;" horiz-adv-x="409" 
d="M142 558l120 19v9q0 22 -13 32.5t-49 10.5q-64 0 -64 -49h-91q0 52 36 89.5t127 37.5q147 0 147 -118v-196q0 -21 3 -36l3 -17h-97v32q-39 -37 -110 -37q-55 0 -89.5 30.5t-34.5 84.5q0 92 112 108zM263 485v20l-33 -6l-54 -9q-49 -8 -49 -42q0 -38 51 -38q41 0 64 23
q21 21 21 52z" />
    <glyph glyph-name="guillemotleft" unicode="&#xab;" horiz-adv-x="647" 
d="M207 0l-152 273l152 275h145l-150 -273l150 -275h-145zM447 0l-152 273l152 275h145l-150 -273l150 -275h-145z" />
    <glyph glyph-name="logicalnot" unicode="&#xac;" horiz-adv-x="493" 
d="M317 174v117h-262v116h383v-233h-121z" />
    <glyph glyph-name="uni00AD" unicode="&#xad;" horiz-adv-x="220" 
 />
    <glyph glyph-name="registered" unicode="&#xae;" horiz-adv-x="687" 
d="M343 130q-119 0 -203.5 83.5t-84.5 205.5q0 124 84.5 207.5t203.5 83.5t204 -83.5t85 -207.5q0 -122 -85 -205.5t-204 -83.5zM343 180q100 0 166 67.5t66 171.5q0 105 -66 173t-166 68t-165.5 -68t-65.5 -173t65.5 -172t165.5 -67zM468 358v-56q0 -27 7 -37h-64l-2 12
q-1 9 -1 42v38q0 32 -32 32h-89v-124h-60v317h142q49 0 76.5 -24t27.5 -61q0 -55 -48 -77q43 -12 43 -62zM287 439h76q50 0 50 47q0 46 -50 46h-76v-93z" />
    <glyph glyph-name="macron" unicode="&#xaf;" horiz-adv-x="441" 
d="M386 600h-331v100h331v-100z" />
    <glyph glyph-name="degree" unicode="&#xb0;" horiz-adv-x="505" 
d="M55 510q0 81 57 135.5t141 54.5t140.5 -54.5t56.5 -135.5t-56.5 -135.5t-140.5 -54.5t-141 54.5t-57 135.5zM168 510q0 -42 23 -66t62 -24t62 24t23 66q0 40 -23.5 64.5t-61.5 24.5q-39 0 -62 -24.5t-23 -64.5z" />
    <glyph glyph-name="plusminus" unicode="&#xb1;" horiz-adv-x="683" 
d="M628 0h-573v116h227v236h-227v116h227v232h118v-232h228v-116h-228v-236h228v-116z" />
    <glyph glyph-name="twosuperior" unicode="&#xb2;" horiz-adv-x="431" 
d="M144 529h-93q0 76 43 123.5t127 47.5q79 0 119.5 -41.5t40.5 -93.5q0 -45 -18 -77t-54 -65l-117 -103h187v-81h-311v79l172 153q47 41 47 86q0 28 -18 45.5t-48 17.5q-77 0 -77 -91z" />
    <glyph glyph-name="threesuperior" unicode="&#xb3;" horiz-adv-x="450" 
d="M156 536h-89q0 78 42.5 121t126.5 43q71 0 112.5 -34t41.5 -91q0 -38 -18.5 -65.5t-54.5 -36.5q35 -6 57.5 -33.5t22.5 -61.5q0 -69 -47 -106t-126 -37q-82 0 -125.5 43.5t-43.5 112.5h96q0 -38 20 -58t54 -20q39 0 57 18t18 45q0 54 -76 54h-37v79h34q76 0 76 60
q0 22 -16 36.5t-49 14.5q-76 0 -76 -84z" />
    <glyph glyph-name="acute" unicode="&#xb4;" horiz-adv-x="380" 
d="M325 764l-141 -166h-129l113 166h157z" />
    <glyph glyph-name="paragraph" unicode="&#xb6;" horiz-adv-x="734" 
d="M435 -192h-138v411h-41q-30 0 -63 13.5t-65 40.5t-52.5 77t-20.5 113q0 93 61 165t173 72h146v-892zM679 -192h-138v892h138v-892z" />
    <glyph glyph-name="periodcentered" unicode="&#xb7;" 
d="M203 278h-148v150h148v-150z" />
    <glyph glyph-name="cedilla" unicode="&#xb8;" horiz-adv-x="344" 
d="M187 42l-11 -42q42 0 76.5 -21t34.5 -68q0 -38 -30.5 -69t-99.5 -31q-41 0 -75 8l-27 9l12 63q42 -14 77 -14q65 0 65 36q0 23 -24 29.5t-87 6.5l30 93h59z" />
    <glyph glyph-name="onesuperior" unicode="&#xb9;" horiz-adv-x="287" 
d="M212 695v-456h-98v326h-79v84h46q47 0 47 46h84z" />
    <glyph glyph-name="ordmasculine" unicode="&#xba;" horiz-adv-x="408" 
d="M204 335q-78 0 -126 48t-48 138t48 138t126 48t126 -48t48 -138t-48 -138t-126 -48zM204 628q-35 0 -56.5 -26.5t-21.5 -80.5t21.5 -80.5t56.5 -26.5t56.5 26.5t21.5 80.5t-21.5 80.5t-56.5 26.5z" />
    <glyph glyph-name="guillemotright" unicode="&#xbb;" horiz-adv-x="647" 
d="M352 273l-152 -273h-145l150 275l-150 273h145zM592 273l-152 -273h-145l150 275l-150 273h145z" />
    <glyph glyph-name="onequarter" unicode="&#xbc;" horiz-adv-x="676" 
d="M232 695v-456h-98v326h-79v84h46q47 0 47 46h84zM621 95h-52v-94h-93v94h-216v79l189 283h120v-287h52v-75zM476 170v193l-126 -193h126z" />
    <glyph glyph-name="onehalf" unicode="&#xbd;" horiz-adv-x="677" 
d="M232 695v-456h-98v326h-79v84h46q47 0 47 46h84zM391 291h-93q0 76 43 123.5t127 47.5q79 0 119.5 -41.5t40.5 -93.5q0 -45 -18 -77t-54 -65l-117 -103h187v-81h-311v79l172 153q47 41 47 86q0 28 -18 45.5t-48 17.5q-77 0 -77 -91z" />
    <glyph glyph-name="threequarters" unicode="&#xbe;" horiz-adv-x="767" 
d="M156 536h-89q0 78 42.5 121t126.5 43q71 0 112.5 -34t41.5 -91q0 -38 -18.5 -65.5t-54.5 -36.5q35 -6 57.5 -33.5t22.5 -61.5q0 -69 -47 -106t-126 -37q-82 0 -125.5 43.5t-43.5 112.5h96q0 -38 20 -58t54 -20q39 0 57 18t18 45q0 54 -76 54h-37v79h34q76 0 76 60
q0 22 -16 36.5t-49 14.5q-76 0 -76 -84zM712 95h-52v-94h-93v94h-216v79l189 283h120v-287h52v-75zM567 170v193l-126 -193h126z" />
    <glyph glyph-name="questiondown" unicode="&#xbf;" horiz-adv-x="484" 
d="M172 548h148v-148h-148v148zM326 61h133q0 -102 -56 -161t-169 -59q-97 0 -153 53.5t-56 136.5q0 41 16 77.5t38 63t44.5 51t38.5 50.5t16 52h134q0 -40 -15.5 -76t-37.5 -61.5t-44 -49t-37.5 -51t-15.5 -55.5q0 -34 20 -57t56 -23q88 0 88 109z" />
    <glyph glyph-name="Agrave" unicode="&#xc0;" horiz-adv-x="646" 
d="M330 750l-141 166h157l113 -166h-129zM154 0h-144l210 700h200l216 -700h-151l-40 140h-253zM411 259l-94 335l-92 -335h186z" />
    <glyph glyph-name="Aacute" unicode="&#xc1;" horiz-adv-x="646" 
d="M471 916l-141 -166h-129l113 166h157zM154 0h-144l210 700h200l216 -700h-151l-40 140h-253zM411 259l-94 335l-92 -335h186z" />
    <glyph glyph-name="Acircumflex" unicode="&#xc2;" horiz-adv-x="646" 
d="M128 750l129 166h120l129 -166h-132l-57 77l-57 -77h-132zM154 0h-144l210 700h200l216 -700h-151l-40 140h-253zM411 259l-94 335l-92 -335h186z" />
    <glyph glyph-name="Atilde" unicode="&#xc3;" horiz-adv-x="646" 
d="M229 752h-105q0 60 33 102.5t92 42.5q31 0 78 -19t55 -19q15 0 21 8t6 29h101q0 -143 -114 -143q-28 0 -74.5 18.5t-57.5 18.5q-35 0 -35 -38zM154 0h-144l210 700h200l216 -700h-151l-40 140h-253zM411 259l-94 335l-92 -335h186z" />
    <glyph glyph-name="Adieresis" unicode="&#xc4;" horiz-adv-x="646" 
d="M283 753h-135v129h135v-129zM487 753h-135v129h135v-129zM154 0h-144l210 700h200l216 -700h-151l-40 140h-253zM411 259l-94 335l-92 -335h186z" />
    <glyph glyph-name="Aring" unicode="&#xc5;" horiz-adv-x="646" 
d="M10 0l196 653q-50 45 -50 114q0 66 47 110.5t115 44.5t114.5 -44.5t46.5 -110.5t-46 -110l203 -657h-151l-40 140h-253l-38 -140h-144zM249 767q0 -33 18.5 -52.5t50.5 -19.5q31 0 50 20t19 52t-19 52t-50 20q-32 0 -50.5 -19.5t-18.5 -52.5zM411 259l-94 335l-92 -335
h186z" />
    <glyph glyph-name="AE" unicode="&#xc6;" horiz-adv-x="984" 
d="M461 131h-236l-63 -131h-152l367 700h546v-123h-324v-162h302v-125h-302v-167h335v-123h-473v131zM461 251v346l-178 -346h178z" />
    <glyph glyph-name="Ccedilla" unicode="&#xc7;" horiz-adv-x="666" 
d="M492 230h144q-7 -86 -65.5 -154t-166.5 -83q63 -21 63 -82q0 -38 -30.5 -69t-99.5 -31q-41 0 -75 8l-27 9l12 63q42 -14 77 -14q65 0 65 36q0 23 -24 29.5t-87 6.5l14 44q-77 10 -130.5 47.5t-79.5 92.5t-36.5 106.5t-10.5 108.5q0 53 10 102.5t34 97.5t60 83.5t92 57.5
t125 22q74 0 131 -24t87 -61.5t44.5 -76t14.5 -74.5h-145q-3 45 -37 79.5t-101 34.5q-82 0 -125.5 -61.5t-43.5 -181.5q0 -113 45.5 -174t125.5 -61q73 0 106.5 40t33.5 79z" />
    <glyph glyph-name="Egrave" unicode="&#xc8;" horiz-adv-x="603" 
d="M282 750l-141 166h157l113 -166h-129zM553 0h-493v700h483v-123h-345v-162h321v-125h-321v-167h355v-123z" />
    <glyph glyph-name="Eacute" unicode="&#xc9;" horiz-adv-x="603" 
d="M478 916l-141 -166h-129l113 166h157zM553 0h-493v700h483v-123h-345v-162h321v-125h-321v-167h355v-123z" />
    <glyph glyph-name="Ecircumflex" unicode="&#xca;" horiz-adv-x="603" 
d="M113 750l129 166h120l129 -166h-132l-57 77l-57 -77h-132zM553 0h-493v700h483v-123h-345v-162h321v-125h-321v-167h355v-123z" />
    <glyph glyph-name="Edieresis" unicode="&#xcb;" horiz-adv-x="603" 
d="M267 753h-135v129h135v-129zM471 753h-135v129h135v-129zM553 0h-493v700h483v-123h-345v-162h321v-125h-321v-167h355v-123z" />
    <glyph glyph-name="Igrave" unicode="&#xcc;" 
d="M136 750l-141 166h157l113 -166h-129zM198 0h-138v700h138v-700z" />
    <glyph glyph-name="Iacute" unicode="&#xcd;" 
d="M265 916l-141 -166h-129l113 166h157zM198 0h-138v700h138v-700z" />
    <glyph glyph-name="Icircumflex" unicode="&#xce;" 
d="M-59 750l129 166h120l129 -166h-132l-57 77l-57 -77h-132zM198 0h-138v700h138v-700z" />
    <glyph glyph-name="Idieresis" unicode="&#xcf;" 
d="M96 753h-135v129h135v-129zM300 753h-135v129h135v-129zM198 0h-138v700h138v-700z" />
    <glyph glyph-name="Eth" unicode="&#xd0;" horiz-adv-x="722" 
d="M92 700h292q63 0 116.5 -19.5t96 -59t66.5 -106.5t24 -155q0 -158 -80 -255q-40 -49 -104.5 -77t-143.5 -28h-267v290h-67v125h67v285zM230 118h121q36 0 67 10.5t61 35.5t47.5 74t17.5 117q0 227 -193 227h-121v-167h173v-125h-173v-172z" />
    <glyph glyph-name="Ntilde" unicode="&#xd1;" horiz-adv-x="691" 
d="M253 752h-105q0 60 33 102.5t92 42.5q31 0 78 -19t55 -19q15 0 21 8t6 29h101q0 -143 -114 -143q-28 0 -74.5 18.5t-57.5 18.5q-35 0 -35 -38zM631 0h-168l-265 492v-492h-138v700h175l259 -488v488h137v-700z" />
    <glyph glyph-name="Ograve" unicode="&#xd2;" horiz-adv-x="704" 
d="M324 750l-141 166h157l113 -166h-129zM669 349q0 -167 -89.5 -263.5t-227.5 -96.5t-227.5 96.5t-89.5 263.5t89.5 264.5t227.5 97.5q137 0 227 -97.5t90 -264.5zM523 349q0 116 -45 178t-126 62q-82 0 -126.5 -62t-44.5 -178q0 -111 45 -174.5t126 -63.5q80 0 125.5 63.5
t45.5 174.5z" />
    <glyph glyph-name="Oacute" unicode="&#xd3;" horiz-adv-x="704" 
d="M555 916l-141 -166h-129l113 166h157zM669 349q0 -167 -89.5 -263.5t-227.5 -96.5t-227.5 96.5t-89.5 263.5t89.5 264.5t227.5 97.5q137 0 227 -97.5t90 -264.5zM523 349q0 116 -45 178t-126 62q-82 0 -126.5 -62t-44.5 -178q0 -111 45 -174.5t126 -63.5q80 0 125.5 63.5
t45.5 174.5z" />
    <glyph glyph-name="Ocircumflex" unicode="&#xd4;" horiz-adv-x="704" 
d="M163 750l129 166h120l129 -166h-132l-57 77l-57 -77h-132zM669 349q0 -167 -89.5 -263.5t-227.5 -96.5t-227.5 96.5t-89.5 263.5t89.5 264.5t227.5 97.5q137 0 227 -97.5t90 -264.5zM523 349q0 116 -45 178t-126 62q-82 0 -126.5 -62t-44.5 -178q0 -111 45 -174.5
t126 -63.5q80 0 125.5 63.5t45.5 174.5z" />
    <glyph glyph-name="Otilde" unicode="&#xd5;" horiz-adv-x="704" 
d="M264 752h-105q0 60 33 102.5t92 42.5q31 0 78 -19t55 -19q15 0 21 8t6 29h101q0 -143 -114 -143q-28 0 -74.5 18.5t-57.5 18.5q-35 0 -35 -38zM669 349q0 -167 -89.5 -263.5t-227.5 -96.5t-227.5 96.5t-89.5 263.5t89.5 264.5t227.5 97.5q137 0 227 -97.5t90 -264.5z
M523 349q0 116 -45 178t-126 62q-82 0 -126.5 -62t-44.5 -178q0 -111 45 -174.5t126 -63.5q80 0 125.5 63.5t45.5 174.5z" />
    <glyph glyph-name="Odieresis" unicode="&#xd6;" horiz-adv-x="704" 
d="M317 753h-135v129h135v-129zM521 753h-135v129h135v-129zM669 349q0 -167 -89.5 -263.5t-227.5 -96.5t-227.5 96.5t-89.5 263.5t89.5 264.5t227.5 97.5q137 0 227 -97.5t90 -264.5zM523 349q0 116 -45 178t-126 62q-82 0 -126.5 -62t-44.5 -178q0 -111 45 -174.5
t126 -63.5q80 0 125.5 63.5t45.5 174.5z" />
    <glyph glyph-name="multiply" unicode="&#xd7;" horiz-adv-x="660" 
d="M103 620l227 -233l226 233l49 -50l-229 -232l229 -232l-49 -48l-226 231l-227 -231l-48 48l226 232l-226 232z" />
    <glyph glyph-name="Oslash" unicode="&#xd8;" horiz-adv-x="704" 
d="M621 732l-60 -101q108 -100 108 -282q0 -167 -89.5 -263.5t-227.5 -96.5q-77 0 -144 32l-56 -96l-68 37l61 103q-110 99 -110 284q0 167 89.5 264.5t227.5 97.5q79 0 148 -36l55 94zM217 189l219 376q-36 24 -84 24q-82 0 -126.5 -62t-44.5 -178q0 -97 36 -160zM489 507
l-217 -375q34 -21 80 -21q80 0 125.5 63.5t45.5 174.5q0 97 -34 158z" />
    <glyph glyph-name="Ugrave" unicode="&#xd9;" horiz-adv-x="663" 
d="M322 750l-141 166h157l113 -166h-129zM188 700v-450q0 -70 40 -107.5t108 -37.5t106.5 38.5t38.5 109.5v447h132v-442q0 -137 -76.5 -203t-204.5 -66q-127 0 -204.5 68t-77.5 205v438h138z" />
    <glyph glyph-name="Uacute" unicode="&#xda;" horiz-adv-x="663" 
d="M504 916l-141 -166h-129l113 166h157zM188 700v-450q0 -70 40 -107.5t108 -37.5t106.5 38.5t38.5 109.5v447h132v-442q0 -137 -76.5 -203t-204.5 -66q-127 0 -204.5 68t-77.5 205v438h138z" />
    <glyph glyph-name="Ucircumflex" unicode="&#xdb;" horiz-adv-x="663" 
d="M142 750l129 166h120l129 -166h-132l-57 77l-57 -77h-132zM188 700v-450q0 -70 40 -107.5t108 -37.5t106.5 38.5t38.5 109.5v447h132v-442q0 -137 -76.5 -203t-204.5 -66q-127 0 -204.5 68t-77.5 205v438h138z" />
    <glyph glyph-name="Udieresis" unicode="&#xdc;" horiz-adv-x="663" 
d="M297 753h-135v129h135v-129zM501 753h-135v129h135v-129zM188 700v-450q0 -70 40 -107.5t108 -37.5t106.5 38.5t38.5 109.5v447h132v-442q0 -137 -76.5 -203t-204.5 -66q-127 0 -204.5 68t-77.5 205v438h138z" />
    <glyph glyph-name="Yacute" unicode="&#xdd;" horiz-adv-x="621" 
d="M491 916l-141 -166h-129l113 166h157zM10 700h158l144 -305l146 305h153l-232 -448v-252h-137v252z" />
    <glyph glyph-name="Thorn" unicode="&#xde;" horiz-adv-x="625" 
d="M198 120v-120h-138v700h137v-120h173q95 0 160 -61.5t65 -163.5q0 -96 -57 -159q-70 -76 -191 -76h-149zM198 239h129q65 0 94.5 32t29.5 80q0 49 -29 79.5t-92 30.5h-132v-222z" />
    <glyph glyph-name="germandbls" unicode="&#xdf;" horiz-adv-x="563" 
d="M55 0v524q0 117 65 179t166 62q93 0 149 -49.5t56 -129.5q0 -49 -23 -123t-23 -82q0 -20 14.5 -46t32 -48t32 -54.5t14.5 -65.5q0 -70 -46.5 -119.5t-149.5 -49.5q-37 0 -58 4l-27 4v109q36 -9 69 -9q39 0 58 14t19 46q0 20 -23.5 54t-47 72t-23.5 69q0 35 27 109.5
t27 101.5q0 35 -19.5 57t-59.5 22q-42 0 -68 -29t-26 -89v-533h-135z" />
    <glyph glyph-name="agrave" unicode="&#xe0;" horiz-adv-x="576" 
d="M294 598l-141 166h157l113 -166h-129zM197 326l189 29v19q0 35 -21 53t-78 18q-104 0 -104 -75h-130q0 185 238 185q230 0 230 -176v-302q0 -33 3 -54l4 -23h-138v55q-62 -62 -170 -62q-83 0 -136.5 46t-53.5 126q0 133 167 161zM386 223v29l-53 -8q-12 -2 -42.5 -7
t-42.5 -7q-41 -7 -58 -21q-21 -17 -21 -45q0 -9 2.5 -17.5t9.5 -21t25 -20t44 -7.5q67 0 104 37q32 32 32 88z" />
    <glyph glyph-name="aacute" unicode="&#xe1;" horiz-adv-x="576" 
d="M464 764l-141 -166h-129l113 166h157zM197 326l189 29v19q0 35 -21 53t-78 18q-104 0 -104 -75h-130q0 185 238 185q230 0 230 -176v-302q0 -33 3 -54l4 -23h-138v55q-62 -62 -170 -62q-83 0 -136.5 46t-53.5 126q0 133 167 161zM386 223v29l-53 -8q-12 -2 -42.5 -7
t-42.5 -7q-41 -7 -58 -21q-21 -17 -21 -45q0 -9 2.5 -17.5t9.5 -21t25 -20t44 -7.5q67 0 104 37q32 32 32 88z" />
    <glyph glyph-name="acircumflex" unicode="&#xe2;" horiz-adv-x="576" 
d="M109 598l129 166h120l129 -166h-132l-57 77l-57 -77h-132zM197 326l189 29v19q0 35 -21 53t-78 18q-104 0 -104 -75h-130q0 185 238 185q230 0 230 -176v-302q0 -33 3 -54l4 -23h-138v55q-62 -62 -170 -62q-83 0 -136.5 46t-53.5 126q0 133 167 161zM386 223v29l-53 -8
q-12 -2 -42.5 -7t-42.5 -7q-41 -7 -58 -21q-21 -17 -21 -45q0 -9 2.5 -17.5t9.5 -21t25 -20t44 -7.5q67 0 104 37q32 32 32 88z" />
    <glyph glyph-name="atilde" unicode="&#xe3;" horiz-adv-x="576" 
d="M200 600h-105q0 60 33 102.5t92 42.5q31 0 78 -19t55 -19q15 0 21 8t6 29h101q0 -143 -114 -143q-28 0 -74.5 18.5t-57.5 18.5q-35 0 -35 -38zM197 326l189 29v19q0 35 -21 53t-78 18q-104 0 -104 -75h-130q0 185 238 185q230 0 230 -176v-302q0 -33 3 -54l4 -23h-138v55
q-62 -62 -170 -62q-83 0 -136.5 46t-53.5 126q0 133 167 161zM386 223v29l-53 -8q-12 -2 -42.5 -7t-42.5 -7q-41 -7 -58 -21q-21 -17 -21 -45q0 -9 2.5 -17.5t9.5 -21t25 -20t44 -7.5q67 0 104 37q32 32 32 88z" />
    <glyph glyph-name="adieresis" unicode="&#xe4;" horiz-adv-x="576" 
d="M262 601h-135v129h135v-129zM466 601h-135v129h135v-129zM197 326l189 29v19q0 35 -21 53t-78 18q-104 0 -104 -75h-130q0 185 238 185q230 0 230 -176v-302q0 -33 3 -54l4 -23h-138v55q-62 -62 -170 -62q-83 0 -136.5 46t-53.5 126q0 133 167 161zM386 223v29l-53 -8
q-12 -2 -42.5 -7t-42.5 -7q-41 -7 -58 -21q-21 -17 -21 -45q0 -9 2.5 -17.5t9.5 -21t25 -20t44 -7.5q67 0 104 37q32 32 32 88z" />
    <glyph glyph-name="aring" unicode="&#xe5;" horiz-adv-x="576" 
d="M151 727q0 60 42.5 100.5t104.5 40.5t104 -40.5t42 -100.5t-42 -100.5t-104 -40.5q-63 0 -105 40t-42 101zM235 727q0 -31 17 -49t46 -18q28 0 45.5 18.5t17.5 48.5q0 29 -17.5 47.5t-45.5 18.5q-29 0 -46 -18t-17 -48zM197 326l189 29v19q0 35 -21 53t-78 18
q-104 0 -104 -75h-130q0 185 238 185q230 0 230 -176v-302q0 -33 3 -54l4 -23h-138v55q-62 -62 -170 -62q-83 0 -136.5 46t-53.5 126q0 133 167 161zM386 223v29l-53 -8q-12 -2 -42.5 -7t-42.5 -7q-41 -7 -58 -21q-21 -17 -21 -45q0 -9 2.5 -17.5t9.5 -21t25 -20t44 -7.5
q67 0 104 37q32 32 32 88z" />
    <glyph glyph-name="ae" unicode="&#xe6;" horiz-adv-x="931" 
d="M754 183l137 -3q-12 -85 -76 -136t-169 -51q-69 0 -122.5 25.5t-76.5 62.5q-21 -24 -42 -40.5t-68.5 -32t-109.5 -15.5q-84 0 -140.5 45.5t-56.5 125.5q0 44 17 77t44 50.5t50.5 26.5t45.5 11l198 26v19q0 35 -22 53t-79 18q-36 0 -59 -8.5t-31.5 -23t-10.5 -23t-2 -20.5
h-130q0 27 5.5 50.5t22 49t43 44t71.5 30t104 11.5q122 0 179 -62q70 62 171 62q120 0 184.5 -78.5t64.5 -204.5v-29h-375q0 -29 9.5 -58t40 -54.5t76.5 -25.5q42 0 70.5 20t36.5 58zM525 340h230q-4 54 -34 79t-76 25q-49 0 -82 -28t-38 -76zM386 204v50l-59 -8
q-9 -1 -44.5 -6.5t-47.5 -7.5q-33 -7 -49.5 -21.5t-16.5 -45.5q0 -12 4.5 -24.5t25 -26.5t54.5 -14q68 0 100.5 32t32.5 72z" />
    <glyph glyph-name="ccedilla" unicode="&#xe7;" horiz-adv-x="563" 
d="M398 198h138q-6 -85 -60 -140t-149 -63q70 -21 70 -84q0 -38 -30.5 -69t-99.5 -31q-41 0 -75 8l-27 9l12 63q42 -14 77 -14q65 0 65 36q0 23 -24 29.5t-87 6.5l16 51q-90 19 -142 88t-52 182q0 139 72 212t189 73q104 0 169 -54t76 -155h-138q-5 45 -32.5 71t-72.5 26
q-57 0 -90.5 -41.5t-33.5 -127.5t32.5 -127.5t88.5 -41.5q45 0 74 24.5t34 68.5z" />
    <glyph glyph-name="egrave" unicode="&#xe8;" horiz-adv-x="580" 
d="M296 598l-141 166h157l113 -166h-129zM404 183l137 -3q-12 -85 -75.5 -136t-168.5 -51q-119 0 -192.5 71.5t-73.5 206.5t74.5 209.5t191.5 74.5q120 0 186 -78.5t66 -204.5v-29h-378q0 -56 28.5 -97t95.5 -41q42 0 71.5 20.5t37.5 57.5zM176 340h230q-4 54 -34 79t-76 25
q-49 0 -82 -28t-38 -76z" />
    <glyph glyph-name="eacute" unicode="&#xe9;" horiz-adv-x="580" 
d="M473 764l-141 -166h-129l113 166h157zM404 183l137 -3q-12 -85 -75.5 -136t-168.5 -51q-119 0 -192.5 71.5t-73.5 206.5t74.5 209.5t191.5 74.5q120 0 186 -78.5t66 -204.5v-29h-378q0 -56 28.5 -97t95.5 -41q42 0 71.5 20.5t37.5 57.5zM176 340h230q-4 54 -34 79t-76 25
q-49 0 -82 -28t-38 -76z" />
    <glyph glyph-name="ecircumflex" unicode="&#xea;" horiz-adv-x="580" 
d="M101 598l129 166h120l129 -166h-132l-57 77l-57 -77h-132zM404 183l137 -3q-12 -85 -75.5 -136t-168.5 -51q-119 0 -192.5 71.5t-73.5 206.5t74.5 209.5t191.5 74.5q120 0 186 -78.5t66 -204.5v-29h-378q0 -56 28.5 -97t95.5 -41q42 0 71.5 20.5t37.5 57.5zM176 340h230
q-4 54 -34 79t-76 25q-49 0 -82 -28t-38 -76z" />
    <glyph glyph-name="edieresis" unicode="&#xeb;" horiz-adv-x="580" 
d="M257 601h-135v129h135v-129zM461 601h-135v129h135v-129zM404 183l137 -3q-12 -85 -75.5 -136t-168.5 -51q-119 0 -192.5 71.5t-73.5 206.5t74.5 209.5t191.5 74.5q120 0 186 -78.5t66 -204.5v-29h-378q0 -56 28.5 -97t95.5 -41q42 0 71.5 20.5t37.5 57.5zM176 340h230
q-4 54 -34 79t-76 25q-49 0 -82 -28t-38 -76z" />
    <glyph glyph-name="igrave" unicode="&#xec;" horiz-adv-x="245" 
d="M130 598l-141 166h157l113 -166h-129zM190 0h-135v548h135v-548z" />
    <glyph glyph-name="iacute" unicode="&#xed;" horiz-adv-x="245" 
d="M259 764l-141 -166h-129l113 166h157zM190 0h-135v548h135v-548z" />
    <glyph glyph-name="icircumflex" unicode="&#xee;" horiz-adv-x="245" 
d="M-65 598l129 166h120l129 -166h-132l-57 77l-57 -77h-132zM190 0h-135v548h135v-548z" />
    <glyph glyph-name="idieresis" unicode="&#xef;" horiz-adv-x="245" 
d="M89 601h-135v129h135v-129zM293 601h-135v129h135v-129zM190 0h-135v548h135v-548z" />
    <glyph glyph-name="eth" unicode="&#xf0;" horiz-adv-x="586" 
d="M204 594l-16 46l70 25q-41 46 -94 85h179q23 -19 41 -39l87 32l16 -46l-68 -25q137 -168 137 -389q0 -137 -73 -213.5t-191 -76.5q-125 0 -192 73q-70 78 -70 208q0 74 21 130t56.5 88t77 47.5t86.5 15.5q51 0 82 -15q-23 48 -61 86zM293 443q-57 0 -91 -41.5t-34 -127.5
t34 -127.5t91 -41.5t91 41.5t34 127.5t-34 127.5t-91 41.5z" />
    <glyph glyph-name="ntilde" unicode="&#xf1;" horiz-adv-x="590" 
d="M208 600h-105q0 60 33 102.5t92 42.5q31 0 78 -19t55 -19q15 0 21 8t6 29h101q0 -143 -114 -143q-28 0 -74.5 18.5t-57.5 18.5q-35 0 -35 -38zM538 0h-135v340q0 48 -25 74t-70 26q-53 0 -85.5 -33.5t-32.5 -97.5v-309h-135v548h133v-58q54 65 156 65q92 0 143 -48
t51 -132v-375z" />
    <glyph glyph-name="ograve" unicode="&#xf2;" horiz-adv-x="586" 
d="M299 598l-141 166h157l113 -166h-129zM293 -7q-119 0 -191 72.5t-72 208.5t72 208.5t191 72.5t191 -72.5t72 -208.5t-72 -208.5t-191 -72.5zM293 443q-57 0 -91 -41.5t-34 -127.5t34 -127.5t91 -41.5t91 41.5t34 127.5t-34 127.5t-91 41.5z" />
    <glyph glyph-name="oacute" unicode="&#xf3;" horiz-adv-x="586" 
d="M494 764l-141 -166h-129l113 166h157zM293 -7q-119 0 -191 72.5t-72 208.5t72 208.5t191 72.5t191 -72.5t72 -208.5t-72 -208.5t-191 -72.5zM293 443q-57 0 -91 -41.5t-34 -127.5t34 -127.5t91 -41.5t91 41.5t34 127.5t-34 127.5t-91 41.5z" />
    <glyph glyph-name="ocircumflex" unicode="&#xf4;" horiz-adv-x="586" 
d="M104 598l129 166h120l129 -166h-132l-57 77l-57 -77h-132zM293 -7q-119 0 -191 72.5t-72 208.5t72 208.5t191 72.5t191 -72.5t72 -208.5t-72 -208.5t-191 -72.5zM293 443q-57 0 -91 -41.5t-34 -127.5t34 -127.5t91 -41.5t91 41.5t34 127.5t-34 127.5t-91 41.5z" />
    <glyph glyph-name="otilde" unicode="&#xf5;" horiz-adv-x="586" 
d="M205 600h-105q0 60 33 102.5t92 42.5q31 0 78 -19t55 -19q15 0 21 8t6 29h101q0 -143 -114 -143q-28 0 -74.5 18.5t-57.5 18.5q-35 0 -35 -38zM293 -7q-119 0 -191 72.5t-72 208.5t72 208.5t191 72.5t191 -72.5t72 -208.5t-72 -208.5t-191 -72.5zM293 443
q-57 0 -91 -41.5t-34 -127.5t34 -127.5t91 -41.5t91 41.5t34 127.5t-34 127.5t-91 41.5z" />
    <glyph glyph-name="odieresis" unicode="&#xf6;" horiz-adv-x="586" 
d="M258 601h-135v129h135v-129zM462 601h-135v129h135v-129zM293 -7q-119 0 -191 72.5t-72 208.5t72 208.5t191 72.5t191 -72.5t72 -208.5t-72 -208.5t-191 -72.5zM293 443q-57 0 -91 -41.5t-34 -127.5t34 -127.5t91 -41.5t91 41.5t34 127.5t-34 127.5t-91 41.5z" />
    <glyph glyph-name="divide" unicode="&#xf7;" horiz-adv-x="586" 
d="M367 462h-148v148h148v-148zM531 291h-476v116h476v-116zM367 88h-148v148h148v-148z" />
    <glyph glyph-name="oslash" unicode="&#xf8;" horiz-adv-x="586" 
d="M511 574l-45 -76q90 -76 90 -224q0 -136 -72 -208.5t-191 -72.5q-60 0 -112 20l-41 -69l-50 29l40 68q-100 75 -100 233q0 136 72 208.5t191 72.5q67 0 125 -26l43 74zM197 154l160 271q-29 18 -64 18q-57 0 -91 -41.5t-34 -127.5q0 -79 29 -120zM397 380l-156 -265
q20 -10 52 -10q57 0 91 41.5t34 127.5q0 62 -21 106z" />
    <glyph glyph-name="ugrave" unicode="&#xf9;" horiz-adv-x="582" 
d="M273 598l-141 166h157l113 -166h-129zM527 0h-132v52q-59 -59 -157 -59q-88 0 -137 53.5t-49 133.5v368h135v-342q0 -103 94 -103q55 0 83 34t28 88v323h135v-548z" />
    <glyph glyph-name="uacute" unicode="&#xfa;" horiz-adv-x="582" 
d="M471 764l-141 -166h-129l113 166h157zM527 0h-132v52q-59 -59 -157 -59q-88 0 -137 53.5t-49 133.5v368h135v-342q0 -103 94 -103q55 0 83 34t28 88v323h135v-548z" />
    <glyph glyph-name="ucircumflex" unicode="&#xfb;" horiz-adv-x="582" 
d="M103 598l129 166h120l129 -166h-132l-57 77l-57 -77h-132zM527 0h-132v52q-59 -59 -157 -59q-88 0 -137 53.5t-49 133.5v368h135v-342q0 -103 94 -103q55 0 83 34t28 88v323h135v-548z" />
    <glyph glyph-name="udieresis" unicode="&#xfc;" horiz-adv-x="582" 
d="M257 601h-135v129h135v-129zM461 601h-135v129h135v-129zM527 0h-132v52q-59 -59 -157 -59q-88 0 -137 53.5t-49 133.5v368h135v-342q0 -103 94 -103q55 0 83 34t28 88v323h135v-548z" />
    <glyph glyph-name="yacute" unicode="&#xfd;" horiz-adv-x="528" 
d="M434 764l-141 -166h-129l113 166h157zM49 -192v118h81q23 0 35 8t18 30l10 36l-188 548h149l114 -381l114 381h141l-206 -611q-24 -69 -56.5 -99t-98.5 -30h-113z" />
    <glyph glyph-name="thorn" unicode="&#xfe;" horiz-adv-x="610" 
d="M190 -192h-135v932h135v-251q24 30 64.5 48t84.5 18q115 0 178 -73t63 -208q0 -133 -66.5 -207t-177.5 -74q-46 0 -85.5 16.5t-60.5 45.5v-247zM316 443q-61 0 -95 -36t-34 -133t34 -133t95 -36q57 0 91.5 41.5t34.5 127.5t-34.5 127.5t-91.5 41.5z" />
    <glyph glyph-name="ydieresis" unicode="&#xff;" horiz-adv-x="528" 
d="M229 601h-135v129h135v-129zM433 601h-135v129h135v-129zM49 -192v118h81q23 0 35 8t18 30l10 36l-188 548h149l114 -381l114 381h141l-206 -611q-24 -69 -56.5 -99t-98.5 -30h-113z" />
    <glyph glyph-name="Amacron" unicode="&#x100;" horiz-adv-x="646" 
d="M483 752h-331v100h331v-100zM154 0h-144l210 700h200l216 -700h-151l-40 140h-253zM411 259l-94 335l-92 -335h186z" />
    <glyph glyph-name="amacron" unicode="&#x101;" horiz-adv-x="576" 
d="M461 600h-331v100h331v-100zM197 326l189 29v19q0 35 -21 53t-78 18q-104 0 -104 -75h-130q0 185 238 185q230 0 230 -176v-302q0 -33 3 -54l4 -23h-138v55q-62 -62 -170 -62q-83 0 -136.5 46t-53.5 126q0 133 167 161zM386 223v29l-53 -8q-12 -2 -42.5 -7t-42.5 -7
q-41 -7 -58 -21q-21 -17 -21 -45q0 -9 2.5 -17.5t9.5 -21t25 -20t44 -7.5q67 0 104 37q32 32 32 88z" />
    <glyph glyph-name="Abreve" unicode="&#x102;" horiz-adv-x="646" 
d="M156 914h104q0 -42 13.5 -62.5t45.5 -20.5t45.5 20.5t13.5 62.5h104q0 -74 -38.5 -124.5t-124.5 -50.5t-124.5 50.5t-38.5 124.5zM154 0h-144l210 700h200l216 -700h-151l-40 140h-253zM411 259l-94 335l-92 -335h186z" />
    <glyph glyph-name="abreve" unicode="&#x103;" horiz-adv-x="576" 
d="M129 762h104q0 -42 13.5 -62.5t45.5 -20.5t45.5 20.5t13.5 62.5h104q0 -74 -38.5 -124.5t-124.5 -50.5t-124.5 50.5t-38.5 124.5zM197 326l189 29v19q0 35 -21 53t-78 18q-104 0 -104 -75h-130q0 185 238 185q230 0 230 -176v-302q0 -33 3 -54l4 -23h-138v55
q-62 -62 -170 -62q-83 0 -136.5 46t-53.5 126q0 133 167 161zM386 223v29l-53 -8q-12 -2 -42.5 -7t-42.5 -7q-41 -7 -58 -21q-21 -17 -21 -45q0 -9 2.5 -17.5t9.5 -21t25 -20t44 -7.5q67 0 104 37q32 32 32 88z" />
    <glyph glyph-name="Aogonek" unicode="&#x104;" horiz-adv-x="646" 
d="M155 0h-145l210 700h200l216 -700q-107 -11 -107 -74q0 -42 60 -42q37 0 55 5l-11 -71l-22 -3q-24 -2 -40 -2q-67 0 -99 29t-32 72q0 56 44 87l-39 139h-253zM411 259l-94 335l-92 -335h186z" />
    <glyph glyph-name="aogonek" unicode="&#x105;" horiz-adv-x="576" 
d="M197 326l189 29v19q0 35 -21 53t-78 18q-104 0 -104 -75h-130q0 185 238 185q230 0 230 -176v-302q0 -33 3 -54l4 -23q-51 -2 -78 -27t-27 -49q0 -40 60 -40q37 0 55 5l-11 -71l-22 -3q-24 -2 -40 -2q-68 0 -99.5 27t-31.5 69q0 53 56 95v51q-62 -62 -170 -62
q-83 0 -136.5 46t-53.5 126q0 133 167 161zM386 223v29l-53 -8q-12 -2 -42.5 -7t-42.5 -7q-41 -7 -58 -21q-21 -17 -21 -45q0 -9 2.5 -17.5t9.5 -21t25 -20t44 -7.5q67 0 104 37q32 32 32 88z" />
    <glyph glyph-name="Cacute" unicode="&#x106;" horiz-adv-x="666" 
d="M544 916l-141 -166h-129l113 166h157zM633 475h-145q-3 45 -37 79.5t-101 34.5q-82 0 -125.5 -61.5t-43.5 -181.5q0 -113 45.5 -174t125.5 -61q73 0 106.5 40t33.5 79h144q-3 -44 -20.5 -85t-49.5 -77t-86 -57.5t-124 -21.5q-74 0 -132 24t-92.5 61t-57 86.5t-31 95
t-8.5 92.5q0 67 17.5 128.5t53.5 115.5t101 86.5t151 32.5q74 0 130.5 -24t86.5 -61.5t44 -76t14 -74.5z" />
    <glyph glyph-name="cacute" unicode="&#x107;" horiz-adv-x="563" 
d="M466 764l-141 -166h-129l113 166h157zM398 198h138q-9 -93 -71 -149t-172 -56q-118 0 -190.5 72t-72.5 205q0 139 72 212t189 73q104 0 169 -54t76 -155h-138q-5 45 -32.5 71t-72.5 26q-57 0 -90.5 -41.5t-33.5 -127.5t32.5 -127.5t88.5 -41.5q45 0 74 24.5t34 68.5z" />
    <glyph glyph-name="Ccircumflex" unicode="&#x108;" horiz-adv-x="666" 
d="M156 750l129 166h120l129 -166h-132l-57 77l-57 -77h-132zM633 475h-145q-3 45 -37 79.5t-101 34.5q-82 0 -125.5 -61.5t-43.5 -181.5q0 -113 45.5 -174t125.5 -61q73 0 106.5 40t33.5 79h144q-3 -44 -20.5 -85t-49.5 -77t-86 -57.5t-124 -21.5q-74 0 -132 24t-92.5 61
t-57 86.5t-31 95t-8.5 92.5q0 67 17.5 128.5t53.5 115.5t101 86.5t151 32.5q74 0 130.5 -24t86.5 -61.5t44 -76t14 -74.5z" />
    <glyph glyph-name="ccircumflex" unicode="&#x109;" horiz-adv-x="563" 
d="M103 598l129 166h120l129 -166h-132l-57 77l-57 -77h-132zM398 198h138q-9 -93 -71 -149t-172 -56q-118 0 -190.5 72t-72.5 205q0 139 72 212t189 73q104 0 169 -54t76 -155h-138q-5 45 -32.5 71t-72.5 26q-57 0 -90.5 -41.5t-33.5 -127.5t32.5 -127.5t88.5 -41.5
q45 0 74 24.5t34 68.5z" />
    <glyph glyph-name="Cdotaccent" unicode="&#x10a;" horiz-adv-x="666" 
d="M426 750h-151v149h151v-149zM633 475h-145q-3 45 -37 79.5t-101 34.5q-82 0 -125.5 -61.5t-43.5 -181.5q0 -113 45.5 -174t125.5 -61q73 0 106.5 40t33.5 79h144q-3 -44 -20.5 -85t-49.5 -77t-86 -57.5t-124 -21.5q-74 0 -132 24t-92.5 61t-57 86.5t-31 95t-8.5 92.5
q0 67 17.5 128.5t53.5 115.5t101 86.5t151 32.5q74 0 130.5 -24t86.5 -61.5t44 -76t14 -74.5z" />
    <glyph glyph-name="cdotaccent" unicode="&#x10b;" horiz-adv-x="563" 
d="M360 598h-151v149h151v-149zM398 198h138q-9 -93 -71 -149t-172 -56q-118 0 -190.5 72t-72.5 205q0 139 72 212t189 73q104 0 169 -54t76 -155h-138q-5 45 -32.5 71t-72.5 26q-57 0 -90.5 -41.5t-33.5 -127.5t32.5 -127.5t88.5 -41.5q45 0 74 24.5t34 68.5z" />
    <glyph glyph-name="Ccaron" unicode="&#x10c;" horiz-adv-x="666" 
d="M285 750l-129 166h132l57 -77l57 77h132l-129 -166h-120zM633 475h-145q-3 45 -37 79.5t-101 34.5q-82 0 -125.5 -61.5t-43.5 -181.5q0 -113 45.5 -174t125.5 -61q73 0 106.5 40t33.5 79h144q-3 -44 -20.5 -85t-49.5 -77t-86 -57.5t-124 -21.5q-74 0 -132 24t-92.5 61
t-57 86.5t-31 95t-8.5 92.5q0 67 17.5 128.5t53.5 115.5t101 86.5t151 32.5q74 0 130.5 -24t86.5 -61.5t44 -76t14 -74.5z" />
    <glyph glyph-name="ccaron" unicode="&#x10d;" horiz-adv-x="563" 
d="M231 598l-129 166h132l57 -77l57 77h132l-129 -166h-120zM398 198h138q-9 -93 -71 -149t-172 -56q-118 0 -190.5 72t-72.5 205q0 139 72 212t189 73q104 0 169 -54t76 -155h-138q-5 45 -32.5 71t-72.5 26q-57 0 -90.5 -41.5t-33.5 -127.5t32.5 -127.5t88.5 -41.5
q45 0 74 24.5t34 68.5z" />
    <glyph glyph-name="Dcaron" unicode="&#x10e;" horiz-adv-x="685" 
d="M270 750l-129 166h132l57 -77l57 77h132l-129 -166h-120zM60 700h292q63 0 116.5 -19.5t96 -59t66.5 -106.5t24 -155q0 -158 -80 -255q-40 -49 -104.5 -77t-143.5 -28h-267v700zM198 118h121q36 0 67 10.5t61 35.5t47.5 74t17.5 117q0 227 -193 227h-121v-464z" />
    <glyph glyph-name="dcaron" unicode="&#x10f;" horiz-adv-x="867" 
d="M555 0h-135v55q-21 -29 -62 -45.5t-87 -16.5q-110 0 -175.5 74t-65.5 207q0 130 66 205.5t179 75.5q44 0 82.5 -18t62.5 -48v251h135v-740zM812 700v-146q0 -17 -1 -28t-7 -29t-17.5 -29t-34 -19.5t-54.5 -8.5h-27v61q26 0 35.5 5t9.5 23v23h-52v148h148zM294 443
q-57 0 -91.5 -41.5t-34.5 -127.5t34.5 -127.5t91.5 -41.5q61 0 95 36t34 133t-34 133t-95 36z" />
    <glyph glyph-name="Dcroat" unicode="&#x110;" horiz-adv-x="722" 
d="M92 700h292q63 0 116.5 -19.5t96 -59t66.5 -106.5t24 -155q0 -158 -80 -255q-40 -49 -104.5 -77t-143.5 -28h-267v290h-67v125h67v285zM230 118h121q36 0 67 10.5t61 35.5t47.5 74t17.5 117q0 227 -193 227h-121v-167h173v-125h-173v-172z" />
    <glyph glyph-name="dcroat" unicode="&#x111;" horiz-adv-x="610" 
d="M555 0h-135v55q-21 -29 -62 -45.5t-87 -16.5q-110 0 -175.5 74t-65.5 207q0 130 66 205.5t179 75.5q44 0 82.5 -18t62.5 -48v107h-127v75h127v69h135v-69h49v-75h-49v-596zM294 443q-57 0 -91.5 -41.5t-34.5 -127.5t34.5 -127.5t91.5 -41.5q58 0 93.5 41.5t35.5 127.5
t-35.5 127.5t-93.5 41.5z" />
    <glyph glyph-name="Emacron" unicode="&#x112;" horiz-adv-x="603" 
d="M467 752h-331v100h331v-100zM553 0h-493v700h483v-123h-345v-162h321v-125h-321v-167h355v-123z" />
    <glyph glyph-name="emacron" unicode="&#x113;" horiz-adv-x="580" 
d="M455 600h-331v100h331v-100zM404 183l137 -3q-12 -85 -75.5 -136t-168.5 -51q-119 0 -192.5 71.5t-73.5 206.5t74.5 209.5t191.5 74.5q120 0 186 -78.5t66 -204.5v-29h-378q0 -56 28.5 -97t95.5 -41q42 0 71.5 20.5t37.5 57.5zM176 340h230q-4 54 -34 79t-76 25
q-49 0 -82 -28t-38 -76z" />
    <glyph glyph-name="Ebreve" unicode="&#x114;" horiz-adv-x="603" 
d="M143 914h104q0 -42 13.5 -62.5t45.5 -20.5t45.5 20.5t13.5 62.5h104q0 -74 -38.5 -124.5t-124.5 -50.5t-124.5 50.5t-38.5 124.5zM553 0h-493v700h483v-123h-345v-162h321v-125h-321v-167h355v-123z" />
    <glyph glyph-name="ebreve" unicode="&#x115;" horiz-adv-x="580" 
d="M137 762h104q0 -42 13.5 -62.5t45.5 -20.5t45.5 20.5t13.5 62.5h104q0 -74 -38.5 -124.5t-124.5 -50.5t-124.5 50.5t-38.5 124.5zM404 183l137 -3q-12 -85 -75.5 -136t-168.5 -51q-119 0 -192.5 71.5t-73.5 206.5t74.5 209.5t191.5 74.5q120 0 186 -78.5t66 -204.5v-29
h-378q0 -56 28.5 -97t95.5 -41q42 0 71.5 20.5t37.5 57.5zM176 340h230q-4 54 -34 79t-76 25q-49 0 -82 -28t-38 -76z" />
    <glyph glyph-name="Edotaccent" unicode="&#x116;" horiz-adv-x="603" 
d="M383 750h-151v149h151v-149zM553 0h-493v700h483v-123h-345v-162h321v-125h-321v-167h355v-123z" />
    <glyph glyph-name="edotaccent" unicode="&#x117;" horiz-adv-x="580" 
d="M367 598h-151v149h151v-149zM404 183l137 -3q-12 -85 -75.5 -136t-168.5 -51q-119 0 -192.5 71.5t-73.5 206.5t74.5 209.5t191.5 74.5q120 0 186 -78.5t66 -204.5v-29h-378q0 -56 28.5 -97t95.5 -41q42 0 71.5 20.5t37.5 57.5zM176 340h230q-4 54 -34 79t-76 25
q-49 0 -82 -28t-38 -76z" />
    <glyph glyph-name="Eogonek" unicode="&#x118;" horiz-adv-x="593" 
d="M553 123v-123q-52 -10 -77 -31.5t-25 -44.5q0 -40 60 -40q37 0 55 5l-11 -71l-22 -3q-24 -2 -40 -2q-67 0 -99 28t-32 71q0 56 53 88h-355v700h483v-123h-345v-162h321v-125h-321v-167h355z" />
    <glyph glyph-name="eogonek" unicode="&#x119;" horiz-adv-x="580" 
d="M404 183l137 -3q-12 -70 -57 -117.5t-120 -62.5q-74 -35 -74 -76q0 -40 60 -40q37 0 55 5l-11 -71l-22 -3q-24 -2 -40 -2q-67 0 -99 28t-32 71q0 52 45 85q-98 8 -156.5 80.5t-58.5 193.5q0 135 74.5 209.5t191.5 74.5q120 0 186 -78.5t66 -204.5v-29h-378q0 -21 6 -42.5
t19 -44t39 -37t61 -14.5q42 0 71 20t37 58zM176 340h230q-4 54 -34 79t-76 25q-49 0 -82 -28t-38 -76z" />
    <glyph glyph-name="Ecaron" unicode="&#x11a;" horiz-adv-x="603" 
d="M240 750l-129 166h132l57 -77l57 77h132l-129 -166h-120zM553 0h-493v700h483v-123h-345v-162h321v-125h-321v-167h355v-123z" />
    <glyph glyph-name="ecaron" unicode="&#x11b;" horiz-adv-x="580" 
d="M234 598l-129 166h132l57 -77l57 77h132l-129 -166h-120zM404 183l137 -3q-12 -85 -75.5 -136t-168.5 -51q-119 0 -192.5 71.5t-73.5 206.5t74.5 209.5t191.5 74.5q120 0 186 -78.5t66 -204.5v-29h-378q0 -56 28.5 -97t95.5 -41q42 0 71.5 20.5t37.5 57.5zM176 340h230
q-4 54 -34 79t-76 25q-49 0 -82 -28t-38 -76z" />
    <glyph glyph-name="Gcircumflex" unicode="&#x11c;" horiz-adv-x="708" 
d="M169 750l129 166h120l129 -166h-132l-57 77l-57 -77h-132zM638 475h-144q-3 45 -36 79.5t-100 34.5q-83 0 -130 -63t-47 -182q0 -45 8.5 -84t27.5 -74t55 -55t86 -20q48 0 82.5 15t51.5 39.5t25 47t9 46.5h-167v120h299v-379h-125v76q-29 -42 -78.5 -64.5t-107.5 -22.5
q-78 0 -139 28.5t-98 78.5t-56 112.5t-19 135.5q0 52 10.5 102.5t35.5 99t61.5 84.5t94 58.5t127.5 22.5q74 0 130.5 -24t86 -61.5t43.5 -76t14 -74.5z" />
    <glyph glyph-name="gcircumflex" unicode="&#x11d;" horiz-adv-x="599" 
d="M116 598l129 166h120l129 -166h-132l-57 77l-57 -77h-132zM412 16v70q-47 -63 -158 -63q-25 0 -51.5 6t-58.5 24t-56.5 46t-41 76t-16.5 109q0 132 70 201.5t162 69.5q104 0 151 -65v58h134v-539q0 -41 -13 -76.5t-41 -66t-79 -48t-121 -17.5q-74 0 -126 17.5t-77.5 47
t-36.5 58.5t-12 62h138q0 -10 3.5 -20.5t13.5 -24.5t34 -23t59 -9q63 0 93 24.5t30 82.5zM166 284q0 -83 36 -121t88 -38t87.5 38t35.5 121t-35.5 121t-87.5 38t-88 -38t-36 -121z" />
    <glyph glyph-name="Gbreve" unicode="&#x11e;" horiz-adv-x="708" 
d="M194 914h104q0 -42 13.5 -62.5t45.5 -20.5t45.5 20.5t13.5 62.5h104q0 -74 -38.5 -124.5t-124.5 -50.5t-124.5 50.5t-38.5 124.5zM638 475h-144q-3 45 -36 79.5t-100 34.5q-83 0 -130 -63t-47 -182q0 -45 8.5 -84t27.5 -74t55 -55t86 -20q48 0 82.5 15t51.5 39.5t25 47
t9 46.5h-167v120h299v-379h-125v76q-29 -42 -78.5 -64.5t-107.5 -22.5q-78 0 -139 28.5t-98 78.5t-56 112.5t-19 135.5q0 52 10.5 102.5t35.5 99t61.5 84.5t94 58.5t127.5 22.5q74 0 130.5 -24t86 -61.5t43.5 -76t14 -74.5z" />
    <glyph glyph-name="gbreve" unicode="&#x11f;" horiz-adv-x="599" 
d="M126 762h104q0 -42 13.5 -62.5t45.5 -20.5t45.5 20.5t13.5 62.5h104q0 -74 -38.5 -124.5t-124.5 -50.5t-124.5 50.5t-38.5 124.5zM412 16v70q-47 -63 -158 -63q-25 0 -51.5 6t-58.5 24t-56.5 46t-41 76t-16.5 109q0 132 70 201.5t162 69.5q104 0 151 -65v58h134v-539
q0 -41 -13 -76.5t-41 -66t-79 -48t-121 -17.5q-74 0 -126 17.5t-77.5 47t-36.5 58.5t-12 62h138q0 -10 3.5 -20.5t13.5 -24.5t34 -23t59 -9q63 0 93 24.5t30 82.5zM166 284q0 -83 36 -121t88 -38t87.5 38t35.5 121t-35.5 121t-87.5 38t-88 -38t-36 -121z" />
    <glyph glyph-name="Gdotaccent" unicode="&#x120;" horiz-adv-x="708" 
d="M438 750h-151v149h151v-149zM638 475h-144q-3 45 -36 79.5t-100 34.5q-83 0 -130 -63t-47 -182q0 -45 8.5 -84t27.5 -74t55 -55t86 -20q48 0 82.5 15t51.5 39.5t25 47t9 46.5h-167v120h299v-379h-125v76q-29 -42 -78.5 -64.5t-107.5 -22.5q-78 0 -139 28.5t-98 78.5
t-56 112.5t-19 135.5q0 52 10.5 102.5t35.5 99t61.5 84.5t94 58.5t127.5 22.5q74 0 130.5 -24t86 -61.5t43.5 -76t14 -74.5z" />
    <glyph glyph-name="gdotaccent" unicode="&#x121;" horiz-adv-x="599" 
d="M367 598h-151v149h151v-149zM412 16v70q-47 -63 -158 -63q-25 0 -51.5 6t-58.5 24t-56.5 46t-41 76t-16.5 109q0 132 70 201.5t162 69.5q104 0 151 -65v58h134v-539q0 -41 -13 -76.5t-41 -66t-79 -48t-121 -17.5q-74 0 -126 17.5t-77.5 47t-36.5 58.5t-12 62h138
q0 -10 3.5 -20.5t13.5 -24.5t34 -23t59 -9q63 0 93 24.5t30 82.5zM166 284q0 -83 36 -121t88 -38t87.5 38t35.5 121t-35.5 121t-87.5 38t-88 -38t-36 -121z" />
    <glyph glyph-name="Gcommaaccent" unicode="&#x122;" horiz-adv-x="708" 
d="M638 475h-144q-3 45 -36 79.5t-100 34.5q-83 0 -130 -63t-47 -182q0 -45 8.5 -84t27.5 -74t55 -55t86 -20q48 0 82.5 15t51.5 39.5t25 47t9 46.5h-167v120h299v-379h-125v76q-29 -42 -78.5 -64.5t-107.5 -22.5q-78 0 -139 28.5t-98 78.5t-56 112.5t-19 135.5
q0 52 10.5 102.5t35.5 99t61.5 84.5t94 58.5t127.5 22.5q74 0 130.5 -24t86 -61.5t43.5 -76t14 -74.5zM433 -58v-146q0 -17 -1 -28t-7 -29t-17.5 -29t-34 -19.5t-54.5 -8.5h-27v61q26 0 35.5 5t9.5 23v23h-52v148h148z" />
    <glyph glyph-name="gcommaaccent" unicode="&#x123;" horiz-adv-x="599" 
d="M214 592v146q0 17 1 28t7 29t17.5 29t34 19.5t54.5 8.5h27v-61q-26 0 -35.5 -5t-9.5 -23v-23h52v-148h-148zM412 16v70q-47 -63 -158 -63q-25 0 -51.5 6t-58.5 24t-56.5 46t-41 76t-16.5 109q0 132 70 201.5t162 69.5q104 0 151 -65v58h134v-539q0 -41 -13 -76.5t-41 -66
t-79 -48t-121 -17.5q-74 0 -126 17.5t-77.5 47t-36.5 58.5t-12 62h138q0 -10 3.5 -20.5t13.5 -24.5t34 -23t59 -9q63 0 93 24.5t30 82.5zM166 284q0 -83 36 -121t88 -38t87.5 38t35.5 121t-35.5 121t-87.5 38t-88 -38t-36 -121z" />
    <glyph glyph-name="Hcircumflex" unicode="&#x124;" horiz-adv-x="691" 
d="M156 750l129 166h120l129 -166h-132l-57 77l-57 -77h-132zM631 0h-137v290h-296v-290h-138v700h138v-285h296v285h137v-700z" />
    <glyph glyph-name="hcircumflex" unicode="&#x125;" horiz-adv-x="594" 
d="M113 780l129 166h120l129 -166h-132l-57 77l-57 -77h-132zM538 0h-135v340q0 48 -25 74t-70 26q-53 0 -85.5 -33.5t-32.5 -97.5v-309h-135v740h135v-250q61 65 154 65q92 0 143 -48t51 -132v-375z" />
    <glyph glyph-name="Hbar" unicode="&#x126;" horiz-adv-x="761" 
d="M666 0h-137v290h-296v-290h-138v538h-70v95h70v67h138v-67h296v67h137v-67h70v-95h-70v-538zM233 415h296v123h-296v-123z" />
    <glyph glyph-name="hbar" unicode="&#x127;" horiz-adv-x="643" 
d="M240 309v-309h-135v596h-50v75h50v69h135v-69h126v-75h-126v-95q54 54 151 54q92 0 144.5 -48t52.5 -132v-375h-135v340q0 48 -25 74t-70 26q-53 0 -85.5 -33.5t-32.5 -97.5z" />
    <glyph glyph-name="Itilde" unicode="&#x128;" 
d="M42 752h-105q0 60 33 102.5t92 42.5q31 0 78 -19t55 -19q15 0 21 8t6 29h101q0 -143 -114 -143q-28 0 -74.5 18.5t-57.5 18.5q-35 0 -35 -38zM198 0h-138v700h138v-700z" />
    <glyph glyph-name="itilde" unicode="&#x129;" horiz-adv-x="245" 
d="M36 600h-105q0 60 33 102.5t92 42.5q31 0 78 -19t55 -19q15 0 21 8t6 29h101q0 -143 -114 -143q-28 0 -74.5 18.5t-57.5 18.5q-35 0 -35 -38zM190 0h-135v548h135v-548z" />
    <glyph glyph-name="Imacron" unicode="&#x12a;" 
d="M296 752h-331v100h331v-100zM198 0h-138v700h138v-700z" />
    <glyph glyph-name="imacron" unicode="&#x12b;" horiz-adv-x="245" 
d="M289 600h-331v100h331v-100zM190 0h-135v548h135v-548z" />
    <glyph glyph-name="Ibreve" unicode="&#x12c;" 
d="M-33 914h104q0 -42 13.5 -62.5t45.5 -20.5t45.5 20.5t13.5 62.5h104q0 -74 -38.5 -124.5t-124.5 -50.5t-124.5 50.5t-38.5 124.5zM198 0h-138v700h138v-700z" />
    <glyph glyph-name="ibreve" unicode="&#x12d;" horiz-adv-x="245" 
d="M-39 762h104q0 -42 13.5 -62.5t45.5 -20.5t45.5 20.5t13.5 62.5h104q0 -74 -38.5 -124.5t-124.5 -50.5t-124.5 50.5t-38.5 124.5zM190 0h-135v548h135v-548z" />
    <glyph glyph-name="Iogonek" unicode="&#x12e;" 
d="M198 700v-700q-31 -5 -62 -25t-31 -49q0 -42 60 -42q37 0 55 5l-11 -71l-22 -3q-24 -2 -40 -2q-67 0 -99 28t-32 71q0 57 44 88v700h138z" />
    <glyph glyph-name="iogonek" unicode="&#x12f;" horiz-adv-x="245" 
d="M190 611h-135v129h135v-129zM55 0v548h135v-548q-42 -8 -65.5 -29.5t-23.5 -43.5q0 -43 60 -43q37 0 55 5l-11 -71l-22 -3q-24 -2 -40 -2q-67 0 -99 28t-32 71q0 55 43 88z" />
    <glyph glyph-name="Idotaccent" unicode="&#x130;" 
d="M206 750h-151v149h151v-149zM198 0h-138v700h138v-700z" />
    <glyph glyph-name="dotlessi" unicode="&#x131;" horiz-adv-x="245" 
d="M190 0h-135v548h135v-548z" />
    <glyph glyph-name="IJ" unicode="&#x132;" horiz-adv-x="636" 
d="M198 0h-138v700h138v-700zM581 700v-529q0 -97 -41.5 -135t-125.5 -38q-85 0 -111 7v117l25 -3q30 -2 57 -2q34 0 46 10.5t12 42.5v530h138z" />
    <glyph glyph-name="ij" unicode="&#x133;" horiz-adv-x="480" 
d="M190 611h-135v129h135v-129zM425 611h-135v129h135v-129zM190 0h-135v548h135v-548zM203 -189v115q9 -1 39 -1q26 0 37 7.5t11 30.5v585h135v-599q0 -77 -36 -109t-128 -32q-27 0 -38 1z" />
    <glyph glyph-name="Jcircumflex" unicode="&#x134;" horiz-adv-x="358" 
d="M42 750l129 166h120l129 -166h-132l-57 77l-57 -77h-132zM303 700v-529q0 -97 -41.5 -135t-125.5 -38q-85 0 -111 7v117l25 -3q30 -2 57 -2q34 0 46 10.5t12 42.5v530h138z" />
    <glyph glyph-name="jcircumflex" unicode="&#x135;" horiz-adv-x="245" 
d="M-65 598l129 166h120l129 -166h-132l-57 77l-57 -77h-132zM-32 -189v116q18 -2 39 -2q26 0 37 7.5t11 30.5v585h135v-599q0 -77 -36 -109t-128 -32q-27 0 -38 1z" />
    <glyph glyph-name="Kcommaaccent" unicode="&#x136;" horiz-adv-x="658" 
d="M482 0l-197 295l-87 -101v-194h-138v700h138v-321l270 321h165l-258 -299l273 -401h-166zM398 -58v-146q0 -17 -1 -28t-7 -29t-17.5 -29t-34 -19.5t-54.5 -8.5h-27v61q26 0 35.5 5t9.5 23v23h-52v148h148z" />
    <glyph glyph-name="kcommaaccent" unicode="&#x137;" horiz-adv-x="588" 
d="M399 548h169l-203 -209l213 -339h-159l-150 246l-79 -85v-161h-135v740h135v-414zM379 -58v-146q0 -17 -1 -28t-7 -29t-17.5 -29t-34 -19.5t-54.5 -8.5h-27v61q26 0 35.5 5t9.5 23v23h-52v148h148z" />
    <glyph glyph-name="kgreenlandic" unicode="&#x138;" horiz-adv-x="595" 
d="M406 548h172l-215 -235l227 -313h-162l-159 222l-79 -92v-130h-135v548h135v-241z" />
    <glyph glyph-name="Lacute" unicode="&#x139;" horiz-adv-x="581" 
d="M411 916l-141 -166h-129l113 166h157zM541 0h-481v700h138v-577h343v-123z" />
    <glyph glyph-name="lacute" unicode="&#x13a;" horiz-adv-x="245" 
d="M260 946l-141 -166h-129l113 166h157zM190 0h-135v740h135v-740z" />
    <glyph glyph-name="Lcommaaccent" unicode="&#x13b;" horiz-adv-x="581" 
d="M541 0h-481v700h138v-577h343v-123zM370 -58v-146q0 -17 -1 -28t-7 -29t-17.5 -29t-34 -19.5t-54.5 -8.5h-27v61q26 0 35.5 5t9.5 23v23h-52v148h148z" />
    <glyph glyph-name="lcommaaccent" unicode="&#x13c;" 
d="M196 0h-135v740h135v-740zM203 -58v-146q0 -17 -1 -28t-7 -29t-17.5 -29t-34 -19.5t-54.5 -8.5h-27v61q26 0 35.5 5t9.5 23v23h-52v148h148z" />
    <glyph glyph-name="Lcaron" unicode="&#x13d;" horiz-adv-x="581" 
d="M541 0h-481v700h138v-577h343v-123zM476 700v-146q0 -17 -1 -28t-7 -29t-17.5 -29t-34 -19.5t-54.5 -8.5h-27v61q26 0 35.5 5t9.5 23v23h-52v148h148z" />
    <glyph glyph-name="lcaron" unicode="&#x13e;" horiz-adv-x="503" 
d="M190 0h-135v740h135v-740zM448 700v-146q0 -17 -1 -28t-7 -29t-17.5 -29t-34 -19.5t-54.5 -8.5h-27v61q26 0 35.5 5t9.5 23v23h-52v148h148z" />
    <glyph glyph-name="Ldot" unicode="&#x13f;" horiz-adv-x="581" 
d="M541 0h-481v700h138v-577h343v-123zM469 308h-148v150h148v-150z" />
    <glyph glyph-name="ldot" unicode="&#x140;" horiz-adv-x="503" 
d="M190 0h-135v740h135v-740zM448 278h-148v150h148v-150z" />
    <glyph glyph-name="Lslash" unicode="&#x141;" horiz-adv-x="641" 
d="M258 431l162 48v-106l-162 -48v-202h343v-123h-481v285l-65 -18v106l65 18v309h138v-269z" />
    <glyph glyph-name="lslash" unicode="&#x142;" horiz-adv-x="375" 
d="M255 0h-135v285l-65 -18v106l65 18v349h135v-310l65 19v-106l-65 -19v-324z" />
    <glyph glyph-name="Nacute" unicode="&#x143;" horiz-adv-x="691" 
d="M523 916l-141 -166h-129l113 166h157zM631 0h-168l-265 492v-492h-138v700h175l259 -488v488h137v-700z" />
    <glyph glyph-name="nacute" unicode="&#x144;" horiz-adv-x="590" 
d="M474 764l-141 -166h-129l113 166h157zM538 0h-135v340q0 48 -25 74t-70 26q-53 0 -85.5 -33.5t-32.5 -97.5v-309h-135v548h133v-58q54 65 156 65q92 0 143 -48t51 -132v-375z" />
    <glyph glyph-name="Ncommaaccent" unicode="&#x145;" horiz-adv-x="691" 
d="M631 0h-168l-265 492v-492h-138v700h175l259 -488v488h137v-700zM415 -58v-146q0 -17 -1 -28t-7 -29t-17.5 -29t-34 -19.5t-54.5 -8.5h-27v61q26 0 35.5 5t9.5 23v23h-52v148h148z" />
    <glyph glyph-name="ncommaaccent" unicode="&#x146;" horiz-adv-x="590" 
d="M538 0h-135v340q0 48 -25 74t-70 26q-53 0 -85.5 -33.5t-32.5 -97.5v-309h-135v548h133v-58q54 65 156 65q92 0 143 -48t51 -132v-375zM370 -58v-146q0 -17 -1 -28t-7 -29t-17.5 -29t-34 -19.5t-54.5 -8.5h-27v61q26 0 35.5 5t9.5 23v23h-52v148h148z" />
    <glyph glyph-name="Ncaron" unicode="&#x147;" horiz-adv-x="691" 
d="M281 750l-129 166h132l57 -77l57 77h132l-129 -166h-120zM631 0h-168l-265 492v-492h-138v700h175l259 -488v488h137v-700z" />
    <glyph glyph-name="ncaron" unicode="&#x148;" horiz-adv-x="590" 
d="M246 598l-129 166h132l57 -77l57 77h132l-129 -166h-120zM538 0h-135v340q0 48 -25 74t-70 26q-53 0 -85.5 -33.5t-32.5 -97.5v-309h-135v548h133v-58q54 65 156 65q92 0 143 -48t51 -132v-375z" />
    <glyph glyph-name="napostrophe" unicode="&#x149;" horiz-adv-x="590" 
d="M203 858v-146q0 -17 -1 -28t-7 -29t-17.5 -29t-34 -19.5t-54.5 -8.5h-27v61q26 0 35.5 5t9.5 23v23h-52v148h148zM538 0h-135v340q0 48 -25 74t-70 26q-53 0 -85.5 -33.5t-32.5 -97.5v-309h-135v548h133v-58q54 65 156 65q92 0 143 -48t51 -132v-375z" />
    <glyph glyph-name="Eng" unicode="&#x14a;" horiz-adv-x="691" 
d="M486 -9l-288 511v-502h-138v700h175l259 -467v467h137v-719q0 -96 -44.5 -134.5t-129.5 -38.5t-111 7v117l25 -3q30 -2 57 -2q37 0 47.5 14t10.5 50z" />
    <glyph glyph-name="eng" unicode="&#x14b;" horiz-adv-x="593" 
d="M538 375v-426q0 -77 -36 -109t-128 -32q-27 0 -38 1l-20 2v116q18 -2 39 -2q26 0 37 7.5t11 30.5v377q0 48 -25 74t-70 26q-53 0 -85.5 -33.5t-32.5 -97.5v-309h-135v548h135v-47q54 54 151 54q92 0 144.5 -48t52.5 -132z" />
    <glyph glyph-name="Omacron" unicode="&#x14c;" horiz-adv-x="704" 
d="M517 752h-331v100h331v-100zM669 349q0 -167 -89.5 -263.5t-227.5 -96.5t-227.5 96.5t-89.5 263.5t89.5 264.5t227.5 97.5q137 0 227 -97.5t90 -264.5zM523 349q0 116 -45 178t-126 62q-82 0 -126.5 -62t-44.5 -178q0 -111 45 -174.5t126 -63.5q80 0 125.5 63.5
t45.5 174.5z" />
    <glyph glyph-name="omacron" unicode="&#x14d;" horiz-adv-x="586" 
d="M448 600h-331v100h331v-100zM293 -7q-119 0 -191 72.5t-72 208.5t72 208.5t191 72.5t191 -72.5t72 -208.5t-72 -208.5t-191 -72.5zM293 443q-57 0 -91 -41.5t-34 -127.5t34 -127.5t91 -41.5t91 41.5t34 127.5t-34 127.5t-91 41.5z" />
    <glyph glyph-name="Obreve" unicode="&#x14e;" horiz-adv-x="704" 
d="M189 914h104q0 -42 13.5 -62.5t45.5 -20.5t45.5 20.5t13.5 62.5h104q0 -74 -38.5 -124.5t-124.5 -50.5t-124.5 50.5t-38.5 124.5zM669 349q0 -167 -89.5 -263.5t-227.5 -96.5t-227.5 96.5t-89.5 263.5t89.5 264.5t227.5 97.5q137 0 227 -97.5t90 -264.5zM523 349
q0 116 -45 178t-126 62q-82 0 -126.5 -62t-44.5 -178q0 -111 45 -174.5t126 -63.5q80 0 125.5 63.5t45.5 174.5z" />
    <glyph glyph-name="obreve" unicode="&#x14f;" horiz-adv-x="586" 
d="M130 762h104q0 -42 13.5 -62.5t45.5 -20.5t45.5 20.5t13.5 62.5h104q0 -74 -38.5 -124.5t-124.5 -50.5t-124.5 50.5t-38.5 124.5zM293 -7q-119 0 -191 72.5t-72 208.5t72 208.5t191 72.5t191 -72.5t72 -208.5t-72 -208.5t-191 -72.5zM293 443q-57 0 -91 -41.5t-34 -127.5
t34 -127.5t91 -41.5t91 41.5t34 127.5t-34 127.5t-91 41.5z" />
    <glyph glyph-name="Ohungarumlaut" unicode="&#x150;" horiz-adv-x="704" 
d="M433 916l-141 -166h-129l113 166h157zM643 916l-141 -166h-129l113 166h157zM669 349q0 -167 -89.5 -263.5t-227.5 -96.5t-227.5 96.5t-89.5 263.5t89.5 264.5t227.5 97.5q137 0 227 -97.5t90 -264.5zM523 349q0 116 -45 178t-126 62q-82 0 -126.5 -62t-44.5 -178
q0 -111 45 -174.5t126 -63.5q80 0 125.5 63.5t45.5 174.5z" />
    <glyph glyph-name="ohungarumlaut" unicode="&#x151;" horiz-adv-x="586" 
d="M361 764l-141 -166h-129l113 166h157zM571 764l-141 -166h-129l113 166h157zM293 -7q-119 0 -191 72.5t-72 208.5t72 208.5t191 72.5t191 -72.5t72 -208.5t-72 -208.5t-191 -72.5zM293 443q-57 0 -91 -41.5t-34 -127.5t34 -127.5t91 -41.5t91 41.5t34 127.5t-34 127.5
t-91 41.5z" />
    <glyph glyph-name="OE" unicode="&#x152;" horiz-adv-x="1053" 
d="M1013 0h-493v65q-66 -72 -186 -72q-139 0 -216 89q-83 96 -83 267q0 165 85.5 261.5t222.5 96.5q113 0 177 -67v60h483v-123h-345v-162h316v-125h-316v-167h355v-123zM523 349q0 120 -44.5 179t-126.5 59q-81 0 -126 -62t-45 -176q0 -115 43 -175.5t124 -60.5
q82 0 128.5 61t46.5 175z" />
    <glyph glyph-name="oe" unicode="&#x153;" horiz-adv-x="967" 
d="M791 183l137 -3q-12 -85 -75.5 -136t-168.5 -51q-139 0 -204 80q-75 -80 -190 -80q-119 0 -189.5 72.5t-70.5 208.5t71 208.5t189 72.5q134 0 198 -88q75 88 195 88q122 0 187.5 -78t65.5 -205v-29h-378q0 -56 28 -97t95 -41q42 0 72 20.5t38 57.5zM561 340h230
q-4 54 -34 79t-76 25q-49 0 -82 -28t-38 -76zM293 443q-57 0 -91 -41.5t-34 -127.5t34 -127.5t91 -41.5t91 41.5t34 127.5t-34 127.5t-91 41.5z" />
    <glyph glyph-name="Racute" unicode="&#x154;" horiz-adv-x="644" 
d="M485 916l-141 -166h-129l113 166h157zM60 700h316q106 0 164 -55t58 -136q0 -122 -110 -170q93 -25 97 -127q5 -129 8 -155q6 -41 16 -57h-147q-7 25 -9 56.5t-2 73t-2 66.5q-3 39 -27 60.5t-66 21.5h-158v-278h-138v700zM198 392h133q55 0 92.5 23t37.5 73q0 95 -110 95
h-153v-191z" />
    <glyph glyph-name="racute" unicode="&#x155;" horiz-adv-x="397" 
d="M387 764l-141 -166h-129l113 166h157zM367 412h-38q-139 0 -139 -120v-292h-135v548h130v-81q40 81 142 81h40v-136z" />
    <glyph glyph-name="Rcommaaccent" unicode="&#x156;" horiz-adv-x="644" 
d="M60 700h316q106 0 164 -55t58 -136q0 -122 -110 -170q93 -25 97 -127q5 -129 8 -155q6 -41 16 -57h-147q-7 25 -9 56.5t-2 73t-2 66.5q-3 39 -27 60.5t-66 21.5h-158v-278h-138v700zM198 392h133q55 0 92.5 23t37.5 73q0 95 -110 95h-153v-191zM392 -58v-146
q0 -17 -1 -28t-7 -29t-17.5 -29t-34 -19.5t-54.5 -8.5h-27v61q26 0 35.5 5t9.5 23v23h-52v148h148z" />
    <glyph glyph-name="rcommaaccent" unicode="&#x157;" horiz-adv-x="377" 
d="M367 412h-38q-139 0 -139 -120v-292h-135v548h130v-81q40 81 142 81h40v-136zM197 -58v-146q0 -17 -1 -28t-7 -29t-17.5 -29t-34 -19.5t-54.5 -8.5h-27v61q26 0 35.5 5t9.5 23v23h-52v148h148z" />
    <glyph glyph-name="Rcaron" unicode="&#x158;" horiz-adv-x="644" 
d="M249 750l-129 166h132l57 -77l57 77h132l-129 -166h-120zM60 700h316q106 0 164 -55t58 -136q0 -122 -110 -170q93 -25 97 -127q5 -129 8 -155q6 -41 16 -57h-147q-7 25 -9 56.5t-2 73t-2 66.5q-3 39 -27 60.5t-66 21.5h-158v-278h-138v700zM198 392h133q55 0 92.5 23
t37.5 73q0 95 -110 95h-153v-191z" />
    <glyph glyph-name="rcaron" unicode="&#x159;" horiz-adv-x="377" 
d="M145 598l-129 166h132l57 -77l57 77h132l-129 -166h-120zM367 412h-38q-139 0 -139 -120v-292h-135v548h130v-81q40 81 142 81h40v-136z" />
    <glyph glyph-name="Sacute" unicode="&#x15a;" horiz-adv-x="613" 
d="M498 916l-141 -166h-129l113 166h157zM576 492h-142q-3 22 -6.5 34t-15.5 31.5t-39 29.5t-68 10q-59 0 -89.5 -22t-30.5 -61q0 -37 31 -58t72 -27.5t99.5 -19.5t96.5 -32q104 -49 104 -160q0 -113 -76 -170.5t-210 -57.5q-121 0 -195.5 59t-76.5 173h143q0 -115 135 -115
q141 0 141 95q0 32 -25 51t-66 27t-86 15t-93 23t-78 43q-59 52 -59 144q0 98 75 152.5t183 54.5q117 0 192.5 -51t83.5 -168z" />
    <glyph glyph-name="sacute" unicode="&#x15b;" horiz-adv-x="539" 
d="M444 764l-141 -166h-129l113 166h157zM494 387h-133q0 64 -96 64q-35 0 -62 -12.5t-27 -42.5q0 -33 38 -44q12 -4 95 -16.5t123 -33.5q77 -41 77 -128q0 -181 -245 -181q-59 0 -103 12.5t-68.5 31t-39 44.5t-19 47.5t-4.5 45.5h133q0 -74 108 -74q101 0 101 61
q0 15 -8 25.5t-27.5 17t-34.5 9t-45 6.5q-60 7 -96 18q-120 35 -120 150q0 79 65 123.5t163 44.5q58 0 102 -14t66.5 -33t36 -45t17 -43t3.5 -33z" />
    <glyph glyph-name="Scircumflex" unicode="&#x15c;" horiz-adv-x="613" 
d="M120 750l129 166h120l129 -166h-132l-57 77l-57 -77h-132zM576 492h-142q-3 22 -6.5 34t-15.5 31.5t-39 29.5t-68 10q-59 0 -89.5 -22t-30.5 -61q0 -37 31 -58t72 -27.5t99.5 -19.5t96.5 -32q104 -49 104 -160q0 -113 -76 -170.5t-210 -57.5q-121 0 -195.5 59t-76.5 173
h143q0 -115 135 -115q141 0 141 95q0 32 -25 51t-66 27t-86 15t-93 23t-78 43q-59 52 -59 144q0 98 75 152.5t183 54.5q117 0 192.5 -51t83.5 -168z" />
    <glyph glyph-name="scircumflex" unicode="&#x15d;" horiz-adv-x="539" 
d="M92 598l129 166h120l129 -166h-132l-57 77l-57 -77h-132zM494 387h-133q0 64 -96 64q-35 0 -62 -12.5t-27 -42.5q0 -33 38 -44q12 -4 95 -16.5t123 -33.5q77 -41 77 -128q0 -181 -245 -181q-59 0 -103 12.5t-68.5 31t-39 44.5t-19 47.5t-4.5 45.5h133q0 -74 108 -74
q101 0 101 61q0 15 -8 25.5t-27.5 17t-34.5 9t-45 6.5q-60 7 -96 18q-120 35 -120 150q0 79 65 123.5t163 44.5q58 0 102 -14t66.5 -33t36 -45t17 -43t3.5 -33z" />
    <glyph glyph-name="Scedilla" unicode="&#x15e;" horiz-adv-x="613" 
d="M576 492h-142q-3 21 -7 33.5t-16 32t-39.5 29.5t-68.5 10q-59 0 -89.5 -22t-30.5 -61q0 -30 19 -48.5t53 -28t70.5 -16t81.5 -17.5t77 -27q104 -49 104 -160q0 -100 -59.5 -156.5t-166.5 -68.5q61 -21 61 -81q0 -38 -30.5 -69t-99.5 -31q-41 0 -75 8l-27 9l12 63
q42 -14 77 -14q65 0 65 36q0 23 -24 29.5t-87 6.5l14 44q-99 12 -157.5 69.5t-60.5 158.5h143q0 -115 135 -115q141 0 141 95q0 32 -25 51t-66 27t-86 15t-93 23t-78 43q-59 52 -59 144q0 98 75 152.5t183 54.5q117 0 192.5 -51t83.5 -168z" />
    <glyph glyph-name="scedilla" unicode="&#x15f;" horiz-adv-x="539" 
d="M494 387h-133q0 64 -96 64q-35 0 -62 -12.5t-27 -42.5q0 -33 38 -44q12 -4 95 -16.5t123 -33.5q77 -41 77 -128q0 -158 -187 -178q75 -15 75 -85q0 -38 -30.5 -69t-99.5 -31q-41 0 -75 8l-27 9l12 63q42 -14 77 -14q65 0 65 36q0 23 -24 29.5t-87 6.5l15 46
q-60 5 -101 24t-59.5 47.5t-25.5 53.5t-7 54h133q0 -74 108 -74q101 0 101 61q0 15 -8 25.5t-27.5 17t-34.5 9t-45 6.5q-60 7 -96 18q-120 35 -120 150q0 79 65 123.5t163 44.5q58 0 102 -14t66.5 -33t36 -45t17 -43t3.5 -33z" />
    <glyph glyph-name="Scaron" unicode="&#x160;" horiz-adv-x="613" 
d="M249 750l-129 166h132l57 -77l57 77h132l-129 -166h-120zM576 492h-142q-3 22 -6.5 34t-15.5 31.5t-39 29.5t-68 10q-59 0 -89.5 -22t-30.5 -61q0 -37 31 -58t72 -27.5t99.5 -19.5t96.5 -32q104 -49 104 -160q0 -113 -76 -170.5t-210 -57.5q-121 0 -195.5 59t-76.5 173
h143q0 -115 135 -115q141 0 141 95q0 32 -25 51t-66 27t-86 15t-93 23t-78 43q-59 52 -59 144q0 98 75 152.5t183 54.5q117 0 192.5 -51t83.5 -168z" />
    <glyph glyph-name="scaron" unicode="&#x161;" horiz-adv-x="539" 
d="M207 598l-129 166h132l57 -77l57 77h132l-129 -166h-120zM494 387h-133q0 64 -96 64q-35 0 -62 -12.5t-27 -42.5q0 -33 38 -44q12 -4 95 -16.5t123 -33.5q77 -41 77 -128q0 -181 -245 -181q-59 0 -103 12.5t-68.5 31t-39 44.5t-19 47.5t-4.5 45.5h133q0 -74 108 -74
q101 0 101 61q0 15 -8 25.5t-27.5 17t-34.5 9t-45 6.5q-60 7 -96 18q-120 35 -120 150q0 79 65 123.5t163 44.5q58 0 102 -14t66.5 -33t36 -45t17 -43t3.5 -33z" />
    <glyph glyph-name="Tcaron" unicode="&#x164;" horiz-adv-x="600" 
d="M240 750l-129 166h132l57 -77l57 77h132l-129 -166h-120zM575 577h-206v-577h-138v577h-206v123h550v-123z" />
    <glyph glyph-name="tcaron" unicode="&#x165;" horiz-adv-x="371" 
d="M425 858v-146q0 -17 -1 -28t-7 -29t-17.5 -29t-34 -19.5t-54.5 -8.5h-27v61q26 0 35.5 5t9.5 23v23h-52v148h148zM339 116v-114q-4 0 -13.5 -1.5t-15.5 -2.5q-19 -3 -72 -3q-79 0 -112 29.5t-33 98.5v312h-83v113h83v152h135v-152h123v-113h-123v-273q0 -30 10.5 -39
t44.5 -9q27 0 38 1q13 0 18 1z" />
    <glyph glyph-name="Tbar" unicode="&#x166;" horiz-adv-x="600" 
d="M485 290h-116v-290h-138v290h-117v110h117v177h-206v123h550v-123h-206v-177h116v-110z" />
    <glyph glyph-name="tbar" unicode="&#x167;" horiz-adv-x="371" 
d="M339 116v-114q-4 0 -13.5 -1.5t-15.5 -2.5q-19 -3 -72 -3q-79 0 -112 29.5t-33 98.5v130h-83v113h83v69h-83v113h83v152h135v-152h123v-113h-123v-69h123v-113h-123v-91q0 -30 10.5 -39t44.5 -9q27 0 38 1q13 0 18 1z" />
    <glyph glyph-name="Utilde" unicode="&#x168;" horiz-adv-x="663" 
d="M250 752h-105q0 60 33 102.5t92 42.5q31 0 78 -19t55 -19q15 0 21 8t6 29h101q0 -143 -114 -143q-28 0 -74.5 18.5t-57.5 18.5q-35 0 -35 -38zM188 700v-450q0 -70 40 -107.5t108 -37.5t106.5 38.5t38.5 109.5v447h132v-442q0 -137 -76.5 -203t-204.5 -66
q-127 0 -204.5 68t-77.5 205v438h138z" />
    <glyph glyph-name="utilde" unicode="&#x169;" horiz-adv-x="582" 
d="M204 600h-105q0 60 33 102.5t92 42.5q31 0 78 -19t55 -19q15 0 21 8t6 29h101q0 -143 -114 -143q-28 0 -74.5 18.5t-57.5 18.5q-35 0 -35 -38zM527 0h-132v52q-59 -59 -157 -59q-88 0 -137 53.5t-49 133.5v368h135v-342q0 -103 94 -103q55 0 83 34t28 88v323h135v-548z
" />
    <glyph glyph-name="Umacron" unicode="&#x16a;" horiz-adv-x="663" 
d="M490 752h-331v100h331v-100zM188 700v-450q0 -70 40 -107.5t108 -37.5t106.5 38.5t38.5 109.5v447h132v-442q0 -137 -76.5 -203t-204.5 -66q-127 0 -204.5 68t-77.5 205v438h138z" />
    <glyph glyph-name="umacron" unicode="&#x16b;" horiz-adv-x="582" 
d="M447 600h-331v100h331v-100zM527 0h-132v52q-59 -59 -157 -59q-88 0 -137 53.5t-49 133.5v368h135v-342q0 -103 94 -103q55 0 83 34t28 88v323h135v-548z" />
    <glyph glyph-name="Ubreve" unicode="&#x16c;" horiz-adv-x="663" 
d="M175 914h104q0 -42 13.5 -62.5t45.5 -20.5t45.5 20.5t13.5 62.5h104q0 -74 -38.5 -124.5t-124.5 -50.5t-124.5 50.5t-38.5 124.5zM188 700v-450q0 -70 40 -107.5t108 -37.5t106.5 38.5t38.5 109.5v447h132v-442q0 -137 -76.5 -203t-204.5 -66q-127 0 -204.5 68t-77.5 205
v438h138z" />
    <glyph glyph-name="ubreve" unicode="&#x16d;" horiz-adv-x="582" 
d="M132 762h104q0 -42 13.5 -62.5t45.5 -20.5t45.5 20.5t13.5 62.5h104q0 -74 -38.5 -124.5t-124.5 -50.5t-124.5 50.5t-38.5 124.5zM527 0h-132v52q-59 -59 -157 -59q-88 0 -137 53.5t-49 133.5v368h135v-342q0 -103 94 -103q55 0 83 34t28 88v323h135v-548z" />
    <glyph glyph-name="Uring" unicode="&#x16e;" horiz-adv-x="663" 
d="M186 879q0 60 42.5 100.5t104.5 40.5t104 -40.5t42 -100.5t-42 -100.5t-104 -40.5q-63 0 -105 40t-42 101zM270 879q0 -31 17 -49t46 -18q28 0 45.5 18.5t17.5 48.5q0 29 -17.5 47.5t-45.5 18.5q-29 0 -46 -18t-17 -48zM188 700v-450q0 -70 40 -107.5t108 -37.5
t106.5 38.5t38.5 109.5v447h132v-442q0 -137 -76.5 -203t-204.5 -66q-127 0 -204.5 68t-77.5 205v438h138z" />
    <glyph glyph-name="uring" unicode="&#x16f;" horiz-adv-x="582" 
d="M145 727q0 60 42.5 100.5t104.5 40.5t104 -40.5t42 -100.5t-42 -100.5t-104 -40.5q-63 0 -105 40t-42 101zM229 727q0 -31 17 -49t46 -18q28 0 45.5 18.5t17.5 48.5q0 29 -17.5 47.5t-45.5 18.5q-29 0 -46 -18t-17 -48zM527 0h-132v52q-59 -59 -157 -59q-88 0 -137 53.5
t-49 133.5v368h135v-342q0 -103 94 -103q55 0 83 34t28 88v323h135v-548z" />
    <glyph glyph-name="Uhungarumlaut" unicode="&#x170;" horiz-adv-x="663" 
d="M403 916l-141 -166h-129l113 166h157zM613 916l-141 -166h-129l113 166h157zM188 700v-450q0 -70 40 -107.5t108 -37.5t106.5 38.5t38.5 109.5v447h132v-442q0 -137 -76.5 -203t-204.5 -66q-127 0 -204.5 68t-77.5 205v438h138z" />
    <glyph glyph-name="uhungarumlaut" unicode="&#x171;" horiz-adv-x="582" 
d="M369 764l-141 -166h-129l113 166h157zM579 764l-141 -166h-129l113 166h157zM527 0h-132v52q-59 -59 -157 -59q-88 0 -137 53.5t-49 133.5v368h135v-342q0 -103 94 -103q55 0 83 34t28 88v323h135v-548z" />
    <glyph glyph-name="Uogonek" unicode="&#x172;" horiz-adv-x="663" 
d="M440 -186l-22 -3q-24 -2 -40 -2q-67 0 -99 28t-32 71q0 49 38 84q-107 9 -171 77.5t-64 192.5v438h138v-450q0 -70 40 -107.5t108 -37.5t106.5 38.5t38.5 109.5v447h132v-442q0 -115 -54.5 -180t-149.5 -82q-73 -24 -73 -74q0 -42 60 -42q37 0 55 5z" />
    <glyph glyph-name="uogonek" unicode="&#x173;" horiz-adv-x="582" 
d="M395 0v52q-59 -59 -157 -59q-88 0 -137 53.5t-49 133.5v368h135v-342q0 -103 94 -103q55 0 83 34t28 88v323h135v-548q-86 -20 -86 -76q0 -40 60 -40q37 0 55 5l-11 -71l-22 -3q-24 -2 -40 -2q-67 0 -99 28t-32 71q0 55 43 88z" />
    <glyph glyph-name="Wcircumflex" unicode="&#x174;" horiz-adv-x="911" 
d="M275 750l129 166h120l129 -166h-132l-57 77l-57 -77h-132zM901 700l-137 -700h-201l-102 516l-103 -516h-205l-143 700h150l105 -568l113 568h166l116 -568l98 568h143z" />
    <glyph glyph-name="wcircumflex" unicode="&#x175;" horiz-adv-x="840" 
d="M231 598l129 166h120l129 -166h-132l-57 77l-57 -77h-132zM485 548l104 -394l105 394h141l-156 -548h-166l-93 369l-93 -369h-166l-156 548h141l105 -394l104 394h130z" />
    <glyph glyph-name="Ycircumflex" unicode="&#x176;" horiz-adv-x="621" 
d="M124 750l129 166h120l129 -166h-132l-57 77l-57 -77h-132zM10 700h158l144 -305l146 305h153l-232 -448v-252h-137v252z" />
    <glyph glyph-name="ycircumflex" unicode="&#x177;" horiz-adv-x="528" 
d="M77 598l129 166h120l129 -166h-132l-57 77l-57 -77h-132zM49 -192v118h81q23 0 35 8t18 30l10 36l-188 548h149l114 -381l114 381h141l-206 -611q-24 -69 -56.5 -99t-98.5 -30h-113z" />
    <glyph glyph-name="Ydieresis" unicode="&#x178;" horiz-adv-x="621" 
d="M277 753h-135v129h135v-129zM481 753h-135v129h135v-129zM10 700h158l144 -305l146 305h153l-232 -448v-252h-137v252z" />
    <glyph glyph-name="Zacute" unicode="&#x179;" horiz-adv-x="563" 
d="M466 916l-141 -166h-129l113 166h157zM543 0h-523v108l355 469h-347v123h510v-112l-349 -465h354v-123z" />
    <glyph glyph-name="zacute" unicode="&#x17a;" horiz-adv-x="515" 
d="M441 764l-141 -166h-129l113 166h157zM485 0h-455v104l286 331h-279v113h443v-104l-286 -331h291v-113z" />
    <glyph glyph-name="Zdotaccent" unicode="&#x17b;" horiz-adv-x="563" 
d="M360 750h-151v149h151v-149zM543 0h-523v108l355 469h-347v123h510v-112l-349 -465h354v-123z" />
    <glyph glyph-name="zdotaccent" unicode="&#x17c;" horiz-adv-x="515" 
d="M337 598h-151v149h151v-149zM485 0h-455v104l286 331h-279v113h443v-104l-286 -331h291v-113z" />
    <glyph glyph-name="Zcaron" unicode="&#x17d;" horiz-adv-x="563" 
d="M226 750l-129 166h132l57 -77l57 77h132l-129 -166h-120zM543 0h-523v108l355 469h-347v123h510v-112l-349 -465h354v-123z" />
    <glyph glyph-name="zcaron" unicode="&#x17e;" horiz-adv-x="515" 
d="M207 598l-129 166h132l57 -77l57 77h132l-129 -166h-120zM485 0h-455v104l286 331h-279v113h443v-104l-286 -331h291v-113z" />
    <glyph glyph-name="longs" unicode="&#x17f;" horiz-adv-x="307" 
d="M235 593v-593h-135v435h-90v113h90v64q0 135 148 135q14 0 38 -0.5t33 -0.5q11 -1 30 -1v-116h-19q-5 0 -20.5 0.5t-24.5 0.5q-24 0 -37 -7t-13 -30z" />
    <glyph glyph-name="florin" unicode="&#x192;" horiz-adv-x="560" 
d="M399 591l-36 -203h117l-19 -110h-118l-58 -328q-26 -142 -160 -142q-48 0 -83 7q-22 4 -32 7l20 116q18 -4 27 -5q27 -5 52 -5q36 0 42 31l56 319h-106l19 110h107l38 215q25 139 168 139q41 0 74 -5q26 -4 33 -5l-19 -116l-26 4q-25 5 -54 5q-36 0 -42 -34z" />
    <glyph glyph-name="Scommaaccent" unicode="&#x218;" horiz-adv-x="613" 
d="M576 492h-142q-3 22 -6.5 34t-15.5 31.5t-39 29.5t-68 10q-59 0 -89.5 -22t-30.5 -61q0 -37 31 -58t72 -27.5t99.5 -19.5t96.5 -32q104 -49 104 -160q0 -113 -76 -170.5t-210 -57.5q-121 0 -195.5 59t-76.5 173h143q0 -115 135 -115q141 0 141 95q0 32 -25 51t-66 27
t-86 15t-93 23t-78 43q-59 52 -59 144q0 98 75 152.5t183 54.5q117 0 192.5 -51t83.5 -168zM379 -58v-146q0 -17 -1 -28t-7 -29t-17.5 -29t-34 -19.5t-54.5 -8.5h-27v61q26 0 35.5 5t9.5 23v23h-52v148h148z" />
    <glyph glyph-name="scommaaccent" unicode="&#x219;" horiz-adv-x="539" 
d="M494 387h-133q0 64 -96 64q-35 0 -62 -12.5t-27 -42.5q0 -33 38 -44q12 -4 95 -16.5t123 -33.5q77 -41 77 -128q0 -181 -245 -181q-59 0 -103 12.5t-68.5 31t-39 44.5t-19 47.5t-4.5 45.5h133q0 -74 108 -74q101 0 101 61q0 15 -8 25.5t-27.5 17t-34.5 9t-45 6.5
q-60 7 -96 18q-120 35 -120 150q0 79 65 123.5t163 44.5q58 0 102 -14t66.5 -33t36 -45t17 -43t3.5 -33zM341 -58v-146q0 -17 -1 -28t-7 -29t-17.5 -29t-34 -19.5t-54.5 -8.5h-27v61q26 0 35.5 5t9.5 23v23h-52v148h148z" />
    <glyph glyph-name="uni021A" unicode="&#x21a;" horiz-adv-x="600" 
d="M575 577h-206v-577h-138v577h-206v123h550v-123zM374 -58v-146q0 -17 -1 -28t-7 -29t-17.5 -29t-34 -19.5t-54.5 -8.5h-27v61q26 0 35.5 5t9.5 23v23h-52v148h148z" />
    <glyph glyph-name="uni021B" unicode="&#x21b;" horiz-adv-x="371" 
d="M339 116v-114q-4 0 -13.5 -1.5t-15.5 -2.5q-19 -3 -72 -3q-79 0 -112 29.5t-33 98.5v312h-83v113h83v152h135v-152h123v-113h-123v-273q0 -30 10.5 -39t44.5 -9q27 0 38 1q13 0 18 1zM271 -58v-146q0 -17 -1 -28t-7 -29t-17.5 -29t-34 -19.5t-54.5 -8.5h-27v61
q26 0 35.5 5t9.5 23v23h-52v148h148z" />
    <glyph glyph-name="dotlessj" unicode="&#x237;" horiz-adv-x="245" 
d="M-32 -189v116q18 -2 39 -2q26 0 37 7.5t11 30.5v585h135v-599q0 -77 -36 -109t-128 -32q-27 0 -38 1z" />
    <glyph glyph-name="afii57929" unicode="&#x2bc;" 
d="M203 700v-146q0 -17 -1 -28t-7 -29t-17.5 -29t-34 -19.5t-54.5 -8.5h-27v61q26 0 35.5 5t9.5 23v23h-52v148h148z" />
    <glyph glyph-name="circumflex" unicode="&#x2c6;" horiz-adv-x="488" 
d="M55 598l129 166h120l129 -166h-132l-57 77l-57 -77h-132z" />
    <glyph glyph-name="caron" unicode="&#x2c7;" horiz-adv-x="488" 
d="M184 598l-129 166h132l57 -77l57 77h132l-129 -166h-120z" />
    <glyph glyph-name="uni02C9" unicode="&#x2c9;" horiz-adv-x="421" 
d="M366 600h-311v100h311v-100z" />
    <glyph glyph-name="breve" unicode="&#x2d8;" horiz-adv-x="436" 
d="M55 762h104q0 -42 13.5 -62.5t45.5 -20.5t45.5 20.5t13.5 62.5h104q0 -74 -38.5 -124.5t-124.5 -50.5t-124.5 50.5t-38.5 124.5z" />
    <glyph glyph-name="dotaccent" unicode="&#x2d9;" horiz-adv-x="261" 
d="M206 598h-151v149h151v-149z" />
    <glyph glyph-name="ring" unicode="&#x2da;" horiz-adv-x="403" 
d="M55 727q0 60 42.5 100.5t104.5 40.5t104 -40.5t42 -100.5t-42 -100.5t-104 -40.5q-63 0 -105 40t-42 101zM139 727q0 -31 17 -49t46 -18q28 0 45.5 18.5t17.5 48.5q0 29 -17.5 47.5t-45.5 18.5q-29 0 -46 -18t-17 -48z" />
    <glyph glyph-name="ogonek" unicode="&#x2db;" horiz-adv-x="318" 
d="M226 25v-22q-29 -11 -55 -35t-26 -44q0 -40 60 -40q37 0 55 5l-11 -71l-22 -3q-24 -2 -40 -2q-67 0 -99 28t-32 71q0 73 88 116z" />
    <glyph glyph-name="tilde" unicode="&#x2dc;" horiz-adv-x="496" 
d="M160 600h-105q0 60 33 102.5t92 42.5q31 0 78 -19t55 -19q15 0 21 8t6 29h101q0 -143 -114 -143q-28 0 -74.5 18.5t-57.5 18.5q-35 0 -35 -38z" />
    <glyph glyph-name="hungarumlaut" unicode="&#x2dd;" horiz-adv-x="590" 
d="M325 764l-141 -166h-129l113 166h157zM535 764l-141 -166h-129l113 166h157z" />
    <glyph glyph-name="commaaccentcomb" unicode="&#x326;" horiz-adv-x="0" 
d="M203 -58v-146q0 -17 -1 -28t-7 -29t-17.5 -29t-34 -19.5t-54.5 -8.5h-27v61q26 0 35.5 5t9.5 23v23h-52v148h148z" />
    <glyph glyph-name="Delta" unicode="&#x394;" horiz-adv-x="774" 
d="M470 700l249 -606v-94h-664v94l247 606h168zM567 123l-180 464l-181 -464h361z" />
    <glyph glyph-name="Omega" unicode="&#x3a9;" horiz-adv-x="776" 
d="M430 0v275q63 2 105.5 41t42.5 114q0 160 -190 160t-190 -160q0 -75 42.5 -114t105.5 -41v-275h-267v123h129v75q-73 21 -113 83t-40 144q0 76 29 133t78 88.5t105.5 46t120.5 14.5t120.5 -14.5t105.5 -46t78 -88.5t29 -133q0 -82 -40 -144t-113 -83v-75h129v-123h-267z
" />
    <glyph glyph-name="mu" unicode="&#x3bc;" horiz-adv-x="585" 
d="M55 -192v740h135v-340q0 -105 94 -105q55 0 83 34t28 88v323h135v-548h-132v36q-37 -43 -121 -43q-63 0 -94 19v-204h-128z" />
    <glyph glyph-name="pi" unicode="&#x3c0;" horiz-adv-x="766" 
d="M284 0h-135v435h-94v113h652v-113h-113v-268q0 -31 13.5 -41.5t44.5 -10.5h59v-113l-29 -3q-28 -3 -77 -3q-146 0 -146 128v311h-175v-435z" />
    <glyph glyph-name="Wgrave" unicode="&#x1e80;" horiz-adv-x="911" 
d="M451 750l-141 166h157l113 -166h-129zM901 700l-137 -700h-201l-102 516l-103 -516h-205l-143 700h150l105 -568l113 568h166l116 -568l98 568h143z" />
    <glyph glyph-name="wgrave" unicode="&#x1e81;" horiz-adv-x="840" 
d="M407 598l-141 166h157l113 -166h-129zM485 548l104 -394l105 394h141l-156 -548h-166l-93 369l-93 -369h-166l-156 548h141l105 -394l104 394h130z" />
    <glyph glyph-name="Wacute" unicode="&#x1e82;" horiz-adv-x="911" 
d="M630 916l-141 -166h-129l113 166h157zM901 700l-137 -700h-201l-102 516l-103 -516h-205l-143 700h150l105 -568l113 568h166l116 -568l98 568h143z" />
    <glyph glyph-name="wacute" unicode="&#x1e83;" horiz-adv-x="840" 
d="M574 764l-141 -166h-129l113 166h157zM485 548l104 -394l105 394h141l-156 -548h-166l-93 369l-93 -369h-166l-156 548h141l105 -394l104 394h130z" />
    <glyph glyph-name="Wdieresis" unicode="&#x1e84;" horiz-adv-x="911" 
d="M428 753h-135v129h135v-129zM632 753h-135v129h135v-129zM901 700l-137 -700h-201l-102 516l-103 -516h-205l-143 700h150l105 -568l113 568h166l116 -568l98 568h143z" />
    <glyph glyph-name="wdieresis" unicode="&#x1e85;" horiz-adv-x="840" 
d="M386 601h-135v129h135v-129zM590 601h-135v129h135v-129zM485 548l104 -394l105 394h141l-156 -548h-166l-93 369l-93 -369h-166l-156 548h141l105 -394l104 394h130z" />
    <glyph glyph-name="Ygrave" unicode="&#x1ef2;" horiz-adv-x="621" 
d="M306 750l-141 166h157l113 -166h-129zM10 700h158l144 -305l146 305h153l-232 -448v-252h-137v252z" />
    <glyph glyph-name="ygrave" unicode="&#x1ef3;" horiz-adv-x="528" 
d="M250 598l-141 166h157l113 -166h-129zM49 -192v118h81q23 0 35 8t18 30l10 36l-188 548h149l114 -381l114 381h141l-206 -611q-24 -69 -56.5 -99t-98.5 -30h-113z" />
    <glyph glyph-name="endash" unicode="&#x2013;" horiz-adv-x="560" 
d="M505 240h-450v116h450v-116z" />
    <glyph glyph-name="emdash" unicode="&#x2014;" horiz-adv-x="917" 
d="M862 240h-807v116h807v-116z" />
    <glyph glyph-name="quoteleft" unicode="&#x2018;" 
d="M55 440v146q0 17 1 28t7 29t17.5 29t34 19.5t54.5 8.5h27v-61q-26 0 -35.5 -5t-9.5 -23v-23h52v-148h-148z" />
    <glyph glyph-name="quoteright" unicode="&#x2019;" 
d="M203 700v-146q0 -17 -1 -28t-7 -29t-17.5 -29t-34 -19.5t-54.5 -8.5h-27v61q26 0 35.5 5t9.5 23v23h-52v148h148z" />
    <glyph glyph-name="quotesinglbase" unicode="&#x201a;" 
d="M203 148v-146q0 -17 -1 -28t-7 -29t-17.5 -29t-34 -19.5t-54.5 -8.5h-27v61q26 0 35.5 5t9.5 23v23h-52v148h148z" />
    <glyph glyph-name="quotedblleft" unicode="&#x201c;" horiz-adv-x="467" 
d="M55 440v146q0 17 1 28t7 29t17.5 29t34 19.5t54.5 8.5h27v-61q-26 0 -35.5 -5t-9.5 -23v-23h52v-148h-148zM264 440v146q0 17 1 28t7 29t17.5 29t34 19.5t54.5 8.5h27v-61q-26 0 -35.5 -5t-9.5 -23v-23h52v-148h-148z" />
    <glyph glyph-name="quotedblright" unicode="&#x201d;" horiz-adv-x="467" 
d="M203 700v-146q0 -17 -1 -28t-7 -29t-17.5 -29t-34 -19.5t-54.5 -8.5h-27v61q26 0 35.5 5t9.5 23v23h-52v148h148zM412 700v-146q0 -17 -1 -28t-7 -29t-17.5 -29t-34 -19.5t-54.5 -8.5h-27v61q26 0 35.5 5t9.5 23v23h-52v148h148z" />
    <glyph glyph-name="quotedblbase" unicode="&#x201e;" horiz-adv-x="467" 
d="M203 148v-146q0 -17 -1 -28t-7 -29t-17.5 -29t-34 -19.5t-54.5 -8.5h-27v61q26 0 35.5 5t9.5 23v23h-52v148h148zM412 148v-146q0 -17 -1 -28t-7 -29t-17.5 -29t-34 -19.5t-54.5 -8.5h-27v61q26 0 35.5 5t9.5 23v23h-52v148h148z" />
    <glyph glyph-name="dagger" unicode="&#x2020;" horiz-adv-x="559" 
d="M208 371h-153v126h153v203h143v-203h153v-126h-153v-371h-143v371z" />
    <glyph glyph-name="daggerdbl" unicode="&#x2021;" horiz-adv-x="559" 
d="M55 150h153v221h-153v126h153v203h143v-203h153v-126h-153v-221h153v-126h-153v-206h-143v206h-153v126z" />
    <glyph glyph-name="bullet" unicode="&#x2022;" horiz-adv-x="424" 
d="M55 358q0 64 46.5 110.5t110.5 46.5q65 0 111 -46.5t46 -110.5q0 -65 -46 -111t-111 -46q-64 0 -110.5 46t-46.5 111z" />
    <glyph glyph-name="ellipsis" unicode="&#x2026;" horiz-adv-x="834" 
d="M203 0h-148v148h148v-148zM491 0h-148v148h148v-148zM779 0h-148v148h148v-148z" />
    <glyph glyph-name="perthousand" unicode="&#x2030;" horiz-adv-x="1276" 
d="M226 319q-26 0 -51.5 7t-54.5 25t-47 59t-18 100q0 58 18 98.5t47 59t54.5 25.5t51.5 7q27 0 52.5 -7t54.5 -25.5t47 -59t18 -98.5q0 -48 -12.5 -84t-30.5 -56t-43 -32t-45 -15.5t-41 -3.5zM736 697l-471 -697h-107l470 697h108zM226 618q-32 0 -51 -27.5t-19 -80.5
q0 -109 70 -109q34 0 52 25t18 84q0 108 -70 108zM663 -7q-20 0 -40 3.5t-44.5 16t-43 32t-31 55.5t-12.5 84q0 58 18 98.5t47 59t54.5 25.5t51.5 7q27 0 52.5 -7t54.5 -25.5t47 -59t18 -98.5q0 -59 -18 -100t-47 -59t-54.5 -25t-52.5 -7zM1049 -7q-20 0 -40 3.5t-44.5 16
t-43 32t-31 55.5t-12.5 84q0 58 18 98.5t47 59t54.5 25.5t51.5 7q27 0 52.5 -7t54.5 -25.5t47 -59t18 -98.5q0 -59 -18 -100t-47 -59t-54.5 -25t-52.5 -7zM663 292q-69 0 -69 -108q0 -109 69 -109q70 0 70 109q0 108 -70 108zM1049 292q-69 0 -69 -108q0 -109 69 -109
q70 0 70 109q0 108 -70 108z" />
    <glyph glyph-name="guilsinglleft" unicode="&#x2039;" horiz-adv-x="407" 
d="M207 0l-152 273l152 275h145l-150 -273l150 -275h-145z" />
    <glyph glyph-name="guilsinglright" unicode="&#x203a;" horiz-adv-x="407" 
d="M352 273l-152 -273h-145l150 275l-150 273h145z" />
    <glyph glyph-name="fraction" unicode="&#x2044;" horiz-adv-x="0" 
 />
    <glyph glyph-name="zerosuperior" unicode="&#x2070;" horiz-adv-x="452" 
d="M226 235q-31 0 -58.5 9.5t-54.5 33.5t-42.5 72t-15.5 117q0 68 15.5 116.5t42.5 72.5t54.5 34t58.5 10t58.5 -10t54.5 -34t42.5 -72.5t15.5 -116.5q0 -69 -15.5 -117t-42.5 -72t-54.5 -33.5t-58.5 -9.5zM226 621q-74 0 -74 -154q0 -153 74 -153t74 153q0 154 -74 154z
" />
    <glyph glyph-name="foursuperior" unicode="&#x2074;" horiz-adv-x="461" 
d="M406 333h-52v-94h-93v94h-216v79l189 283h120v-287h52v-75zM261 408v193l-126 -193h126z" />
    <glyph glyph-name="fivesuperior" unicode="&#x2075;" horiz-adv-x="451" 
d="M66 430l14 263h294v-83h-215l-5 -91q11 12 35 22t56 10q72 0 113 -41t41 -107q0 -74 -45 -122t-132 -48q-48 0 -83 14.5t-52 38t-24.5 45t-7.5 42.5h97q2 -26 20.5 -44t51.5 -18q37 0 58 23t21 61q0 36 -20.5 57.5t-56.5 21.5q-25 0 -44.5 -13t-26.5 -33z" />
    <glyph glyph-name="sixsuperior" unicode="&#x2076;" horiz-adv-x="455" 
d="M393 573h-93q-3 20 -18.5 35t-45.5 15q-42 0 -63.5 -34t-24.5 -84q34 41 101 41q60 0 105.5 -39t45.5 -113q0 -71 -46 -115t-122 -44q-80 0 -128.5 54.5t-48.5 165.5q0 47 9 87.5t28.5 77.5t57.5 58.5t90 21.5q45 0 77 -14.5t47 -37.5t21 -40.5t8 -34.5zM309 389
q0 35 -20 57t-54 22q-33 0 -54.5 -22t-21.5 -57t21 -56t54 -21t54 21t21 56z" />
    <glyph glyph-name="sevensuperior" unicode="&#x2077;" horiz-adv-x="362" 
d="M239 611h-219v83h322v-75l-175 -380h-105z" />
    <glyph glyph-name="eightsuperior" unicode="&#x2078;" horiz-adv-x="464" 
d="M232 700q72 0 119 -33t47 -95q0 -71 -68 -95q35 -9 57 -36t22 -68q0 -65 -48.5 -101.5t-128.5 -36.5t-128.5 36.5t-48.5 101.5q0 41 22 68t57 36q-68 24 -68 95q0 62 47 95t119 33zM232 513q38 0 57 16.5t19 42.5q0 27 -21 41.5t-55 14.5t-55 -14.5t-21 -41.5
q0 -26 19 -42.5t57 -16.5zM232 313q37 0 58.5 18t21.5 46q0 29 -21 45.5t-59 16.5t-59 -16.5t-21 -45.5q0 -28 21.5 -46t58.5 -18z" />
    <glyph glyph-name="ninesuperior" unicode="&#x2079;" horiz-adv-x="455" 
d="M62 362h93q8 -50 64 -50q42 0 65 35t23 84q-37 -42 -102 -42q-61 0 -105.5 38t-44.5 112q0 71 47 116t121 45q80 0 128.5 -54.5t48.5 -165.5q0 -47 -9 -87.5t-28.5 -77.5t-57.5 -58.5t-90 -21.5q-45 0 -77 14.5t-47 37.5t-21 40.5t-8 34.5zM146 546q0 -35 20 -57t54 -22
q33 0 54.5 22t21.5 57t-21 56t-54 21t-54 -21t-21 -56z" />
    <glyph glyph-name="zeroinferior" unicode="&#x2080;" horiz-adv-x="452" 
d="M226 -6q-31 0 -58.5 9.5t-54.5 33.5t-42.5 72t-15.5 117q0 68 15.5 116.5t42.5 72.5t54.5 34t58.5 10t58.5 -10t54.5 -34t42.5 -72.5t15.5 -116.5q0 -69 -15.5 -117t-42.5 -72t-54.5 -33.5t-58.5 -9.5zM226 380q-74 0 -74 -154q0 -153 74 -153t74 153q0 154 -74 154z" />
    <glyph glyph-name="oneinferior" unicode="&#x2081;" horiz-adv-x="287" 
d="M212 457v-456h-98v326h-79v84h46q47 0 47 46h84z" />
    <glyph glyph-name="twoinferior" unicode="&#x2082;" horiz-adv-x="431" 
d="M144 291h-93q0 76 43 123.5t127 47.5q79 0 119.5 -41.5t40.5 -93.5q0 -45 -18 -77t-54 -65l-117 -103h187v-81h-311v79l172 153q47 41 47 86q0 28 -18 45.5t-48 17.5q-77 0 -77 -91z" />
    <glyph glyph-name="threeinferior" unicode="&#x2083;" horiz-adv-x="450" 
d="M156 295h-89q0 79 42.5 121.5t126.5 42.5q71 0 112.5 -34t41.5 -91q0 -38 -18.5 -65.5t-54.5 -36.5q35 -6 57.5 -33.5t22.5 -61.5q0 -69 -47 -106t-126 -37q-82 0 -125.5 43.5t-43.5 112.5h96q0 -38 20 -58t54 -20q39 0 57 18t18 45q0 54 -76 54h-37v79h34q76 0 76 60
q0 22 -16 36.5t-49 14.5q-76 0 -76 -84z" />
    <glyph glyph-name="fourinferior" unicode="&#x2084;" horiz-adv-x="461" 
d="M406 95h-52v-94h-93v94h-216v79l189 283h120v-287h52v-75zM261 170v193l-126 -193h126z" />
    <glyph glyph-name="fiveinferior" unicode="&#x2085;" horiz-adv-x="451" 
d="M66 191l14 263h294v-83h-215l-5 -91q11 12 35 22t56 10q72 0 113 -41t41 -107q0 -74 -45 -122t-132 -48q-48 0 -83 14.5t-52 38t-24.5 45t-7.5 42.5h97q2 -26 20.5 -44t51.5 -18q37 0 58 23t21 61q0 36 -20.5 57.5t-56.5 21.5q-25 0 -44.5 -13t-26.5 -33z" />
    <glyph glyph-name="sixinferior" unicode="&#x2086;" horiz-adv-x="455" 
d="M393 332h-93q-3 20 -18.5 35t-45.5 15q-42 0 -63.5 -34t-24.5 -84q34 41 101 41q60 0 105.5 -39t45.5 -113q0 -71 -46 -115t-122 -44q-80 0 -128.5 54.5t-48.5 165.5q0 47 9 87.5t28.5 77.5t57.5 58.5t90 21.5q45 0 77 -14.5t47 -37.5t21 -40.5t8 -34.5zM309 148
q0 35 -20 57t-54 22q-33 0 -54.5 -22t-21.5 -57t21 -56t54 -21t54 21t21 56z" />
    <glyph glyph-name="seveninferior" unicode="&#x2087;" horiz-adv-x="362" 
d="M239 373h-219v83h322v-75l-175 -380h-105z" />
    <glyph glyph-name="eightinferior" unicode="&#x2088;" horiz-adv-x="464" 
d="M232 459q72 0 119 -33t47 -95q0 -71 -68 -95q35 -9 57 -36t22 -68q0 -65 -48.5 -101.5t-128.5 -36.5t-128.5 36.5t-48.5 101.5q0 41 22 68t57 36q-68 24 -68 95q0 62 47 95t119 33zM232 272q38 0 57 16.5t19 42.5q0 27 -21 41.5t-55 14.5t-55 -14.5t-21 -41.5
q0 -26 19 -42.5t57 -16.5zM232 72q37 0 58.5 18t21.5 46q0 29 -21 45.5t-59 16.5t-59 -16.5t-21 -45.5q0 -28 21.5 -46t58.5 -18z" />
    <glyph glyph-name="nineinferior" unicode="&#x2089;" horiz-adv-x="455" 
d="M62 121h93q8 -50 64 -50q42 0 65 35t23 84q-37 -42 -102 -42q-61 0 -105.5 38t-44.5 112q0 71 47 116t121 45q80 0 128.5 -54.5t48.5 -165.5q0 -47 -9 -87.5t-28.5 -77.5t-57.5 -58.5t-90 -21.5q-45 0 -77 14.5t-47 37.5t-21 40.5t-8 34.5zM146 305q0 -35 20 -57t54 -22
q33 0 54.5 22t21.5 57t-21 56t-54 21t-54 -21t-21 -56z" />
    <glyph glyph-name="Euro" unicode="&#x20ac;" horiz-adv-x="638" 
d="M96 246h-61v76h55v38q0 10 1 15h-56v76h63q13 128 83.5 190.5t171.5 62.5q37 0 72 -10t68 -31.5t54.5 -62t24.5 -94.5h-129q-7 81 -94 81q-40 0 -73.5 -30.5t-40.5 -105.5h225v-76h-232v-53h232v-76h-226q4 -70 35.5 -104t77.5 -34q88 0 101 79h135q-6 -54 -28 -93.5
t-55 -61.5t-70.5 -32.5t-80.5 -10.5q-97 0 -171 64.5t-82 192.5z" />
    <glyph glyph-name="afii61289" unicode="&#x2113;" horiz-adv-x="556" 
d="M407 181l94 -46q-20 -74 -66.5 -108t-124.5 -34q-84 0 -130.5 50t-48.5 124q-6 -4 -16.5 -14.5t-15.5 -14.5l-17 -16l-27 85q20 18 29 25q32 26 42 36v283q0 62 15.5 106.5t41.5 66.5t52 31.5t55 9.5q68 0 106.5 -45t38.5 -118q0 -84 -56.5 -179.5t-146.5 -185.5v-43
q0 -107 92 -107q68 0 83 94zM232 574v-209q107 127 107 233q0 76 -49 76q-58 0 -58 -100z" />
    <glyph glyph-name="trademark" unicode="&#x2122;" horiz-adv-x="763" 
d="M325 634h-98v-249h-74v249h-98v66h270v-66zM708 385h-73v236l-74 -236h-54l-73 231v-231h-74v315h110l65 -212l67 212h106v-315z" />
    <glyph glyph-name="estimated" unicode="&#x212e;" horiz-adv-x="902" 
d="M186 346v-187q0 -42 48.5 -78t108.5 -53.5t107 -17.5q158 0 271 126h60q-121 -148 -331 -148q-113 0 -209.5 50.5t-153.5 138t-57 190.5q0 154 124 264.5t296 110.5q177 0 299.5 -112t122.5 -272h-676q-10 0 -10 -12zM196 377h509q10 0 10 9v188q0 25 -18 50
q-105 99 -247 99q-137 0 -244 -99q-20 -27 -20 -50v-188q0 -9 10 -9z" />
    <glyph glyph-name="uni2150" unicode="&#x2150;" horiz-adv-x="675" 
d="M232 695v-456h-98v326h-79v84h46q47 0 47 46h84zM517 373h-219v83h322v-75l-175 -380h-105z" />
    <glyph glyph-name="uni2151" unicode="&#x2151;" horiz-adv-x="691" 
d="M232 695v-456h-98v326h-79v84h46q47 0 47 46h84zM298 121h93q3 -19 18 -34.5t46 -15.5q42 0 65 35t23 84q-37 -42 -102 -42q-61 0 -105.5 38t-44.5 112q0 71 47 116t121 45q80 0 128.5 -54.5t48.5 -165.5q0 -47 -9 -87.5t-28.5 -77.5t-57.5 -58.5t-90 -21.5
q-45 0 -77 14.5t-47 37.5t-21 40.5t-8 34.5zM382 305q0 -35 20 -57t54 -22q33 0 54.5 22t21.5 57t-21 56t-54 21t-54 -21t-21 -56z" />
    <glyph glyph-name="uni2153" unicode="&#x2153;" horiz-adv-x="681" 
d="M232 695v-456h-98v326h-79v84h46q47 0 47 46h84zM387 295h-89q0 79 43 121.5t126 42.5q71 0 112.5 -34t41.5 -91q0 -38 -18.5 -65.5t-54.5 -36.5q35 -6 57.5 -33.5t22.5 -61.5q0 -69 -47 -106t-126 -37q-82 0 -125.5 43.5t-43.5 112.5h96q0 -38 20 -58t54 -20q39 0 57 18
t18 45q0 54 -76 54h-37v79h34q76 0 76 60q0 22 -16 36.5t-49 14.5q-76 0 -76 -84z" />
    <glyph glyph-name="uni2154" unicode="&#x2154;" horiz-adv-x="833" 
d="M144 529h-93q0 76 43 123.5t127 47.5q79 0 119.5 -41.5t40.5 -93.5q0 -45 -18 -77t-54 -65l-117 -103h187v-81h-311v79l172 153q47 41 47 86q0 28 -18 45.5t-48 17.5q-77 0 -77 -91zM539 295h-89q0 79 43 121.5t126 42.5q71 0 112.5 -34t41.5 -91q0 -38 -18.5 -65.5
t-54.5 -36.5q35 -6 57.5 -33.5t22.5 -61.5q0 -69 -47 -106t-126 -37q-82 0 -125.5 43.5t-43.5 112.5h96q0 -38 20 -58t54 -20q39 0 57 18t18 45q0 54 -76 54h-37v79h34q76 0 76 60q0 22 -16 36.5t-49 14.5q-76 0 -76 -84z" />
    <glyph glyph-name="uni2155" unicode="&#x2155;" horiz-adv-x="686" 
d="M232 695v-456h-98v326h-79v84h46q47 0 47 46h84zM301 191l14 263h294v-83h-215l-5 -91q11 12 35 22t56 10q72 0 113 -41t41 -107q0 -74 -45 -122t-132 -48q-48 0 -83 14.5t-52 38t-24.5 45t-7.5 42.5h97q2 -26 20.5 -44t51.5 -18q37 0 58 23t21 61q0 36 -20.5 57.5
t-56.5 21.5q-25 0 -44.5 -13t-26.5 -33z" />
    <glyph glyph-name="uni2156" unicode="&#x2156;" horiz-adv-x="815" 
d="M144 529h-93q0 76 43 123.5t127 47.5q79 0 119.5 -41.5t40.5 -93.5q0 -45 -18 -77t-54 -65l-117 -103h187v-81h-311v79l172 153q47 41 47 86q0 28 -18 45.5t-48 17.5q-77 0 -77 -91zM430 191l14 263h294v-83h-215l-5 -91q11 12 35 22t56 10q72 0 113 -41t41 -107
q0 -74 -45 -122t-132 -48q-48 0 -83 14.5t-52 38t-24.5 45t-7.5 42.5h97q2 -26 20.5 -44t51.5 -18q37 0 58 23t21 61q0 36 -20.5 57.5t-56.5 21.5q-25 0 -44.5 -13t-26.5 -33z" />
    <glyph glyph-name="uni2157" unicode="&#x2157;" horiz-adv-x="822" 
d="M156 536h-89q0 78 42.5 121t126.5 43q71 0 112.5 -34t41.5 -91q0 -38 -18.5 -65.5t-54.5 -36.5q35 -6 57.5 -33.5t22.5 -61.5q0 -69 -47 -106t-126 -37q-82 0 -125.5 43.5t-43.5 112.5h96q0 -38 20 -58t54 -20q39 0 57 18t18 45q0 54 -76 54h-37v79h34q76 0 76 60
q0 22 -16 36.5t-49 14.5q-76 0 -76 -84zM437 191l14 263h294v-83h-215l-5 -91q11 12 35 22t56 10q72 0 113 -41t41 -107q0 -74 -45 -122t-132 -48q-48 0 -83 14.5t-52 38t-24.5 45t-7.5 42.5h97q2 -26 20.5 -44t51.5 -18q37 0 58 23t21 61q0 36 -20.5 57.5t-56.5 21.5
q-25 0 -44.5 -13t-26.5 -33z" />
    <glyph glyph-name="uni2158" unicode="&#x2158;" horiz-adv-x="864" 
d="M416 333h-52v-94h-93v94h-216v79l189 283h120v-287h52v-75zM271 408v193l-126 -193h126zM479 191l14 263h294v-83h-215l-5 -91q11 12 35 22t56 10q72 0 113 -41t41 -107q0 -74 -45 -122t-132 -48q-48 0 -83 14.5t-52 38t-24.5 45t-7.5 42.5h97q2 -26 20.5 -44t51.5 -18
q37 0 58 23t21 61q0 36 -20.5 57.5t-56.5 21.5q-25 0 -44.5 -13t-26.5 -33z" />
    <glyph glyph-name="uni2159" unicode="&#x2159;" horiz-adv-x="686" 
d="M232 695v-456h-98v326h-79v84h46q47 0 47 46h84zM624 332h-93q-3 20 -18.5 35t-45.5 15q-42 0 -63.5 -34t-24.5 -84q34 41 101 41q60 0 105.5 -39t45.5 -113q0 -71 -46 -115t-122 -44q-80 0 -128.5 54.5t-48.5 165.5q0 47 9 87.5t28.5 77.5t57.5 58.5t90 21.5
q45 0 77 -14.5t47 -37.5t21 -40.5t8 -34.5zM540 148q0 35 -20 57t-54 22q-33 0 -54.5 -22t-21.5 -57t21 -56t54 -21t54 21t21 56z" />
    <glyph glyph-name="uni215A" unicode="&#x215a;" horiz-adv-x="827" 
d="M66 430l14 263h294v-83h-215l-5 -91q11 12 35 22t56 10q72 0 113 -41t41 -107q0 -74 -45 -122t-132 -48q-48 0 -83 14.5t-52 38t-24.5 45t-7.5 42.5h97q2 -26 20.5 -44t51.5 -18q37 0 58 23t21 61q0 36 -20.5 57.5t-56.5 21.5q-25 0 -44.5 -13t-26.5 -33zM765 332h-93
q-3 20 -18.5 35t-45.5 15q-42 0 -63.5 -34t-24.5 -84q34 41 101 41q60 0 105.5 -39t45.5 -113q0 -71 -46 -115t-122 -44q-80 0 -128.5 54.5t-48.5 165.5q0 47 9 87.5t28.5 77.5t57.5 58.5t90 21.5q45 0 77 -14.5t47 -37.5t21 -40.5t8 -34.5zM681 148q0 35 -20 57t-54 22
q-33 0 -54.5 -22t-21.5 -57t21 -56t54 -21t54 21t21 56z" />
    <glyph glyph-name="oneeighth" unicode="&#x215b;" horiz-adv-x="697" 
d="M232 695v-456h-98v326h-79v84h46q47 0 47 46h84zM465 459q72 0 119 -33t47 -95q0 -71 -68 -95q35 -9 57 -36t22 -68q0 -65 -48.5 -101.5t-128.5 -36.5t-128.5 36.5t-48.5 101.5q0 41 22 68t57 36q-68 24 -68 95q0 62 47 95t119 33zM465 272q38 0 57 16.5t19 42.5
q0 27 -21 41.5t-55 14.5t-55 -14.5t-21 -41.5q0 -26 19 -42.5t57 -16.5zM465 72q37 0 58.5 18t21.5 46q0 29 -21 45.5t-59 16.5t-59 -16.5t-21 -45.5q0 -28 21.5 -46t58.5 -18z" />
    <glyph glyph-name="threeeighths" unicode="&#x215c;" horiz-adv-x="832" 
d="M156 536h-89q0 78 42.5 121t126.5 43q71 0 112.5 -34t41.5 -91q0 -38 -18.5 -65.5t-54.5 -36.5q35 -6 57.5 -33.5t22.5 -61.5q0 -69 -47 -106t-126 -37q-82 0 -125.5 43.5t-43.5 112.5h96q0 -38 20 -58t54 -20q39 0 57 18t18 45q0 54 -76 54h-37v79h34q76 0 76 60
q0 22 -16 36.5t-49 14.5q-76 0 -76 -84zM600 459q72 0 119 -33t47 -95q0 -71 -68 -95q35 -9 57 -36t22 -68q0 -65 -48.5 -101.5t-128.5 -36.5t-128.5 36.5t-48.5 101.5q0 41 22 68t57 36q-68 24 -68 95q0 62 47 95t119 33zM600 272q38 0 57 16.5t19 42.5q0 27 -21 41.5
t-55 14.5t-55 -14.5t-21 -41.5q0 -26 19 -42.5t57 -16.5zM600 72q37 0 58.5 18t21.5 46q0 29 -21 45.5t-59 16.5t-59 -16.5t-21 -45.5q0 -28 21.5 -46t58.5 -18z" />
    <glyph glyph-name="fiveeighths" unicode="&#x215d;" horiz-adv-x="836" 
d="M66 430l14 263h294v-83h-215l-5 -91q11 12 35 22t56 10q72 0 113 -41t41 -107q0 -74 -45 -122t-132 -48q-48 0 -83 14.5t-52 38t-24.5 45t-7.5 42.5h97q2 -26 20.5 -44t51.5 -18q37 0 58 23t21 61q0 36 -20.5 57.5t-56.5 21.5q-25 0 -44.5 -13t-26.5 -33zM604 459
q72 0 119 -33t47 -95q0 -71 -68 -95q35 -9 57 -36t22 -68q0 -65 -48.5 -101.5t-128.5 -36.5t-128.5 36.5t-48.5 101.5q0 41 22 68t57 36q-68 24 -68 95q0 62 47 95t119 33zM604 272q38 0 57 16.5t19 42.5q0 27 -21 41.5t-55 14.5t-55 -14.5t-21 -41.5q0 -26 19 -42.5
t57 -16.5zM604 72q37 0 58.5 18t21.5 46q0 29 -21 45.5t-59 16.5t-59 -16.5t-21 -45.5q0 -28 21.5 -46t58.5 -18z" />
    <glyph glyph-name="seveneighths" unicode="&#x215e;" horiz-adv-x="727" 
d="M274 611h-219v83h322v-75l-175 -380h-105zM495 459q72 0 119 -33t47 -95q0 -71 -68 -95q35 -9 57 -36t22 -68q0 -65 -48.5 -101.5t-128.5 -36.5t-128.5 36.5t-48.5 101.5q0 41 22 68t57 36q-68 24 -68 95q0 62 47 95t119 33zM495 272q38 0 57 16.5t19 42.5q0 27 -21 41.5
t-55 14.5t-55 -14.5t-21 -41.5q0 -26 19 -42.5t57 -16.5zM495 72q37 0 58.5 18t21.5 46q0 29 -21 45.5t-59 16.5t-59 -16.5t-21 -45.5q0 -28 21.5 -46t58.5 -18z" />
    <glyph glyph-name="partialdiff" unicode="&#x2202;" horiz-adv-x="586" 
d="M164 750h177q102 -89 158.5 -208.5t56.5 -258.5q0 -137 -73 -213.5t-191 -76.5q-125 0 -192 73q-70 78 -70 208q0 74 21.5 130t57 88t77 47.5t86.5 15.5q50 0 81 -15q-77 128 -189 210zM293 443q-57 0 -91 -41.5t-34 -127.5t34 -127.5t91 -41.5t91 41.5t34 127.5
t-34 127.5t-91 41.5z" />
    <glyph glyph-name="product" unicode="&#x220f;" horiz-adv-x="786" 
d="M55 700h676v-123h-90v-769h-138v769h-220v-769h-138v769h-90v123z" />
    <glyph glyph-name="summation" unicode="&#x2211;" horiz-adv-x="678" 
d="M623 -192h-568v109l254 345l-254 327v111h564v-123h-381l220 -286v-52l-225 -308h390v-123z" />
    <glyph glyph-name="minus" unicode="&#x2212;" horiz-adv-x="527" 
d="M472 291h-417v116h417v-116z" />
    <glyph glyph-name="uni2215" unicode="&#x2215;" horiz-adv-x="0" 
 />
    <glyph glyph-name="radical" unicode="&#x221a;" horiz-adv-x="757" 
d="M702 700l-278 -892h-190l-179 571h150l127 -439l225 760h145z" />
    <glyph glyph-name="infinity" unicode="&#x221e;" horiz-adv-x="959" 
d="M673 102q-126 0 -197 114q-71 -114 -190 -114q-112 0 -171.5 70.5t-59.5 178.5t59 178t172 70q126 0 195 -106q69 106 192 106q113 0 172 -70t59 -178t-59.5 -178.5t-171.5 -70.5zM289 226q81 0 134 125q-57 125 -131 125q-48 0 -76 -34t-28 -91t27 -91t74 -34zM667 476
q-43 0 -78 -34.5t-51 -87.5q47 -128 129 -128q48 0 76 34t28 91q0 125 -104 125z" />
    <glyph glyph-name="integral" unicode="&#x222b;" horiz-adv-x="550" 
d="M399 591l-114 -641q-26 -142 -160 -142q-48 0 -83 7q-22 4 -32 7l20 116q18 -4 27 -5q27 -5 52 -5q36 0 42 31l114 644q25 139 168 139q41 0 74 -5q26 -4 33 -5l-19 -116l-26 4q-25 5 -54 5q-36 0 -42 -34z" />
    <glyph glyph-name="approxequal" unicode="&#x2248;" horiz-adv-x="514" 
d="M159 374h-104q0 84 32 122q32 39 87 39q31 0 88.5 -22t66.5 -22q25 0 25 42l105 -5q0 -150 -114 -150q-30 0 -90.5 21t-68.5 21q-27 0 -27 -46zM159 184h-104q0 84 32 122q32 39 87 39q31 0 88.5 -22t66.5 -22q25 0 25 42l105 -5q0 -150 -114 -150q-30 0 -90.5 21
t-68.5 21q-27 0 -27 -46z" />
    <glyph glyph-name="notequal" unicode="&#x2260;" horiz-adv-x="654" 
d="M599 194h-329l-69 -119l-57 34l49 85h-138v110h202l52 91h-254v111h319l69 119l57 -34l-49 -85h148v-111h-213l-53 -91h266v-110z" />
    <glyph glyph-name="lessequal" unicode="&#x2264;" horiz-adv-x="485" 
d="M55 378v62l375 230v-136l-207 -125l207 -125v-136zM430 0h-375v105h375v-105z" />
    <glyph glyph-name="greaterequal" unicode="&#x2265;" horiz-adv-x="485" 
d="M430 440v-62l-375 -230v136l207 125l-207 125v136zM430 0h-375v105h375v-105z" />
    <glyph glyph-name="lozenge" unicode="&#x25ca;" horiz-adv-x="629" 
d="M574 345l-173 -434h-166l-180 434l180 435h166zM433 345l-114 299l-118 -299l118 -298z" />
    <glyph glyph-name="zero.alt" horiz-adv-x="598" 
d="M299 -11q-47 0 -88.5 15t-82 51.5t-64.5 111t-24 179.5q0 85 16.5 150.5t42 104t61 62.5t69 32.5t70.5 8.5t70.5 -8.5t69 -32.5t61 -62.5t42 -104t16.5 -150.5q0 -105 -24 -179.5t-64.5 -111t-82 -51.5t-88.5 -15zM299 589q-119 0 -119 -243q0 -73 10 -123.5t28 -75
t37.5 -34t43.5 -9.5t43.5 9.5t37.5 34t28 75t10 123.5q0 243 -119 243z" />
    <glyph glyph-name="one.alt" horiz-adv-x="598" 
d="M372 115h150v-115h-446v115h155v387h-136v119h84q37 0 54.5 14t19.5 57h119v-577z" />
    <glyph glyph-name="two.alt" horiz-adv-x="598" 
d="M185 453h-134q-2 115 62.5 183t193.5 68q107 0 173.5 -60t66.5 -154q0 -70 -30.5 -120.5t-91.5 -100.5l-189 -152h308v-117h-481v127l269 219q49 41 64.5 72t15.5 70q0 44 -30.5 71.5t-77.5 27.5q-125 0 -119 -134z" />
    <glyph glyph-name="three.alt" horiz-adv-x="598" 
d="M186 465h-131q-4 116 61.5 177.5t185.5 61.5q109 0 174.5 -54.5t65.5 -140.5q0 -55 -28.5 -95t-81.5 -57q55 -10 89.5 -53.5t34.5 -99.5q0 -94 -64.5 -154.5t-192.5 -60.5t-193 64t-65 170h135q0 -121 125 -121q58 0 88 27t30 70q0 48 -33.5 71t-88.5 23h-53v114h44
q123 0 123 93q0 37 -28 64t-80 27q-58 0 -87.5 -30t-29.5 -96z" />
    <glyph glyph-name="four.alt" horiz-adv-x="598" 
d="M574 144h-81v-144h-133v144h-333v116l283 432h183v-438h81v-110zM360 254v321l-212 -321h212z" />
    <glyph glyph-name="five.alt" horiz-adv-x="598" 
d="M58 294l22 400h442v-119h-331l-9 -151q17 19 54.5 34.5t86.5 15.5q108 0 170 -63.5t62 -164.5q0 -116 -68 -186t-198 -70q-56 0 -100.5 15.5t-71 38t-44.5 52t-25 54.5t-8 48h139q4 -38 33 -67t81 -29q61 0 94 36.5t33 97.5q0 58 -31 92.5t-89 34.5q-84 0 -116 -73z" />
    <glyph glyph-name="six.alt" horiz-adv-x="598" 
d="M550 515h-133q-5 31 -28.5 54t-74.5 23q-70 0 -104.5 -56t-38.5 -144q58 71 167 71q90 0 154.5 -58.5t64.5 -169.5q0 -109 -69.5 -177.5t-182.5 -68.5q-121 0 -193 82.5t-72 249.5q0 55 7 105.5t26.5 102.5t50 89.5t81.5 61.5t117 24q54 0 96.5 -15.5t66 -37t38.5 -50
t20 -48t7 -38.5zM192 228q0 -57 30.5 -90.5t84.5 -33.5q53 0 84 34t31 90t-30.5 90t-83.5 34q-54 0 -85 -33.5t-31 -90.5z" />
    <glyph glyph-name="seven.alt" horiz-adv-x="598" 
d="M396 573h-340v118h486v-110l-268 -581h-151z" />
    <glyph glyph-name="eight.alt" horiz-adv-x="598" 
d="M298 -11q-117 0 -189.5 55.5t-72.5 155.5q0 63 33 106t79 58q-40 15 -68 54.5t-28 90.5q0 95 69.5 145t176.5 50q106 0 175.5 -50t69.5 -145q0 -52 -27 -90.5t-68 -54.5q46 -15 79 -58t33 -106q0 -100 -72.5 -155.5t-189.5 -55.5zM298 597q-53 0 -85.5 -23t-32.5 -67
q0 -41 30 -67.5t88 -26.5t88 26.5t30 67.5q0 44 -32.5 67t-85.5 23zM298 307q-58 0 -91 -27t-33 -73t33.5 -75t90.5 -29t90.5 29t33.5 75t-33 73t-91 27z" />
    <glyph glyph-name="nine.alt" horiz-adv-x="598" 
d="M47 178h133q3 -30 28 -53.5t75 -23.5q71 0 105.5 56t34.5 141q-23 -28 -66 -48t-98 -20q-90 0 -154.5 58.5t-64.5 169.5q0 109 69.5 177.5t182.5 68.5q118 0 191.5 -86.5t73.5 -241.5q0 -58 -7 -108.5t-26 -103.5t-49.5 -90t-81.5 -61t-118 -24q-54 0 -96.5 15.5
t-66.5 37t-39.5 49t-20.5 49t-5 38.5zM405 465q0 57 -30.5 90.5t-84.5 33.5q-53 0 -84 -34t-31 -90t30.5 -90t83.5 -34q54 0 85 33.5t31 90.5z" />
    <glyph glyph-name="zero.posf" horiz-adv-x="599" 
d="M299 -7q-37 0 -70 7t-68.5 28t-61.5 53.5t-42.5 88.5t-16.5 129q0 62 11 111t31.5 81.5t45 55.5t55 35.5t58.5 17.5t58 5q37 0 70.5 -7t69 -27.5t61.5 -53t42.5 -89t16.5 -129.5t-16.5 -129t-42.5 -88.5t-61.5 -53.5t-69 -28t-70.5 -7zM417 299q0 105 -30.5 149t-87.5 44
t-87.5 -44t-30.5 -149t30.5 -149t87.5 -44t87.5 44t30.5 149z" />
    <glyph glyph-name="one.posf" horiz-adv-x="372" 
d="M287 598v-598h-141v408h-106v119h56q36 0 53 14t19 57h119z" />
    <glyph glyph-name="two.posf" horiz-adv-x="548" 
d="M166 362h-135q-5 119 60 183.5t189 64.5q106 0 169 -58.5t63 -138.5q0 -63 -33 -109.5t-103 -93.5l-142 -95h274v-115h-464v123l236 159q58 39 76 66t18 61t-24.5 60t-73.5 26q-58 0 -85.5 -36.5t-24.5 -96.5z" />
    <glyph glyph-name="three.posf" horiz-adv-x="594" 
d="M185 372h-131q-4 116 61.5 177.5t185.5 61.5q109 0 174.5 -54.5t65.5 -140.5q0 -55 -28.5 -95t-81.5 -57q55 -10 89.5 -53.5t34.5 -99.5q0 -94 -64.5 -154.5t-192.5 -60.5t-193 64t-65 170h135q0 -121 125 -121q58 0 88 27t30 70q0 48 -33.5 71t-88.5 23h-53v114h44
q123 0 123 93q0 37 -28 64t-80 27q-58 0 -87.5 -30t-29.5 -96z" />
    <glyph glyph-name="four.posf" horiz-adv-x="602" 
d="M577 51h-81v-144h-133v144h-333v116l283 432h183v-438h81v-110zM363 161v321l-212 -321h212z" />
    <glyph glyph-name="five.posf" horiz-adv-x="585" 
d="M54 195l22 400h442v-119h-331l-9 -151q17 19 54.5 34.5t86.5 15.5q108 0 170 -63.5t62 -164.5q0 -116 -68 -186t-198 -70q-56 0 -100.5 15.5t-71 38t-44.5 52t-25 54.5t-8 48h139q4 -38 33 -67t81 -29q61 0 94 36.5t33 97.5q0 58 -31 92.5t-89 34.5q-84 0 -116 -73z" />
    <glyph glyph-name="six.posf" horiz-adv-x="587" 
d="M546 515h-133q-5 31 -28.5 54t-74.5 23q-70 0 -104.5 -56t-38.5 -144q58 71 167 71q90 0 154.5 -58.5t64.5 -169.5q0 -109 -69.5 -177.5t-182.5 -68.5q-121 0 -193 82.5t-72 249.5q0 55 7 105.5t26.5 102.5t50 89.5t81.5 61.5t117 24q54 0 96.5 -15.5t66 -37t38.5 -50
t20 -48t7 -38.5zM188 228q0 -57 30.5 -90.5t84.5 -33.5q53 0 84 34t31 90t-30.5 90t-83.5 34q-54 0 -85 -33.5t-31 -90.5z" />
    <glyph glyph-name="seven.posf" horiz-adv-x="521" 
d="M356 477h-340v118h486v-110l-268 -581h-151z" />
    <glyph glyph-name="eight.posf" horiz-adv-x="606" 
d="M303 -11q-117 0 -189.5 55.5t-72.5 155.5q0 63 33 106t79 58q-40 15 -68 54.5t-28 90.5q0 95 69.5 145t176.5 50q106 0 175.5 -50t69.5 -145q0 -52 -27 -90.5t-68 -54.5q46 -15 79 -58t33 -106q0 -100 -72.5 -155.5t-189.5 -55.5zM303 597q-53 0 -85.5 -23t-32.5 -67
q0 -41 30 -67.5t88 -26.5t88 26.5t30 67.5q0 44 -32.5 67t-85.5 23zM303 307q-58 0 -91 -27t-33 -73t33.5 -75t90.5 -29t90.5 29t33.5 75t-33 73t-91 27z" />
    <glyph glyph-name="nine.posf" horiz-adv-x="587" 
d="M43 84h133q3 -30 28 -53.5t75 -23.5q71 0 105.5 56t34.5 141q-23 -28 -66 -48t-98 -20q-90 0 -154.5 58.5t-64.5 169.5q0 109 69.5 177.5t182.5 68.5q118 0 191.5 -86.5t73.5 -241.5q0 -58 -7 -108.5t-26 -103.5t-49.5 -90t-81.5 -61t-118 -24q-54 0 -96.5 15.5t-66.5 37
t-39.5 49t-20.5 49t-5 38.5zM401 371q0 57 -30.5 90.5t-84.5 33.5q-53 0 -84 -34t-31 -90t30.5 -90t83.5 -34q54 0 85 33.5t31 90.5z" />
    <glyph glyph-name="zero.sinf" horiz-adv-x="452" 
d="M226 -117q-31 0 -58.5 9.5t-54.5 33.5t-42.5 72t-15.5 117q0 68 15.5 116.5t42.5 72.5t54.5 34t58.5 10t58.5 -10t54.5 -34t42.5 -72.5t15.5 -116.5q0 -69 -15.5 -117t-42.5 -72t-54.5 -33.5t-58.5 -9.5zM226 269q-74 0 -74 -154q0 -153 74 -153t74 153q0 154 -74 154z
" />
    <glyph glyph-name="one.sinf" horiz-adv-x="287" 
d="M212 346v-456h-98v326h-79v84h46q47 0 47 46h84z" />
    <glyph glyph-name="two.sinf" horiz-adv-x="431" 
d="M146 180h-93q0 76 43 123.5t127 47.5q79 0 119.5 -41.5t40.5 -93.5q0 -45 -18 -77t-55 -64l-118 -104h187v-81h-311v79l175 154q46 40 46 85q0 28 -18 45.5t-48 17.5q-77 0 -77 -91z" />
    <glyph glyph-name="three.sinf" horiz-adv-x="450" 
d="M156 184h-89q0 78 42.5 121t126.5 43q71 0 112.5 -34t41.5 -91q0 -38 -18.5 -65.5t-54.5 -36.5q35 -6 57.5 -33.5t22.5 -61.5q0 -69 -47 -106t-126 -37q-82 0 -125.5 43.5t-43.5 112.5h96q0 -38 20 -58t54 -20q39 0 57 18t18 45q0 54 -76 54h-37v79h34q76 0 76 60
q0 22 -16 36.5t-49 14.5q-76 0 -76 -84z" />
    <glyph glyph-name="four.sinf" horiz-adv-x="461" 
d="M406 -16h-52v-94h-93v94h-216v79l189 283h120v-287h52v-75zM261 59v193l-126 -193h126z" />
    <glyph glyph-name="five.sinf" horiz-adv-x="451" 
d="M66 80l14 263h294v-83h-215l-5 -91q11 12 35 22t56 10q72 0 113 -41t41 -107q0 -74 -45 -122t-132 -48q-48 0 -83 14.5t-52 38t-24.5 45t-7.5 42.5h97q2 -26 20.5 -44t51.5 -18q37 0 58 23t21 61q0 36 -20.5 57.5t-56.5 21.5q-25 0 -44.5 -13t-26.5 -33z" />
    <glyph glyph-name="six.sinf" horiz-adv-x="455" 
d="M393 221h-93q-3 20 -18.5 35t-45.5 15q-42 0 -64 -32t-24 -82q39 37 101 37q60 0 105.5 -39t45.5 -113q0 -71 -46 -115t-122 -44q-80 0 -128.5 54.5t-48.5 165.5q0 47 9 87.5t28.5 77.5t57.5 58.5t90 21.5q45 0 77 -14.5t47 -37.5t21 -40.5t8 -34.5zM309 37q0 35 -20 57
t-54 22q-33 0 -54.5 -22t-21.5 -57t21 -56t54 -21t54 21t21 56z" />
    <glyph glyph-name="seven.sinf" horiz-adv-x="362" 
d="M239 262h-219v83h322v-75l-175 -380h-105z" />
    <glyph glyph-name="eight.sinf" horiz-adv-x="464" 
d="M232 348q72 0 119 -33t47 -95q0 -71 -68 -95q35 -9 57 -36t22 -68q0 -65 -48.5 -101.5t-128.5 -36.5t-128.5 36.5t-48.5 101.5q0 41 22 68t57 36q-68 24 -68 95q0 62 47 95t119 33zM232 161q38 0 57 16.5t19 42.5q0 27 -21 41.5t-55 14.5t-55 -14.5t-21 -41.5
q0 -26 19 -42.5t57 -16.5zM232 -39q37 0 58.5 18t21.5 46q0 29 -21 45.5t-59 16.5t-59 -16.5t-21 -45.5q0 -28 21.5 -46t58.5 -18z" />
    <glyph glyph-name="nine.sinf" horiz-adv-x="455" 
d="M62 10h93q8 -50 64 -50q42 0 64 32t24 82q-37 -37 -101 -37q-60 0 -105.5 39t-45.5 113q0 71 46 115t122 44q80 0 128.5 -54.5t48.5 -165.5q0 -47 -9 -87.5t-28.5 -77.5t-57.5 -58.5t-90 -21.5q-45 0 -77 14.5t-47 37.5t-21 40.5t-8 34.5zM146 194q0 -35 20 -57t54 -22
q33 0 54.5 22t21.5 57t-21 56t-54 21t-54 -21t-21 -56z" />
    <glyph glyph-name="zero.sups" horiz-adv-x="452" 
d="M226 352q-31 0 -58.5 9.5t-54.5 33.5t-42.5 72t-15.5 117q0 68 15.5 116.5t42.5 72.5t54.5 34t58.5 10t58.5 -10t54.5 -34t42.5 -72.5t15.5 -116.5q0 -69 -15.5 -117t-42.5 -72t-54.5 -33.5t-58.5 -9.5zM226 738q-74 0 -74 -154q0 -153 74 -153t74 153q0 154 -74 154z
" />
    <glyph glyph-name="one.sups" horiz-adv-x="287" 
d="M212 815v-456h-98v326h-79v84h46q47 0 47 46h84z" />
    <glyph glyph-name="two.sups" horiz-adv-x="431" 
d="M146 649h-93q0 76 43 123.5t127 47.5q79 0 119.5 -41.5t40.5 -93.5q0 -45 -18 -77t-55 -64l-118 -104h187v-81h-311v79l175 154q46 40 46 85q0 28 -18 45.5t-48 17.5q-77 0 -77 -91z" />
    <glyph glyph-name="three.sups" horiz-adv-x="450" 
d="M156 653h-89q0 79 42.5 121.5t126.5 42.5q71 0 112.5 -34t41.5 -91q0 -38 -18.5 -65.5t-54.5 -36.5q35 -6 57.5 -33.5t22.5 -61.5q0 -69 -47 -106t-126 -37q-82 0 -125.5 43.5t-43.5 112.5h96q0 -38 20 -58t54 -20q39 0 57 18t18 45q0 54 -76 54h-37v79h34q76 0 76 60
q0 22 -16 36.5t-49 14.5q-76 0 -76 -84z" />
    <glyph glyph-name="four.sups" horiz-adv-x="461" 
d="M406 453h-52v-94h-93v94h-216v79l189 283h120v-287h52v-75zM261 528v193l-126 -193h126z" />
    <glyph glyph-name="five.sups" horiz-adv-x="451" 
d="M66 549l14 263h294v-83h-215l-5 -91q11 12 35 22t56 10q72 0 113 -41t41 -107q0 -74 -45 -122t-132 -48q-48 0 -83 14.5t-52 38t-24.5 45t-7.5 42.5h97q2 -26 20.5 -44t51.5 -18q37 0 58 23t21 61q0 36 -20.5 57.5t-56.5 21.5q-25 0 -44.5 -13t-26.5 -33z" />
    <glyph glyph-name="six.sups" horiz-adv-x="455" 
d="M393 690h-93q-3 20 -18.5 35t-45.5 15q-42 0 -63.5 -34t-24.5 -84q34 41 101 41q60 0 105.5 -39t45.5 -113q0 -71 -46 -115t-122 -44q-80 0 -128.5 54.5t-48.5 165.5q0 47 9 87.5t28.5 77.5t57.5 58.5t90 21.5q45 0 77 -14.5t47 -37.5t21 -40.5t8 -34.5zM309 506
q0 35 -20 57t-54 22q-33 0 -54.5 -22t-21.5 -57t21 -56t54 -21t54 21t21 56z" />
    <glyph glyph-name="seven.sups" horiz-adv-x="362" 
d="M239 731h-219v83h322v-75l-175 -380h-105z" />
    <glyph glyph-name="eight.sups" horiz-adv-x="464" 
d="M232 817q72 0 119 -33t47 -95q0 -71 -68 -95q35 -9 57 -36t22 -68q0 -65 -48.5 -101.5t-128.5 -36.5t-128.5 36.5t-48.5 101.5q0 41 22 68t57 36q-68 24 -68 95q0 62 47 95t119 33zM232 630q38 0 57 16.5t19 42.5q0 27 -21 41.5t-55 14.5t-55 -14.5t-21 -41.5
q0 -26 19 -42.5t57 -16.5zM232 430q37 0 58.5 18t21.5 46q0 29 -21 45.5t-59 16.5t-59 -16.5t-21 -45.5q0 -28 21.5 -46t58.5 -18z" />
    <glyph glyph-name="nine.sups" horiz-adv-x="455" 
d="M62 479h93q8 -50 64 -50q42 0 64 32t24 82q-37 -37 -101 -37q-60 0 -105.5 39t-45.5 113q0 71 46 115t122 44q80 0 128.5 -54.5t48.5 -165.5q0 -47 -9 -87.5t-28.5 -77.5t-57.5 -58.5t-90 -21.5q-45 0 -77 14.5t-47 37.5t-21 40.5t-8 34.5zM146 663q0 -35 20 -57t54 -22
q33 0 54.5 22t21.5 57t-21 56t-54 21t-54 -21t-21 -56z" />
    <glyph glyph-name="greater.alt" horiz-adv-x="485" 
d="M430 390v-62l-375 -230v136l207 125l-207 125v136z" />
    <glyph glyph-name="less.alt" horiz-adv-x="485" 
d="M55 328v62l375 230v-136l-207 -125l207 -125v-136z" />
    <glyph glyph-name="arrowdown.left" horiz-adv-x="986" 
d="M85 -115v495l227 227v-331l425 425l164 -164l-425 -425h331l-227 -227h-495z" />
    <glyph glyph-name="arrowdown.right" horiz-adv-x="986" 
d="M901 380v-495h-495l-227 227h331l-425 425l164 164l425 -425v331z" />
    <glyph glyph-name="arrowup.left" horiz-adv-x="986" 
d="M85 186v495h495l227 -227h-331l425 -425l-164 -164l-425 425v-331z" />
    <glyph glyph-name="arrowup.right" horiz-adv-x="986" 
d="M901 681v-495l-227 -227v331l-425 -425l-164 164l425 425h-331l227 227h495z" />
    <glyph glyph-name="caron.alt" 
d="M203 700v-146q0 -17 -1 -28t-7 -29t-17.5 -29t-34 -19.5t-54.5 -8.5h-27v61q26 0 35.5 5t9.5 23v23h-52v148h148z" />
    <glyph glyph-name="CR" horiz-adv-x="210" 
 />
    <glyph glyph-name="eightninths" horiz-adv-x="848" 
d="M232 700q72 0 119 -33t47 -95q0 -71 -68 -95q35 -9 57 -36t22 -68q0 -65 -48.5 -101.5t-128.5 -36.5t-128.5 36.5t-48.5 101.5q0 41 22 68t57 36q-68 24 -68 95q0 62 47 95t119 33zM232 513q38 0 57 16.5t19 42.5q0 27 -21 41.5t-55 14.5t-55 -14.5t-21 -41.5
q0 -26 19 -42.5t57 -16.5zM455 121h93q8 -50 64 -50q42 0 65 35t23 84q-37 -42 -102 -42q-61 0 -105.5 38t-44.5 112q0 71 47 116t121 45q80 0 128.5 -54.5t48.5 -165.5q0 -47 -9 -87.5t-28.5 -77.5t-57.5 -58.5t-90 -21.5q-45 0 -77 14.5t-47 37.5t-21 40.5t-8 34.5z
M232 313q37 0 58.5 18t21.5 46q0 29 -21 45.5t-59 16.5t-59 -16.5t-21 -45.5q0 -28 21.5 -46t58.5 -18zM539 305q0 -35 20 -57t54 -22q33 0 54.5 22t21.5 57t-21 56t-54 21t-54 -21t-21 -56z" />
    <glyph glyph-name="fiveninths" horiz-adv-x="830" 
d="M66 430l14 263h294v-83h-215l-5 -91q11 12 35 22t56 10q72 0 113 -41t41 -107q0 -74 -45 -122t-132 -48q-48 0 -83 14.5t-52 38t-24.5 45t-7.5 42.5h97q2 -26 20.5 -44t51.5 -18q37 0 58 23t21 61q0 36 -20.5 57.5t-56.5 21.5q-25 0 -44.5 -13t-26.5 -33zM437 121h93
q8 -50 64 -50q42 0 65 35t23 84q-37 -42 -102 -42q-61 0 -105.5 38t-44.5 112q0 71 47 116t121 45q80 0 128.5 -54.5t48.5 -165.5q0 -47 -9 -87.5t-28.5 -77.5t-57.5 -58.5t-90 -21.5q-45 0 -77 14.5t-47 37.5t-21 40.5t-8 34.5zM521 305q0 -35 20 -57t54 -22q33 0 54.5 22
t21.5 57t-21 56t-54 21t-54 -21t-21 -56z" />
    <glyph glyph-name="fivesevenths" horiz-adv-x="826" 
d="M66 430l14 263h294v-83h-215l-5 -91q11 12 35 22t56 10q72 0 113 -41t41 -107q0 -74 -45 -122t-132 -48q-48 0 -83 14.5t-52 38t-24.5 45t-7.5 42.5h97q2 -26 20.5 -44t51.5 -18q37 0 58 23t21 61q0 36 -20.5 57.5t-56.5 21.5q-25 0 -44.5 -13t-26.5 -33zM668 373h-219
v83h322v-75l-175 -380h-105z" />
    <glyph glyph-name="fourninths" horiz-adv-x="865" 
d="M416 333h-52v-94h-93v94h-216v79l189 283h120v-287h52v-75zM271 408v193l-126 -193h126zM472 121h93q3 -19 18 -34.5t46 -15.5q42 0 65 35t23 84q-37 -42 -102 -42q-61 0 -105.5 38t-44.5 112q0 71 47 116t121 45q80 0 128.5 -54.5t48.5 -165.5q0 -47 -9 -87.5
t-28.5 -77.5t-57.5 -58.5t-90 -21.5q-45 0 -77 14.5t-47 37.5t-21 40.5t-8 34.5zM556 305q0 -35 20 -57t54 -22q33 0 54.5 22t21.5 57t-21 56t-54 21t-54 -21t-21 -56z" />
    <glyph glyph-name="foursevenths" horiz-adv-x="838" 
d="M416 333h-52v-94h-93v94h-216v79l189 283h120v-287h52v-75zM271 408v193l-126 -193h126zM680 373h-219v83h322v-75l-175 -380h-105z" />
    <glyph glyph-name="revcommaaccent" 
d="M55 440v146q0 17 1 28t7 29t17.5 29t34 19.5t54.5 8.5h27v-61q-26 0 -35.5 -5t-9.5 -23v-23h52v-148h-148z" />
    <glyph glyph-name="sevenninths" horiz-adv-x="714" 
d="M274 611h-219v83h322v-75l-175 -380h-105zM321 121h93q8 -50 64 -50q42 0 65 35t23 84q-37 -42 -102 -42q-61 0 -105.5 38t-44.5 112q0 71 47 116t121 45q80 0 128.5 -54.5t48.5 -165.5q0 -47 -9 -87.5t-28.5 -77.5t-57.5 -58.5t-90 -21.5q-45 0 -77 14.5t-47 37.5
t-21 40.5t-8 34.5zM405 305q0 -35 20 -57t54 -22q33 0 54.5 22t21.5 57t-21 56t-54 21t-54 -21t-21 -56z" />
    <glyph glyph-name="sixsevenths" horiz-adv-x="819" 
d="M393 573h-93q-3 20 -18.5 35t-45.5 15q-42 0 -63.5 -34t-24.5 -84q34 41 101 41q60 0 105.5 -39t45.5 -113q0 -71 -46 -115t-122 -44q-80 0 -128.5 54.5t-48.5 165.5q0 47 9 87.5t28.5 77.5t57.5 58.5t90 21.5q45 0 77 -14.5t47 -37.5t21 -40.5t8 -34.5zM309 389
q0 35 -20 57t-54 22q-33 0 -54.5 -22t-21.5 -57t21 -56t54 -21t54 21t21 56zM661 373h-219v83h322v-75l-175 -380h-105z" />
    <glyph glyph-name="threesevenths" horiz-adv-x="815" 
d="M156 536h-89q0 78 42.5 121t126.5 43q71 0 112.5 -34t41.5 -91q0 -38 -18.5 -65.5t-54.5 -36.5q35 -6 57.5 -33.5t22.5 -61.5q0 -69 -47 -106t-126 -37q-82 0 -125.5 43.5t-43.5 112.5h96q0 -38 20 -58t54 -20q39 0 57 18t18 45q0 54 -76 54h-37v79h34q76 0 76 60
q0 22 -16 36.5t-49 14.5q-76 0 -76 -84zM657 373h-219v83h322v-75l-175 -380h-105z" />
    <glyph glyph-name="twoninths" horiz-adv-x="832" 
d="M144 529h-93q0 76 43 123.5t127 47.5q79 0 119.5 -41.5t40.5 -93.5q0 -45 -18 -77t-54 -65l-117 -103h187v-81h-311v79l172 153q47 41 47 86q0 28 -18 45.5t-48 17.5q-77 0 -77 -91zM439 121h93q8 -50 64 -50q42 0 65 35t23 84q-37 -42 -102 -42q-61 0 -105.5 38
t-44.5 112q0 71 47 116t121 45q80 0 128.5 -54.5t48.5 -165.5q0 -47 -9 -87.5t-28.5 -77.5t-57.5 -58.5t-90 -21.5q-45 0 -77 14.5t-47 37.5t-21 40.5t-8 34.5zM523 305q0 -35 20 -57t54 -22q33 0 54.5 22t21.5 57t-21 56t-54 21t-54 -21t-21 -56z" />
    <glyph glyph-name="twosevenths" horiz-adv-x="787" 
d="M144 529h-93q0 76 43 123.5t127 47.5q79 0 119.5 -41.5t40.5 -93.5q0 -45 -18 -77t-54 -65l-117 -103h187v-81h-311v79l172 153q47 41 47 86q0 28 -18 45.5t-48 17.5q-77 0 -77 -91zM629 373h-219v83h322v-75l-175 -380h-105z" />
    <glyph glyph-name="arrow.down" horiz-adv-x="869" 
d="M435 -236l-350 350v321l234 -234v601h232v-601l233 233v-321z" />
    <glyph glyph-name="arrow.up" horiz-adv-x="869" 
d="M85 452l350 350l349 -349v-321l-233 233v-601h-232v601l-234 -234v321z" />
    </font>
</defs>
</svg>
